<!--
  -
  -   Copyright (c) 2025 Huawei Device Co., Ltd.
  -   Licensed under the Apache License, Version 2.0 (the "License");
  -   you may not use this file except in compliance with the License.
  -   You may obtain a copy of the License at
  -
  -       http://www.apache.org/licenses/LICENSE-2.0
  -
  -   Unless required by applicable law or agreed to in writing, software
  -   distributed under the License is distributed on an "AS IS" BASIS,
  -   WITHOUT WARRANTIES OR CONDITIONS OF ANY KIND, either express or implied.
  -   See the License for the specific language governing permissions and
  -   limitations under the License.
  -
  -->

<svg width="18.000000" height="18.000000" viewBox="0 0 18 18" fill="none" xmlns="http://www.w3.org/2000/svg" xmlns:xlink="http://www.w3.org/1999/xlink">
	<desc>
			Created with Pixso.
	</desc>
	<defs/>
	<path id="Fill 1" d="M0 18L18 18L18 0L0 0L0 18Z" fill="#FFFFFF" fill-opacity="0" fill-rule="evenodd"/>
	<path id="形状结合" d="M1.5 8.25C1.5 4.10775 4.85779 0.75 9 0.75C9.82874 0.75 10.5 1.42125 10.5 2.25L10.5 4.50036C10.0554 4.50148 9.68762 4.5061 9.375 4.52519L9.375 2.25C9.375 2.043 9.20703 1.875 9 1.875C5.48474 1.875 2.625 4.73475 2.625 8.25L2.625 15.375L6.75 15.375L6.75 16.5L1.5 16.5L1.5 8.25Z" clip-rule="evenodd" fill="#000000" fill-opacity="1.000000" fill-rule="evenodd"/>
	<path id="Fill 1" d="M16.71 15.37L1.28 15.37C0.99 15.37 0.75 15.62 0.75 15.93C0.75 16.24 0.99 16.5 1.28 16.5L16.71 16.5C17 16.5 17.25 16.24 17.25 15.93C17.25 15.62 17 15.37 16.71 15.37Z" fill="#000000" fill-opacity="1.000000" fill-rule="evenodd"/>
	<path id="矩形备份" d="M10.95 4.5L12.3 4.5C13.77 4.5 14.5 4.5 15.06 4.78C15.56 5.03 15.96 5.43 16.21 5.93C16.5 6.49 16.5 7.22 16.5 8.7L16.5 16.5L6.75 16.5L6.75 8.7C6.75 7.22 6.75 6.49 7.03 5.93C7.28 5.43 7.68 5.03 8.18 4.78C8.74 4.5 9.47 4.5 10.95 4.5Z" fill="#FFFFFF" fill-opacity="0" fill-rule="evenodd"/>
	<path id="矩形备份" d="M12.3 4.5C13.77 4.5 14.5 4.5 15.06 4.78C15.56 5.03 15.96 5.43 16.21 5.93C16.5 6.49 16.5 7.22 16.5 8.7L16.5 16.5L6.75 16.5L6.75 8.7C6.75 7.22 6.75 6.49 7.03 5.93C7.28 5.43 7.68 5.03 8.18 4.78C8.74 4.5 9.47 4.5 10.95 4.5L12.3 4.5ZM12.97 5.62C13.81 5.62 14.23 5.62 14.55 5.78C14.83 5.93 15.06 6.16 15.21 6.44C15.37 6.76 15.37 7.18 15.37 8.02L15.37 15.37L7.87 15.37L7.87 8.02C7.87 7.18 7.87 6.76 8.03 6.44C8.18 6.16 8.41 5.93 8.69 5.78C9.01 5.62 9.43 5.62 10.27 5.62L12.97 5.62Z" fill="#000000" fill-opacity="1.000000" fill-rule="evenodd"/>
	<rect id="矩形" x="9.375000" y="8.250000" rx="0.562500" width="4.500000" height="1.125000" fill="#000000" fill-opacity="1.000000"/>
	<rect id="矩形" x="9.875000" y="8.750000" rx="0.062500" width="3.500000" height="0.125000" stroke="#979797" stroke-opacity="0" stroke-width="1.000000"/>
	<rect id="矩形备份 2" x="9.375000" y="11.250000" rx="0.562500" width="4.500000" height="1.125000" fill="#000000" fill-opacity="1.000000"/>
	<rect id="矩形备份 2" x="9.875000" y="11.750000" rx="0.062500" width="3.500000" height="0.125000" stroke="#979797" stroke-opacity="0" stroke-width="1.000000"/>
</svg>
