<!--
  -
  -   Copyright (c) 2025 Huawei Device Co., Ltd.
  -   Licensed under the Apache License, Version 2.0 (the "License");
  -   you may not use this file except in compliance with the License.
  -   You may obtain a copy of the License at
  -
  -       http://www.apache.org/licenses/LICENSE-2.0
  -
  -   Unless required by applicable law or agreed to in writing, software
  -   distributed under the License is distributed on an "AS IS" BASIS,
  -   WITHOUT WARRANTIES OR CONDITIONS OF ANY KIND, either express or implied.
  -   See the License for the specific language governing permissions and
  -   limitations under the License.
  -
  -->

<svg width="20.999878" height="20.999969" viewBox="0 0 20.9999 21" fill="none" xmlns="http://www.w3.org/2000/svg" xmlns:xlink="http://www.w3.org/1999/xlink">
	<desc>
			Created with Pixso.
	</desc>
	<defs>
		<clipPath id="clip51_4683">
			<rect id="svg" width="20.999935" height="20.999969" fill="white" fill-opacity="0"/>
		</clipPath>
	</defs>
	<g clip-path="url(#clip51_4683)">
		<path id="path" d="M1.76 10.12C1.94 10.12 2.09 10.06 2.2 9.95L9.26 3.25C9.62 2.91 10.04 2.75 10.52 2.75C10.99 2.75 11.4 2.91 11.73 3.25L18.77 9.95C18.91 10.06 19.06 10.12 19.23 10.12C19.41 10.12 19.57 10.05 19.69 9.93C19.82 9.8 19.88 9.65 19.88 9.47C19.88 9.27 19.81 9.11 19.67 8.98L12.64 2.31C12.36 2.03 12.03 1.81 11.66 1.67C11.29 1.52 10.9 1.44 10.49 1.44C9.65 1.44 8.94 1.73 8.35 2.31L1.32 8.98C1.18 9.11 1.11 9.28 1.11 9.49C1.11 9.67 1.16 9.82 1.28 9.93C1.4 10.05 1.56 10.12 1.76 10.12ZM4.8 18.22C4.62 18.22 4.47 18.16 4.34 18.03C4.22 17.91 4.15 17.75 4.15 17.57L4.15 11.25C4.15 11.07 4.09 10.91 3.96 10.79C3.84 10.66 3.68 10.6 3.5 10.6C3.32 10.6 3.16 10.66 3.03 10.79C2.9 10.91 2.83 11.07 2.83 11.25L2.83 17.57C2.83 18.12 3.03 18.58 3.42 18.97C3.81 19.35 4.27 19.55 4.8 19.55L7.81 19.55C7.48 19.15 7.28 18.71 7.2 18.22L4.8 18.22ZM17.21 11.34L17.21 11.02C17.21 10.54 17.04 10.13 16.69 9.79C16.34 9.45 15.93 9.28 15.45 9.28L12.34 9.28C11.87 9.28 11.46 9.45 11.12 9.79C10.77 10.13 10.6 10.54 10.6 11.02L10.6 11.34L10.03 11.34C9.56 11.34 9.15 11.5 8.81 11.84C8.46 12.17 8.29 12.58 8.29 13.06L8.29 17.74C8.29 18.22 8.46 18.63 8.81 18.97C9.15 19.31 9.56 19.48 10.03 19.48L17.78 19.48C18.26 19.48 18.67 19.31 19.01 18.97C19.35 18.63 19.52 18.22 19.52 17.74L19.52 13.06C19.52 12.58 19.35 12.17 19.01 11.84C18.67 11.5 18.26 11.34 17.78 11.34L17.21 11.34ZM15.47 10.45C15.63 10.45 15.76 10.51 15.87 10.62C15.98 10.73 16.04 10.87 16.04 11.02L16.04 11.17L11.78 11.17L11.78 11.02C11.78 10.87 11.84 10.73 11.96 10.62C12.07 10.51 12.21 10.45 12.36 10.45L15.47 10.45ZM11.78 12.49L16.06 12.49L17.8 12.49C17.96 12.49 18.09 12.55 18.2 12.67C18.31 12.79 18.37 12.92 18.37 13.08L18.37 14.38L15.2 14.38C15.09 14.31 14.97 14.28 14.86 14.28L12.97 14.28C12.86 14.28 12.75 14.31 12.64 14.38L9.47 14.38L9.47 13.08C9.47 12.91 9.52 12.77 9.63 12.66C9.75 12.55 9.88 12.49 10.03 12.49L11.78 12.49ZM10.03 18.33C9.88 18.33 9.74 18.27 9.62 18.15C9.5 18.03 9.44 17.89 9.44 17.74L9.44 15.56L12.62 15.56C12.73 15.63 12.84 15.66 12.95 15.66L14.84 15.66C14.97 15.66 15.09 15.63 15.2 15.56L18.37 15.56L18.37 17.74C18.37 17.91 18.31 18.05 18.2 18.16C18.09 18.27 17.96 18.33 17.8 18.33L10.03 18.33Z" fill="#0A59F7" fill-opacity="1.000000" fill-rule="nonzero"/>
	</g>
</svg>
