<!--
  -
  -   Copyright (c) 2025 Huawei Device Co., Ltd.
  -   Licensed under the Apache License, Version 2.0 (the "License");
  -   you may not use this file except in compliance with the License.
  -   You may obtain a copy of the License at
  -
  -       http://www.apache.org/licenses/LICENSE-2.0
  -
  -   Unless required by applicable law or agreed to in writing, software
  -   distributed under the License is distributed on an "AS IS" BASIS,
  -   WITHOUT WARRANTIES OR CONDITIONS OF ANY KIND, either express or implied.
  -   See the License for the specific language governing permissions and
  -   limitations under the License.
  -
  -->

<svg width="24.000000" height="24.000000" viewBox="0 0 24 24" fill="none" xmlns="http://www.w3.org/2000/svg" xmlns:xlink="http://www.w3.org/1999/xlink">
	<desc>
			Created with Pixso.
	</desc>
	<defs>
		<clipPath id="clip51_4697">
			<rect id="svg" width="20.999935" height="20.999969" transform="translate(1.500000 1.500000)" fill="white" fill-opacity="0"/>
		</clipPath>
	</defs>
	<g clip-path="url(#clip51_4697)">
		<path id="path" d="M10.17 12.77C10.81 12.77 11.4 12.62 11.94 12.3C12.48 11.99 12.91 11.56 13.23 11.02C13.56 10.48 13.72 9.89 13.72 9.24C13.72 8.6 13.56 8.01 13.23 7.47C12.91 6.93 12.48 6.5 11.94 6.19C11.4 5.87 10.81 5.72 10.17 5.72C9.52 5.72 8.93 5.87 8.39 6.19C7.85 6.5 7.43 6.93 7.11 7.47C6.8 8.01 6.64 8.6 6.64 9.24C6.64 9.89 6.8 10.48 7.11 11.02C7.43 11.56 7.85 11.99 8.39 12.3C8.93 12.62 9.52 12.77 10.17 12.77ZM10.17 7.02C10.78 7.02 11.31 7.23 11.74 7.67C12.18 8.1 12.39 8.63 12.39 9.24C12.39 9.86 12.18 10.38 11.74 10.82C11.31 11.25 10.78 11.47 10.17 11.47C9.57 11.47 9.05 11.25 8.61 10.82C8.18 10.38 7.96 9.86 7.96 9.24C7.96 8.63 8.18 8.1 8.6 7.67C9.03 7.23 9.55 7.02 10.17 7.02ZM15.08 20.86C15.6 20.86 16.04 20.68 16.41 20.31C16.79 19.95 16.97 19.51 16.97 18.99C16.97 17.98 16.66 17.05 16.05 16.2C15.43 15.34 14.64 14.67 13.67 14.18C12.71 13.69 11.74 13.44 10.76 13.44L9.6 13.44C8.62 13.44 7.65 13.69 6.68 14.18C5.72 14.67 4.92 15.34 4.31 16.2C3.69 17.05 3.38 17.98 3.38 18.99C3.38 19.51 3.57 19.95 3.93 20.31C4.3 20.68 4.74 20.86 5.25 20.86L15.08 20.86ZM10.76 14.75C11.51 14.75 12.27 14.94 13.04 15.32C13.8 15.71 14.42 16.23 14.91 16.88C15.4 17.53 15.65 18.23 15.65 18.99C15.65 19.14 15.59 19.28 15.48 19.39C15.37 19.5 15.24 19.56 15.08 19.56L5.25 19.56C5.1 19.56 4.97 19.5 4.85 19.39C4.74 19.28 4.69 19.14 4.69 18.99C4.69 18.23 4.93 17.53 5.42 16.88C5.91 16.23 6.54 15.71 7.3 15.32C8.06 14.94 8.82 14.75 9.58 14.75L10.76 14.75ZM14.56 10.86C14.36 11.35 14.11 11.79 13.8 12.16L14.41 12.16C15.17 12.16 15.93 12.35 16.69 12.73C17.45 13.11 18.08 13.62 18.57 14.27C19.06 14.92 19.3 15.64 19.3 16.41C19.3 16.56 19.25 16.69 19.13 16.8C19.02 16.92 18.89 16.97 18.74 16.97L17.71 16.97C17.86 17.36 17.97 17.8 18.04 18.27L18.74 18.27C19.25 18.27 19.69 18.09 20.06 17.73C20.42 17.36 20.6 16.92 20.6 16.41C20.6 15.41 20.31 14.49 19.71 13.65C19.12 12.81 18.35 12.15 17.41 11.65C16.47 11.15 15.52 10.89 14.56 10.86ZM12.25 5.09C12.46 4.88 12.7 4.72 12.97 4.6C13.24 4.49 13.53 4.44 13.82 4.44C14.44 4.44 14.96 4.65 15.4 5.09C15.83 5.52 16.05 6.04 16.05 6.64C16.05 7.07 15.93 7.47 15.7 7.83C15.47 8.18 15.17 8.45 14.79 8.64C14.8 8.71 14.82 8.79 14.83 8.89C14.84 8.99 14.85 9.1 14.85 9.24C14.85 9.55 14.82 9.82 14.77 10.04C15.52 9.83 16.14 9.42 16.62 8.79C17.11 8.17 17.35 7.45 17.35 6.64C17.35 6.01 17.19 5.43 16.87 4.89C16.54 4.35 16.11 3.92 15.57 3.6C15.04 3.29 14.45 3.13 13.8 3.13C13.21 3.13 12.66 3.27 12.15 3.54C11.64 3.82 11.23 4.18 10.9 4.65C11.39 4.73 11.84 4.88 12.25 5.09Z" fill="#000000" fill-opacity="0.901961" fill-rule="nonzero"/>
	</g>
</svg>
