<?xml version="1.0" encoding="UTF-8"?>
<!--
  - Copyright (c) 2025 Huawei Device Co., Ltd.
  - Licensed under the Apache License, Version 2.0 (the "License");
  - you may not use this file except in compliance with the License.
  - You may obtain a copy of the License at
  -
  -     http://www.apache.org/licenses/LICENSE-2.0
  -
  - Unless required by applicable law or agreed to in writing, software
  - distributed under the License is distributed on an "AS IS" BASIS,
  - WITHOUT WARRANTIES OR CONDITIONS OF ANY KIND, either express or implied.
  - See the License for the specific language governing permissions and
  - limitations under the License.
  -->

<svg width="24px" height="24px" viewBox="0 0 24 24" version="1.1" xmlns="http://www.w3.org/2000/svg" xmlns:xlink="http://www.w3.org/1999/xlink">
    <title>mine_bg</title>
    <g id="页面-1" stroke="none" stroke-width="1" fill="none" fill-rule="evenodd">
        <g id="我的" transform="translate(-24.000000, -600.000000)">
            <g id="编组-4" transform="translate(12.000000, 248.000000)">
                <g id="编组备份-9" transform="translate(12.000000, 340.000000)">
                    <g id="mine_bg" transform="translate(0.000000, 12.000000)">
                        <rect id="矩形" x="0" y="0" width="24" height="24"></rect>
                        <path d="M5.5,4.31805857 L5.5,20.5658821 C5.5,20.8305186 5.72385763,21.0450737 6,21.0450737 C6.10973662,21.0450737 6.21642565,21.0104518 6.30361436,20.946593 L12,16.7744463 L17.6963856,20.946593 C17.9157882,21.1072879 18.229582,21.0671067 18.3972635,20.8568459 C18.4638988,20.77329 18.5,20.6710464 18.5,20.5658821 L18.5,4.31805857 C18.5,3.52414924 17.8284271,2.88055857 17,2.88055857 L7,2.88055857 C6.17157288,2.88055857 5.5,3.52414924 5.5,4.31805857 Z M4,4.31805857 C4,2.73023991 5.34314575,1.44305857 7,1.44305857 L17,1.44305857 C18.6568542,1.44305857 20,2.73023991 20,4.31805857 L20,20.5658821 C20,20.9865391 19.8555951,21.3955138 19.5890542,21.7297372 C18.9183278,22.5707804 17.6631529,22.7315051 16.7855426,22.0887257 L12,18.5836986 L7.21445744,22.0887257 C6.86570258,22.3441607 6.43894647,22.4826485 6,22.4826485 C4.8954305,22.4826485 4,21.6244279 4,20.5658821 L4,4.31805857 Z" id="uxs-a" fill="#000000" fill-rule="nonzero"></path>
                    </g>
                </g>
            </g>
        </g>
    </g>
</svg>