<?xml version="1.0" encoding="UTF-8"?>
<!--
  - Copyright (c) 2025 Huawei Device Co., Ltd.
  - Licensed under the Apache License, Version 2.0 (the "License");
  - you may not use this file except in compliance with the License.
  - You may obtain a copy of the License at
  -
  -     http://www.apache.org/licenses/LICENSE-2.0
  -
  - Unless required by applicable law or agreed to in writing, software
  - distributed under the License is distributed on an "AS IS" BASIS,
  - WITHOUT WARRANTIES OR CONDITIONS OF ANY KIND, either express or implied.
  - See the License for the specific language governing permissions and
  - limitations under the License.
  -->

<svg width="24px" height="24px" viewBox="0 0 24 24" version="1.1" xmlns="http://www.w3.org/2000/svg" xmlns:xlink="http://www.w3.org/1999/xlink">
    <title>ic_collect</title>
    <defs>
        <path d="M12.7775436,2.63492692 C13.1226657,2.80525484 13.4020138,3.084603 13.5723417,3.42972506 L15.5909872,7.51994748 C15.7366492,7.81509095 16.0182148,8.01966033 16.3439249,8.06698879 L20.8577534,8.72288645 C21.8142069,8.86186728 22.4768994,9.74989227 22.3379186,10.7063458 C22.2825757,11.0872106 22.1032231,11.4392098 21.8276268,11.7078499 L18.5613898,14.891644 C18.3257038,15.1213812 18.2181553,15.4523814 18.2737932,15.7767754 L19.0448472,20.2723649 C19.2082289,21.2249537 18.5684502,22.1296265 17.6158614,22.2930083 C17.2365356,22.3580678 16.8463415,22.2962671 16.5056856,22.1171737 L13.4135001,20.4922374 C13.8890143,20.1811107 14.3594108,19.8635936 14.8246852,19.5396878 L17.2036973,20.7894766 C17.2523624,20.8150614 17.3081045,20.82389 17.3622939,20.8145958 C17.4886577,20.7929227 17.5764902,20.679939 17.5697055,20.5549525 L17.5664347,20.5259325 L16.822127,16.1896117 C16.233717,16.6534073 15.651428,17.0961739 15.0752601,17.5179114 L14.195356,18.1492968 L14.195356,18.1492968 L13.3237321,18.7504514 C12.7197717,19.1588606 12.1071016,19.5564752 11.485722,19.9432952 L10.5471205,20.5154293 L10.5471205,20.5154293 L7.5004216,22.1171737 C7.2752958,22.2355294 7.03613819,22.2999613 6.79772797,22.3150637 L6.65488977,22.3182423 C6.03733755,22.3066835 5.44481929,21.9678678 5.13709464,21.3825407 C4.95800127,21.0418849 4.89620058,20.6516907 4.96126006,20.2723649 L5.73231401,15.7767754 C5.78795195,15.4523814 5.68040346,15.1213812 5.44471738,14.891644 L2.17848044,11.7078499 C1.48638418,11.0332227 1.47222264,9.92527453 2.14684976,9.23317827 C2.41548982,8.95758191 2.76748904,8.77822934 3.14835384,8.72288645 L7.66218227,8.06698879 C7.98789244,8.01966033 8.26945802,7.81509095 8.41512003,7.51994748 L10.4337655,3.42972506 C10.8615045,2.56303116 11.9108497,2.20718791 12.7775436,2.63492692 Z M11.9591458,3.95808449 L11.9295308,3.96527007 C11.9186646,3.96861565 11.9080292,3.97269676 11.897705,3.97748605 L11.9295308,3.96527007 C11.9108155,3.97103233 11.8927846,3.97897647 11.8758497,3.9889629 L11.897705,3.97748605 C11.8806657,3.98539044 11.8644742,3.99522387 11.8494929,4.00686353 L11.8758497,3.9889629 C11.8564802,4.00038505 11.8385444,4.01447891 11.8226585,4.03103562 L11.8494929,4.00686353 C11.8349373,4.01817235 11.821524,4.03118618 11.8095853,4.04579235 L11.7788696,4.09357363 L9.76022415,8.18379605 C9.65777458,8.39138155 9.5284333,8.58104483 9.37730841,8.74907464 C9.36689578,8.76065179 9.35639741,8.77210731 9.34579765,8.78345927 C9.32154277,8.8094362 9.29672731,8.83489994 9.27139962,8.8598056 C9.25218069,8.8787174 9.23203893,8.89788572 9.21159254,8.9167049 C9.19083435,8.93581237 9.1696972,8.9546158 9.14825426,8.97304979 C9.12322683,8.9945665 9.09772876,9.01562276 9.07182858,9.03616184 C9.05048782,9.05308223 9.02904998,9.06952117 9.00735242,9.08560821 C8.98070846,9.10536464 8.95357168,9.12465932 8.92605691,9.14340738 C8.90492178,9.15781133 8.88336909,9.17201666 8.861597,9.18588799 C8.83077263,9.20552392 8.79964623,9.22441091 8.76810558,9.24261854 C8.74318259,9.25700696 8.71793447,9.27100654 8.69243707,9.28457189 C8.66690923,9.29815315 8.64115119,9.31128953 8.61515443,9.32398347 C8.58903843,9.33673475 8.5627448,9.34901131 8.53622226,9.36083563 C8.50335128,9.37549408 8.46990009,9.3895481 8.43611347,9.40288263 C8.41431502,9.41148634 8.3923271,9.41980861 8.37020461,9.4278259 C8.33780879,9.43956293 8.30534491,9.45057618 8.27261388,9.46093143 C8.24147434,9.47078718 8.20981124,9.48012444 8.17791744,9.48884419 C8.15164244,9.49602683 8.12529134,9.50277116 8.09879321,9.50909269 C8.08290893,9.51288347 8.06677784,9.51656457 8.05059453,9.52008864 L7.99067741,9.53237085 C7.97925198,9.53456774 7.96780208,9.53668672 7.95632837,9.5387273 L7.87787975,9.55139931 L3.36405132,10.207297 C3.30964206,10.2152031 3.25935646,10.2408249 3.22097931,10.2801958 L3.17890006,10.337878 C3.17582815,10.343686 3.17300154,10.3495886 3.17042005,10.3555706 C3.16449622,10.3693141 3.15989,10.3833711 3.15655628,10.3976609 L3.17042005,10.3555706 C3.16039885,10.3787925 3.15407137,10.4032115 3.15142628,10.4279405 L3.15655628,10.3976609 C3.15105904,10.4212246 3.14902189,10.4454214 3.15043452,10.4694449 L3.15142628,10.4279405 C3.14920796,10.4486796 3.14957964,10.4696369 3.15253462,10.4902889 L3.15043452,10.4694449 C3.15177872,10.4923048 3.15624659,10.5150078 3.16382923,10.536859 L3.15253462,10.4902889 C3.1560908,10.5151427 3.16338839,10.5395544 3.17441573,10.5626122 L3.16382923,10.536859 C3.17116187,10.5579899 3.18140729,10.5783242 3.19455744,10.5972338 L3.22549797,10.6337203 L6.49173491,13.8175145 C6.66864201,13.9899563 6.81667163,14.185219 6.93345225,14.3960039 C6.9453283,14.4174491 6.95666735,14.4386412 6.96769281,14.4599807 C6.98476849,14.4930124 7.00132004,14.5268904 7.01708883,14.5611038 C7.02632136,14.5811337 7.03531842,14.6013551 7.0440433,14.6216867 C7.05986772,14.6585657 7.07476697,14.6957275 7.08876354,14.7332162 C7.0954323,14.7510694 7.10202451,14.7693658 7.10840225,14.7877355 C7.12028839,14.8219746 7.13140707,14.8563938 7.14177572,14.8910418 C7.15287113,14.9281173 7.16311244,14.9654736 7.17248413,15.0030615 C7.17796581,15.0250458 7.18315883,15.0471494 7.18805129,15.0693263 C7.19476714,15.0997675 7.20091922,15.1303611 7.20649928,15.1610769 C7.21303576,15.1970365 7.21882288,15.2334175 7.22380648,15.2699424 C7.22506929,15.2791953 7.22629025,15.2885353 7.22745863,15.2978842 C7.23350998,15.3463257 7.23814084,15.3948735 7.24134826,15.4436002 C7.24232171,15.4583669 7.24317605,15.4733923 7.24389477,15.4884329 C7.24594229,15.5312853 7.24688899,15.5742497 7.24672221,15.617297 C7.24660006,15.6501739 7.24581127,15.6834943 7.24435124,15.7168455 C7.24302405,15.7470889 7.2411662,15.7770913 7.23876161,15.8071049 C7.23781128,15.8189758 7.23676123,15.8309985 7.23562319,15.8430222 L7.23116275,15.8861574 C7.22880526,15.9071733 7.22617796,15.9281889 7.22327934,15.9491994 L7.21072649,16.030343 L6.43967255,20.5259325 C6.43037834,20.5801219 6.439207,20.6358639 6.46479177,20.684529 C6.47959651,20.7126893 6.49901555,20.7368556 6.52163151,20.7565872 C6.53066279,20.7644774 6.5403436,20.7717488 6.55045515,20.7782636 L6.52163151,20.7565872 C6.53713342,20.7701121 6.55413733,20.7815534 6.57218679,20.7907694 L6.55045515,20.7782636 C6.56710435,20.7889905 6.58492135,20.7976658 6.60348569,20.8041589 L6.57218679,20.7907694 C6.59336524,20.801583 6.61598318,20.8093327 6.63930324,20.8137894 L6.60348569,20.8041589 C6.64312221,20.8180221 6.68616551,20.8219373 6.7285231,20.8146321 L6.69635002,20.818041 C6.71659512,20.8172224 6.73691947,20.813924 6.75687892,20.8080077 L6.80240991,20.7894766 L7.099,20.6328248 L9.805,19.2098248 L10.6857887,18.6743663 C11.8872014,17.926714 13.0550101,17.1377745 14.1892882,16.3075173 C15.4071484,15.4160804 16.6554139,14.426464 17.8943402,13.3749785 L18.512841,12.844248 L20.7806092,10.6337203 C20.8199802,10.5953432 20.845602,10.5450576 20.8535081,10.4906483 L20.8540354,10.4220932 C20.8529596,10.4138792 20.8514789,10.4057696 20.8496114,10.3977888 C20.8467961,10.3857209 20.8430359,10.3737953 20.838433,10.3622585 L20.8496114,10.3977888 C20.8443233,10.3751889 20.8359338,10.3536211 20.8248541,10.3336362 L20.838433,10.3622585 C20.8310465,10.3437446 20.82149,10.3262318 20.8100323,10.3100805 L20.8248541,10.3336362 C20.8138925,10.3138643 20.8002978,10.2956418 20.7844679,10.2795021 L20.8100323,10.3100805 C20.7986234,10.293998 20.7853296,10.2792654 20.7704162,10.2662385 L20.7844679,10.2795021 C20.771272,10.2660479 20.7565229,10.254041 20.7404512,10.2437904 L20.7704162,10.2662385 C20.7531723,10.2511757 20.7337631,10.2383934 20.7125991,10.2284414 L20.7404512,10.2437904 C20.7231627,10.2327638 20.7043437,10.2237695 20.6842813,10.2171922 L20.6420559,10.207297 L16.1282275,9.55139931 C16.0242447,9.53628973 15.9220617,9.51476975 15.822156,9.48718644 C15.8041655,9.48221869 15.7863313,9.47707911 15.768573,9.47174673 C15.7427792,9.46400398 15.7169359,9.45578397 15.6912639,9.44715676 C15.6551722,9.43502433 15.6196273,9.42216767 15.5844409,9.4085327 C15.5644506,9.40078994 15.5442118,9.39264392 15.5240975,9.38424068 C15.4902091,9.37007802 15.4569534,9.35531648 15.4240667,9.33985247 C15.3932502,9.32536777 15.3624135,9.31008688 15.3319263,9.29418824 C15.3095091,9.28249662 15.2873855,9.27052969 15.2654562,9.25823707 C15.234202,9.24071867 15.2032705,9.22249429 15.1727562,9.20362031 C15.1514954,9.19047184 15.1302994,9.17691705 15.1093158,9.16304793 C15.0811365,9.14441718 15.0536264,9.12542572 15.0265083,9.10589129 C15.0039806,9.08966876 14.9814273,9.07284299 14.9591617,9.05563969 C14.9376716,9.03903453 14.9165082,9.02212616 14.8956203,9.00487455 C14.8659479,8.98036443 14.8369551,8.9552738 14.8085387,8.9295148 C14.7918677,8.9144102 14.7749603,8.89865958 14.7582675,8.88267054 C14.7325411,8.85802801 14.7073573,8.83285363 14.6827016,8.80712907 C14.6663058,8.79001878 14.6503228,8.77286306 14.634574,8.75547361 C14.6079416,8.72606654 14.5819842,8.69599769 14.5567238,8.66528078 C14.5445629,8.65049305 14.5325647,8.63555652 14.520731,8.62047206 C14.4925821,8.58459162 14.465341,8.54784068 14.4390743,8.51028147 C14.4305576,8.49809936 14.4223634,8.48615879 14.4142676,8.4741386 C14.3896373,8.43757254 14.3658596,8.40017205 14.343035,8.36205794 C14.3382863,8.35412737 14.3336394,8.34626964 14.3290331,8.33838204 L14.3060346,8.29814983 C14.2979469,8.28369237 14.2899937,8.26913839 14.2821768,8.25448926 L14.2458831,8.18379605 L12.2272376,4.09357363 C12.2029051,4.04427048 12.1629982,4.0043636 12.113695,3.98003104 L12.076,3.96682475 L12.0537618,3.95934967 C12.0424329,3.95699545 12.0310424,3.95545502 12.0196677,3.9547021 C11.9990062,3.95337037 11.9788315,3.95455654 11.9591458,3.95808449 Z" id="path-1"></path>
    </defs>
    <g id="页面-1" stroke="none" stroke-width="1" fill="none" fill-rule="evenodd">
        <g id="我的" transform="translate(-24.000000, -360.000000)">
            <g id="编组-4" transform="translate(12.000000, 248.000000)">
                <g id="ic_collect" transform="translate(12.000000, 112.000000)">
                    <rect id="矩形" x="0" y="0" width="24" height="24"></rect>
                    <mask id="mask-2" fill="white">
                        <use xlink:href="#path-1"></use>
                    </mask>
                    <use id="形状结合" fill="#182431" fill-rule="nonzero" xlink:href="#path-1"></use>
                </g>
            </g>
        </g>
    </g>
</svg>