<?xml version="1.0" encoding="UTF-8"?>
<!--
  - Copyright (c) 2025 Huawei Device Co., Ltd.
  - Licensed under the Apache License, Version 2.0 (the "License");
  - you may not use this file except in compliance with the License.
  - You may obtain a copy of the License at
  -
  -     http://www.apache.org/licenses/LICENSE-2.0
  -
  - Unless required by applicable law or agreed to in writing, software
  - distributed under the License is distributed on an "AS IS" BASIS,
  - WITHOUT WARRANTIES OR CONDITIONS OF ANY KIND, either express or implied.
  - See the License for the specific language governing permissions and
  - limitations under the License.
  -->

<svg width="24px" height="25px" viewBox="0 0 24 25" version="1.1" xmlns="http://www.w3.org/2000/svg" xmlns:xlink="http://www.w3.org/1999/xlink">
    <title>mine_favor</title>
    <g id="页面-1" stroke="none" stroke-width="1" fill="none" fill-rule="evenodd">
        <g id="我的" transform="translate(-24.000000, -503.000000)">
            <g id="编组-4" transform="translate(12.000000, 248.000000)">
                <g id="编组备份-6" transform="translate(12.000000, 244.000000)">
                    <g id="mine_favor" transform="translate(0.000000, 11.735206)">
                        <rect id="矩形" x="0" y="0" width="24" height="24"></rect>
                        <path d="M2.79452161,4.9771042 C5.14551857,2.62610724 8.79928592,2.37188759 11.432027,4.21444524 C11.7516059,4.43942176 12.0562134,4.69285447 12.3404632,4.9771042 L12.2043754,4.84563851 C12.2233723,4.86304269 12.2425031,4.88105676 12.2617635,4.89969193 L12.3404632,4.9771042 C12.4463878,5.08302888 12.5489663,5.1859288 12.6482041,5.28581053 C12.8006004,5.43910989 12.9510583,5.59122003 13.0993468,5.74190738 L13.219116,5.8648192 C13.6770027,6.33329568 14.039396,6.71558994 14.3071513,7.01271541 C14.5844414,7.32042154 14.5597844,7.79465471 14.2520783,8.07194483 C13.9443721,8.34923495 13.470139,8.32457791 13.1928488,8.01687178 L13.0507825,7.86099446 C12.6483436,7.42386537 12.05724,6.81520136 11.279803,6.03776437 L11.1010068,5.86704947 C9.04064085,3.98918551 5.84685567,4.04609048 3.85518178,6.03776437 C1.92651011,7.96643605 2.01200548,11.0437692 3.90277376,13.5647936 C4.53008789,14.4012124 5.51152747,15.4725184 6.77873992,16.7029202 L6.77873992,16.7029202 L6.81870435,16.7415781 C7.40284244,17.3045733 8.47345893,18.250162 10.0244733,19.5724001 L10.0244733,19.5724001 L11.0614453,20.4520883 C11.619563,20.9234862 12.4361196,20.9242397 12.9949573,20.453998 L12.9949573,20.453998 L13.9427906,19.6528361 C15.4712292,18.3544366 16.5394673,17.4119089 17.1420447,16.8306541 L17.1420447,16.8306541 L17.4041205,16.5761891 C18.6081006,15.3993061 19.5440439,14.3727351 20.1500001,13.5647936 C22.0407684,11.0437692 22.1262637,7.96643605 20.1975921,6.03776437 C18.5002128,4.3403851 15.9297295,4.0482456 13.9318067,5.16134585 C13.6450802,4.87012096 13.3503169,4.57274434 13.0475699,4.26999742 C12.978966,4.20139345 12.9093439,4.13435449 12.8387503,4.06888073 C15.4505548,2.38720529 18.9709639,2.68981585 21.2582522,4.9771042 C23.7644259,7.48327788 23.6558802,11.3902867 21.3500001,14.4647936 L21.3500001,14.4647936 L21.2782837,14.5595278 C20.5730318,15.4827097 19.5206924,16.6203026 18.1834319,17.9102432 L18.1834319,17.9102432 L18.1355571,17.9562579 C17.4696454,18.5940695 16.3271086,19.5986456 14.7020261,20.9758275 L14.7020261,20.9758275 L13.960879,21.6016021 C12.8429053,22.5423365 11.2097916,22.5408295 10.093556,21.5980334 C7.99068593,19.8219051 6.56921244,18.5795987 5.81899067,17.8611972 L5.81899067,17.8611972 L5.59843703,17.6471967 C4.34444166,16.4213508 3.36077368,15.3421268 2.70277376,14.4647936 C0.396893601,11.3902867 0.288347934,7.48327788 2.79452161,4.9771042 Z" id="蒙版" fill="#182431" fill-rule="nonzero"></path>
                    </g>
                </g>
            </g>
        </g>
    </g>
</svg>