<?xml version="1.0" encoding="UTF-8"?>
<!--
  - Copyright (c) 2025 Huawei Device Co., Ltd.
  - Licensed under the Apache License, Version 2.0 (the "License");
  - you may not use this file except in compliance with the License.
  - You may obtain a copy of the License at
  -
  -     http://www.apache.org/licenses/LICENSE-2.0
  -
  - Unless required by applicable law or agreed to in writing, software
  - distributed under the License is distributed on an "AS IS" BASIS,
  - WITHOUT WARRANTIES OR CONDITIONS OF ANY KIND, either express or implied.
  - See the License for the specific language governing permissions and
  - limitations under the License.
  -->

<svg width="24px" height="25px" viewBox="0 0 24 25" version="1.1" xmlns="http://www.w3.org/2000/svg" xmlns:xlink="http://www.w3.org/1999/xlink">
    <title>mine_settings</title>
    <g id="页面-1" stroke="none" stroke-width="1" fill="none" fill-rule="evenodd">
        <g id="我的" transform="translate(-24.000000, -263.000000)">
            <g id="编组-4" transform="translate(12.000000, 248.000000)">
                <g id="编组备份" transform="translate(12.000000, 4.000000)">
                    <g id="mine_settings" transform="translate(0.000000, 11.250000)">
                        <rect id="矩形" x="0" y="0" width="24" height="24"></rect>
                        <path d="M13.6434055,1.2495744 C14.3440124,1.2495744 14.9770956,1.66742552 15.2525133,2.3116267 L15.2525133,2.3116267 L16.0751591,4.2358244 L16.9256591,4.7268244 L19.0095192,4.47565257 C19.6824628,4.3944887 20.3395102,4.70919213 20.6990095,5.27909118 L20.6990095,5.27909118 L20.7339572,5.33692652 L22.2219221,7.90970574 C22.5733742,8.51738712 22.5276848,9.27627272 22.1058636,9.83739847 L22.1058636,9.83739847 L20.8476591,11.5108244 L20.8476591,12.4880744 L22.1058892,14.1617644 C22.5136332,14.7041844 22.5699116,15.4313886 22.2557503,16.0281736 L22.2557503,16.0281736 L22.2219287,16.0894318 L20.7339572,18.6622223 C20.3832957,19.2685366 19.7048942,19.6073656 19.0095192,19.5234962 L19.0095192,19.5234962 L16.9256591,19.2720744 L16.0751591,19.7630744 L15.2525133,21.6875221 C14.9859801,22.3109426 14.3844843,22.7223807 13.7109856,22.7482764 L13.7109856,22.7482764 L13.6434055,22.7495744 L10.6644541,22.7495744 C9.96381048,22.7495744 9.33070147,22.33168 9.05530658,21.6874292 L9.05530658,21.6874292 L8.23240906,19.7630744 L7.38190906,19.2720744 L5.29829892,19.5234962 C4.62535535,19.6046601 3.9683079,19.2899567 3.60880862,18.7200576 L3.60880862,18.7200576 L3.57386096,18.6622223 L2.08588946,16.0894318 C1.73444315,15.4817604 1.78012483,14.7228886 2.20192894,14.1617644 L2.20192894,14.1617644 L3.45990906,12.4880744 L3.45990906,11.5108244 L2.20195452,9.83739847 C1.79419402,9.29497692 1.73790778,8.56775976 2.0520738,7.97096497 L2.0520738,7.97096497 L2.08589598,7.90970574 L3.57386096,5.33692652 C3.92452239,4.73061221 4.6029239,4.39178324 5.29829892,4.47565257 L5.29829892,4.47565257 L7.38190906,4.7268244 L8.23240906,4.2358244 L9.05530658,2.31171964 C9.32181777,1.68825106 9.92333697,1.27677087 10.5968705,1.25087253 L10.5968705,1.25087253 L10.6644541,1.2495744 Z M13.6434055,2.7495744 L10.6644541,2.7495744 C10.5643622,2.7495744 10.473918,2.80927359 10.4345759,2.90130943 L10.4345759,2.90130943 L9.57938851,4.90191014 C9.47312758,5.1504939 9.28914003,5.35792856 9.05501892,5.49310465 L9.05501892,5.49310465 L8.05988023,6.06767462 C7.82560049,6.20294231 7.55376029,6.25855498 7.28518068,6.22616153 L7.28518068,6.22616153 L5.11868529,5.96486006 C5.019346,5.95287873 4.9224315,6.00128287 4.872337,6.0878992 L4.872337,6.0878992 L3.38437203,8.66067841 C3.33416459,8.74749004 3.34069165,8.85590227 3.40095182,8.93606309 L3.40095182,8.93606309 L4.70922943,10.6763934 C4.87203525,10.8929652 4.96006637,11.1565715 4.96006501,11.4275126 L4.96006501,11.4275126 L4.96005925,12.5715709 C4.96005789,12.8424999 4.87203193,13.1060943 4.70923728,13.3226593 L4.70923728,13.3226593 L3.40094258,15.0630781 C3.34068485,15.1432386 3.33415889,15.2516489 3.38436551,15.3384591 L3.38436551,15.3384591 L4.872337,17.9112496 C4.9224315,17.9978659 5.019346,18.0462701 5.11868529,18.0342887 L5.11868529,18.0342887 L7.28518068,17.7729873 C7.55376029,17.7405938 7.82560049,17.7962065 8.05988023,17.9314742 L8.05988023,17.9314742 L9.05501892,18.5060441 C9.28914003,18.6412202 9.47312758,18.8486549 9.57938851,19.0972387 L9.57938851,19.0972387 L10.4345759,21.0978394 C10.473918,21.1898752 10.5643622,21.2495744 10.6644541,21.2495744 L10.6644541,21.2495744 L13.6434055,21.2495744 C13.7434922,21.2495744 13.8339326,21.1898814 13.873278,21.0978526 L13.873278,21.0978526 L14.7286805,19.0970684 C14.8349434,18.8485199 15.0189127,18.6411145 15.2530042,18.5059504 L15.2530042,18.5059504 L16.2479248,17.9314848 C16.4822084,17.7962099 16.7540554,17.7405935 17.0226419,17.7729878 L17.0226419,17.7729878 L19.1891328,18.0342887 C19.2884721,18.0462701 19.3853866,17.9978659 19.4354811,17.9112496 L19.4354811,17.9112496 L20.9234526,15.3384591 C20.9736592,15.2516489 20.9671333,15.1432386 20.9068756,15.0630781 L20.9068756,15.0630781 L19.5985809,13.3226593 C19.4357862,13.1060943 19.3477602,12.8424999 19.3477589,12.5715709 L19.3477589,12.5715709 L19.3477531,11.4275126 C19.3477518,11.1565715 19.4357829,10.8929652 19.5985887,10.6763934 L19.5985887,10.6763934 L20.9068663,8.93606309 C20.9671265,8.85590227 20.9736535,8.74749004 20.9234461,8.66067841 L20.9234461,8.66067841 L19.4354811,6.0878992 C19.3853866,6.00128287 19.2884721,5.95287873 19.1891328,5.96486006 L19.1891328,5.96486006 L17.0226419,6.22616099 C16.7540554,6.25855527 16.4822084,6.2029389 16.2479248,6.06766395 L16.2479248,6.06766395 L15.2530042,5.49319837 C15.0189127,5.3580343 14.8349434,5.15062891 14.7286805,4.90208038 L14.7286805,4.90208038 L13.873278,2.90129616 C13.8339326,2.80926741 13.7434922,2.7495744 13.6434055,2.7495744 L13.6434055,2.7495744 Z M12.1539091,7.4995744 C14.6391904,7.4995744 16.6539091,9.51429302 16.6539091,11.9995744 C16.6539091,14.4848558 14.6391904,16.4995744 12.1539091,16.4995744 C9.66862769,16.4995744 7.65390906,14.4848558 7.65390906,11.9995744 C7.65390906,9.51429302 9.66862769,7.4995744 12.1539091,7.4995744 Z M12.1539091,8.9995744 C10.4970548,8.9995744 9.15390906,10.3427201 9.15390906,11.9995744 C9.15390906,13.6564286 10.4970548,14.9995744 12.1539091,14.9995744 C13.8107633,14.9995744 15.1539091,13.6564286 15.1539091,11.9995744 C15.1539091,10.3427201 13.8107633,8.9995744 12.1539091,8.9995744 Z" id="形状结合" fill="#182431" fill-rule="nonzero"></path>
                    </g>
                </g>
            </g>
        </g>
    </g>
</svg>