<?xml version="1.0" encoding="UTF-8"?>
<!--
  - Copyright (c) 2025 Huawei Device Co., Ltd.
  - Licensed under the Apache License, Version 2.0 (the "License");
  - you may not use this file except in compliance with the License.
  - You may obtain a copy of the License at
  -
  -     http://www.apache.org/licenses/LICENSE-2.0
  -
  - Unless required by applicable law or agreed to in writing, software
  - distributed under the License is distributed on an "AS IS" BASIS,
  - WITHOUT WARRANTIES OR CONDITIONS OF ANY KIND, either express or implied.
  - See the License for the specific language governing permissions and
  - limitations under the License.
  -->

<svg width="20px" height="20px" viewBox="0 0 20 20" version="1.1" xmlns="http://www.w3.org/2000/svg" xmlns:xlink="http://www.w3.org/1999/xlink">
    <title>appbar_search</title>
    <defs>
        <path d="M17.6173185,16.3285266 L20.8132621,19.5240485 C21.2037864,19.9145728 21.2037864,20.5477378 20.8132621,20.9382621 C20.4227378,21.3287864 19.7895728,21.3287864 19.3990485,20.9382621 L16.1899558,17.7291824 C16.7140263,17.3142375 17.1927017,16.8444643 17.6173185,16.3285266 Z M10.375,2 C15.0003848,2 18.75,5.74961522 18.75,10.375 C18.75,12.3078759 18.0952147,14.0878185 16.9953602,15.5051118 L16.780305,15.7709059 C16.6753852,15.895325 16.5669064,16.0166446 16.4550255,16.1347079 L16.3188514,16.2751074 L16.3188514,16.2751074 L16.1390248,16.4509317 L16.1390248,16.4509317 L16.0053714,16.5750421 L16.0053714,16.5750421 L15.6667619,16.8667044 L15.6667619,16.8667044 L15.4804548,17.0144215 L15.4804548,17.0144215 C14.0671999,18.1027758 12.2966836,18.75 10.375,18.75 C5.74961522,18.75 2,15.0003848 2,10.375 C2,5.74961522 5.74961522,2 10.375,2 Z M10.375,4 C6.85418472,4 4,6.85418472 4,10.375 C4,13.8958153 6.85418472,16.75 10.375,16.75 C13.8958153,16.75 16.75,13.8958153 16.75,10.375 C16.75,6.85418472 13.8958153,4 10.375,4 Z" id="path-1"></path>
    </defs>
    <g id="页面-1" stroke="none" stroke-width="1" fill="none" fill-rule="evenodd">
        <g id="发现" transform="translate(-314.000000, -42.000000)">
            <g id="AppBar/single-line/title+3ic" transform="translate(0.000000, 24.000000)">
                <g id="AppBar/Item/action-area/ic_3" transform="translate(216.000000, 16.000000)">
                    <g id="ic/public/add" transform="translate(96.000000, 0.000000)">
                        <mask id="mask-2" fill="white">
                            <use xlink:href="#path-1"></use>
                        </mask>
                        <g id="形状" fill-rule="nonzero"></g>
                        <g id="编组" mask="url(#mask-2)" fill="#000000" fill-opacity="0.9">
                            <g id="Symbol/color-light/colorPrimary">
                                <rect id="color/#000000" x="0" y="0" width="24" height="24"></rect>
                            </g>
                        </g>
                    </g>
                </g>
            </g>
        </g>
    </g>
</svg>