<?xml version="1.0" standalone="no"?>
<!--
  - Copyright (c) 2025 Huawei Device Co., Ltd.
  - Licensed under the Apache License, Version 2.0 (the "License");
  - you may not use this file except in compliance with the License.
  - You may obtain a copy of the License at
  -
  -     http://www.apache.org/licenses/LICENSE-2.0
  -
  - Unless required by applicable law or agreed to in writing, software
  - distributed under the License is distributed on an "AS IS" BASIS,
  - WITHOUT WARRANTIES OR CONDITIONS OF ANY KIND, either express or implied.
  - See the License for the specific language governing permissions and
  - limitations under the License.
  -->

<svg xmlns="http://www.w3.org/2000/svg" width="24" height="24"><rect width="24" height="24" opacity="0"></rect><g><path d="M12.29 21Q12.55 21.72 13.22 22.01Q13.9 22.3 14.59 22.04Q15.29 21.79 15.58 21.05L22.06 4.01Q22.3 3.36 22.03 2.78Q21.77 2.21 21.19 1.94Q20.62 1.68 19.97 1.92L2.95 8.4Q2.21 8.69 1.94 9.38Q1.68 10.08 1.97 10.76Q2.26 11.45 3 11.69L9.77 14.06Q9.82 14.09 9.86 14.11Q9.89 14.16 9.89 14.17Q9.89 14.18 9.91 14.23L12.29 21Z" fill="rgba(0,0,0,0.9019607843137255)"></path></g></svg>