<!--
  - Copyright (c) 2025 Huawei Device Co., Ltd.
  - Licensed under the Apache License, Version 2.0 (the "License");
  - you may not use this file except in compliance with the License.
  - You may obtain a copy of the License at
  -
  -     http://www.apache.org/licenses/LICENSE-2.0
  -
  - Unless required by applicable law or agreed to in writing, software
  - distributed under the License is distributed on an "AS IS" BASIS,
  - WITHOUT WARRANTIES OR CONDITIONS OF ANY KIND, either express or implied.
  - See the License for the specific language governing permissions and
  - limitations under the License.
  -->

<svg width="17.408081" height="19.153717" viewBox="0 0 17.4081 19.1537" fill="none" xmlns="http://www.w3.org/2000/svg" xmlns:xlink="http://www.w3.org/1999/xlink">
	<desc>
			Created with Pixso.
	</desc>
	<defs/>
	<path id="path" d="M8.79 19.15C9.45 19.15 10.06 18.98 10.62 18.65L15.64 15.62C16.19 15.31 16.62 14.88 16.93 14.33C17.25 13.78 17.4 13.19 17.4 12.56L17.4 6.61C17.4 5.98 17.25 5.39 16.94 4.85C16.63 4.3 16.21 3.87 15.66 3.57L10.64 0.5C10.08 0.16 9.47 0 8.81 0C8.18 0 7.58 0.16 7.01 0.48L1.74 3.57C1.21 3.87 0.78 4.3 0.47 4.86C0.15 5.41 0 5.99 0 6.61L0 12.56C0 13.19 0.15 13.77 0.47 14.32C0.78 14.86 1.21 15.29 1.76 15.6L7.03 18.66C7.59 18.99 8.18 19.15 8.79 19.15ZM7.68 1.61C8.05 1.42 8.42 1.32 8.81 1.32C9.23 1.32 9.62 1.43 9.97 1.64L15.01 4.7C15.35 4.9 15.61 5.17 15.81 5.51C16 5.85 16.1 6.22 16.1 6.61L16.1 12.56C16.1 12.95 16 13.32 15.8 13.67C15.59 14.02 15.32 14.29 14.99 14.49L9.95 17.51C9.6 17.72 9.22 17.82 8.81 17.82C8.42 17.82 8.05 17.73 7.68 17.53L2.41 14.49C2.07 14.29 1.8 14.02 1.6 13.67C1.4 13.32 1.3 12.95 1.3 12.56L1.3 6.61C1.3 6.22 1.4 5.85 1.6 5.51C1.8 5.17 2.07 4.9 2.41 4.7L7.68 1.61ZM13.58 6.57C13.53 6.47 13.44 6.39 13.34 6.34C13.23 6.28 13.13 6.26 13.02 6.26C12.89 6.26 12.78 6.28 12.68 6.34L8.65 8.75L4.59 6.34C4.5 6.28 4.39 6.26 4.28 6.26C4.17 6.26 4.06 6.28 3.95 6.34C3.85 6.39 3.76 6.47 3.69 6.57C3.64 6.67 3.61 6.78 3.61 6.9C3.61 7.16 3.71 7.35 3.92 7.47L8 9.89L8 13.9C8 14.08 8.06 14.23 8.18 14.36C8.31 14.49 8.46 14.55 8.65 14.55C8.83 14.55 8.98 14.49 9.11 14.36C9.23 14.23 9.3 14.08 9.3 13.9L9.3 9.89L13.35 7.47C13.56 7.35 13.67 7.16 13.67 6.9C13.67 6.78 13.64 6.67 13.58 6.57Z" fill="#0A59F7" fill-opacity="0.901961" fill-rule="nonzero"/>
</svg>
