<!--
  - /*
  -     Copyright (c) 2025 Huawei Device Co., Ltd.
  -     Licensed under the Apache License, Version 2.0 (the "License");
  -     you may not use this file except in compliance with the License.
  -     You may obtain a copy of the License at
  -
  -       http://www.apache.org/licenses/LICENSE-2.0
  -
  -     Unless required by applicable law or agreed to in writing, software
  -     distributed under the License is distributed on an "AS IS" BASIS,
  -     WITHOUT WARRANTIES OR CONDITIONS OF ANY KIND, either express or implied.
  -     See the License for the specific language governing permissions and
  -     limitations under the License.
  -  */
  -->

<svg width="12.000000" height="12.000000" viewBox="0 0 12 12" fill="none" xmlns="http://www.w3.org/2000/svg"
>
    <desc>
        Created with Pixso.
    </desc>
    <defs>
        <clipPath id="clip4_1013">
            <rect id="heart (3)" width="12.000000" height="12.000000" fill="white" fill-opacity="0"/>
        </clipPath>
    </defs>
    <g clip-path="url(#clip4_1013)">
        <g opacity="0.000000">
            <rect id="rect" width="12.000000" height="12.000000" fill="#000000" fill-opacity="1.000000"/>
        </g>
        <path id="path"
              d="M1.26 4.66C1.26 4.07 1.36 3.56 1.58 3.14C1.78 2.72 2.09 2.4 2.47 2.18C2.86 1.96 3.32 1.85 3.86 1.85C4.21 1.85 4.55 1.93 4.88 2.07C5.2 2.21 5.48 2.42 5.73 2.69C5.79 2.77 5.88 2.81 6 2.81C6.12 2.81 6.21 2.77 6.27 2.69C6.52 2.42 6.81 2.21 7.13 2.07C7.45 1.93 7.79 1.85 8.13 1.85C8.73 1.85 9.23 1.99 9.62 2.26C10.01 2.52 10.29 2.87 10.47 3.29C10.65 3.72 10.74 4.17 10.74 4.66C10.74 5.27 10.4 6.03 9.72 6.95C9.34 7.46 8.9 7.96 8.39 8.45C7.88 8.95 7.4 9.36 6.96 9.67C6.51 9.99 6.19 10.14 6 10.14C5.8 10.14 5.49 9.99 5.07 9.68C4.65 9.38 4.18 8.98 3.68 8.48C3.18 7.98 2.72 7.47 2.31 6.95C1.99 6.56 1.73 6.15 1.54 5.73C1.35 5.33 1.26 4.97 1.26 4.66ZM8.13 1.11C7.74 1.11 7.36 1.18 7 1.32C6.63 1.46 6.3 1.66 6 1.91C5.69 1.66 5.36 1.46 5 1.32C4.63 1.18 4.25 1.11 3.86 1.11C3.21 1.11 2.63 1.27 2.12 1.58C1.61 1.89 1.21 2.31 0.92 2.83C0.64 3.36 0.5 3.93 0.5 4.56C0.5 5.11 0.69 5.73 1.08 6.42C1.47 7.11 1.98 7.79 2.6 8.45C3.26 9.14 3.91 9.72 4.53 10.18C5.16 10.65 5.65 10.88 5.98 10.88C6.36 10.88 6.85 10.65 7.46 10.2C8.06 9.75 8.7 9.16 9.38 8.45C10 7.81 10.5 7.14 10.9 6.44C11.29 5.74 11.49 5.12 11.49 4.56C11.49 3.93 11.35 3.36 11.06 2.83C10.77 2.31 10.37 1.89 9.86 1.58C9.35 1.27 8.77 1.11 8.13 1.11Z"
              fill="#000000" fill-opacity="0.901961" fill-rule="nonzero"/>
    </g>
</svg>
