<!--
  - /*
  -     Copyright (c) 2025 Huawei Device Co., Ltd.
  -     Licensed under the Apache License, Version 2.0 (the "License");
  -     you may not use this file except in compliance with the License.
  -     You may obtain a copy of the License at
  -
  -       http://www.apache.org/licenses/LICENSE-2.0
  -
  -     Unless required by applicable law or agreed to in writing, software
  -     distributed under the License is distributed on an "AS IS" BASIS,
  -     WITHOUT WARRANTIES OR CONDITIONS OF ANY KIND, either express or implied.
  -     See the License for the specific language governing permissions and
  -     limitations under the License.
  -  */
  -->

<svg width="12.000000" height="12.000000" viewBox="0 0 12 12" fill="none" xmlns="http://www.w3.org/2000/svg"
>
    <desc>
        Created with Pixso.
    </desc>
    <defs>
        <clipPath id="clip4_1308">
            <rect id="navigation" width="12.000000" height="12.000000" fill="white" fill-opacity="0"/>
        </clipPath>
    </defs>
    <g clip-path="url(#clip4_1308)">
        <g opacity="0.000000">
            <rect id="rect" width="12.000000" height="12.000000" fill="#000000" fill-opacity="1.000000"/>
        </g>
        <path id="path"
              d="M2.93 6.47C3.28 5.77 3.76 5.21 4.38 4.78L4.38 3.63L5.51 3.63C5.59 3.61 5.65 3.56 5.69 3.48C5.71 3.4 5.7 3.32 5.65 3.25L4.05 1.17C3.96 1.08 3.86 1.03 3.74 1.03C3.62 1.02 3.51 1.05 3.42 1.13C3.38 1.15 2.79 1.86 1.64 3.27C1.61 3.33 1.61 3.41 1.66 3.5C1.7 3.59 1.77 3.63 1.85 3.63L2.93 3.63L2.93 6.47ZM7.76 7.28C7.79 7.28 7.93 7.19 8.17 7.02C8.41 6.84 8.99 6.39 9.93 5.67C10.03 5.58 10.09 5.47 10.11 5.34C10.13 5.21 10.1 5.09 10.02 4.98C9.67 4.72 9.18 4.32 8.55 3.78L7.92 3.25C7.84 3.18 7.75 3.17 7.66 3.22C7.57 3.26 7.52 3.34 7.52 3.44L7.52 4.57C5.91 4.62 4.74 5.11 4.02 6.04C3.29 6.98 2.93 8.29 2.93 9.99C2.93 10.19 3 10.36 3.14 10.5C3.28 10.64 3.45 10.71 3.65 10.71C3.84 10.71 4.02 10.64 4.16 10.5C4.3 10.36 4.38 10.19 4.38 9.99C4.38 9.55 4.39 9.21 4.41 8.97C4.43 8.73 4.48 8.47 4.55 8.21C4.73 7.48 5.06 6.95 5.54 6.6C6.01 6.24 6.67 6.05 7.52 6.02L7.52 7.04C7.52 7.1 7.54 7.16 7.59 7.21C7.64 7.26 7.7 7.28 7.76 7.28Z"
              fill="#FFFFFF" fill-opacity="0.901961" fill-rule="nonzero"/>
    </g>
</svg>
