<!--
  - /*
  -     Copyright (c) 2025 Huawei Device Co., Ltd.
  -     Licensed under the Apache License, Version 2.0 (the "License");
  -     you may not use this file except in compliance with the License.
  -     You may obtain a copy of the License at
  -
  -       http://www.apache.org/licenses/LICENSE-2.0
  -
  -     Unless required by applicable law or agreed to in writing, software
  -     distributed under the License is distributed on an "AS IS" BASIS,
  -     WITHOUT WARRANTIES OR CONDITIONS OF ANY KIND, either express or implied.
  -     See the License for the specific language governing permissions and
  -     limitations under the License.
  -  */
  -->

<svg width="12.000000" height="12.000000" viewBox="0 0 12 12" fill="none" xmlns="http://www.w3.org/2000/svg"
>
    <desc>
        Created with Pixso.
    </desc>
    <defs>
        <clipPath id="clip4_1017">
            <rect id="magnifyingglass_circle" width="12.000000" height="12.000000" fill="white" fill-opacity="0"/>
        </clipPath>
    </defs>
    <g clip-path="url(#clip4_1017)">
        <g opacity="0.000000">
            <rect id="rect" width="12.000000" height="12.000000" fill="#000000" fill-opacity="1.000000"/>
        </g>
        <path id="path"
              d="M7.68 7.13C8.01 6.67 8.18 6.16 8.18 5.61C8.18 5.15 8.06 4.72 7.83 4.32C7.6 3.92 7.29 3.61 6.89 3.38C6.49 3.15 6.06 3.03 5.6 3.03C5.14 3.03 4.71 3.15 4.31 3.38C3.91 3.61 3.6 3.92 3.37 4.32C3.14 4.72 3.02 5.15 3.02 5.61C3.02 6.07 3.14 6.5 3.37 6.9C3.6 7.3 3.91 7.61 4.31 7.84C4.71 8.07 5.14 8.19 5.6 8.19C6.16 8.19 6.68 8.01 7.15 7.66L8.33 8.82C8.4 8.9 8.49 8.93 8.6 8.93C8.71 8.93 8.79 8.9 8.85 8.82C8.92 8.75 8.96 8.67 8.96 8.56C8.96 8.46 8.92 8.37 8.85 8.3L7.68 7.13ZM3.77 5.61C3.77 5.28 3.85 4.98 4.01 4.69C4.17 4.41 4.4 4.18 4.68 4.02C4.96 3.86 5.27 3.77 5.6 3.77C5.93 3.77 6.23 3.86 6.52 4.02C6.8 4.18 7.03 4.41 7.19 4.69C7.35 4.98 7.44 5.28 7.44 5.61C7.44 5.94 7.35 6.25 7.19 6.52C7.03 6.81 6.8 7.03 6.52 7.19C6.23 7.35 5.93 7.44 5.6 7.44C5.27 7.44 4.96 7.35 4.68 7.19C4.4 7.03 4.17 6.81 4.01 6.52C3.85 6.25 3.77 5.94 3.77 5.61Z"
              fill="#000000" fill-opacity="0.901961" fill-rule="nonzero"/>
        <path id="path"
              d="M6 0.5C5 0.5 4.08 0.75 3.24 1.23C2.4 1.73 1.73 2.4 1.23 3.24C0.75 4.08 0.5 5 0.5 6C0.5 6.99 0.75 7.91 1.23 8.75C1.73 9.59 2.4 10.26 3.24 10.76C4.08 11.25 5 11.49 6 11.49C6.99 11.49 7.91 11.25 8.75 10.76C9.59 10.26 10.26 9.59 10.76 8.75C11.25 7.91 11.49 6.99 11.49 6C11.49 5 11.25 4.08 10.76 3.24C10.26 2.4 9.59 1.73 8.75 1.23C7.91 0.75 6.99 0.5 6 0.5ZM6 10.75C5.14 10.75 4.35 10.53 3.62 10.1C2.89 9.68 2.31 9.1 1.89 8.37C1.46 7.64 1.25 6.85 1.25 6C1.25 5.14 1.46 4.35 1.89 3.62C2.31 2.89 2.89 2.31 3.62 1.89C4.35 1.46 5.14 1.25 6 1.25C6.85 1.25 7.64 1.46 8.37 1.89C9.1 2.31 9.68 2.89 10.1 3.62C10.53 4.35 10.75 5.14 10.75 6C10.75 6.85 10.53 7.64 10.1 8.37C9.68 9.1 9.1 9.68 8.37 10.1C7.64 10.53 6.85 10.75 6 10.75Z"
              fill="#000000" fill-opacity="0.901961" fill-rule="nonzero"/>
    </g>
</svg>
