<!--
  - /*
  -     Copyright (c) 2025 Huawei Device Co., Ltd.
  -     Licensed under the Apache License, Version 2.0 (the "License");
  -     you may not use this file except in compliance with the License.
  -     You may obtain a copy of the License at
  -
  -       http://www.apache.org/licenses/LICENSE-2.0
  -
  -     Unless required by applicable law or agreed to in writing, software
  -     distributed under the License is distributed on an "AS IS" BASIS,
  -     WITHOUT WARRANTIES OR CONDITIONS OF ANY KIND, either express or implied.
  -     See the License for the specific language governing permissions and
  -     limitations under the License.
  -  */
  -->

<svg width="12.000000" height="12.000000" viewBox="0 0 12 12" fill="none" xmlns="http://www.w3.org/2000/svg"
>
    <desc>
        Created with Pixso.
    </desc>
    <defs>
        <clipPath id="clip4_1023">
            <rect id="time_inerval (2)" width="12.000000" height="12.000000" fill="white" fill-opacity="0"/>
        </clipPath>
    </defs>
    <g clip-path="url(#clip4_1023)">
        <g opacity="0.000000">
            <rect id="rect" width="12.000000" height="12.000000" fill="#000000" fill-opacity="1.000000"/>
        </g>
        <path id="path"
              d="M6.38 5.61L6.38 3.35C6.38 3.24 6.34 3.15 6.27 3.08C6.19 3 6.1 2.96 6 2.96C5.89 2.96 5.8 3 5.72 3.08C5.65 3.15 5.61 3.24 5.61 3.35L5.61 5.99C5.61 6.09 5.65 6.18 5.72 6.27C5.8 6.35 5.89 6.39 6 6.39L9.52 6.39C9.63 6.39 9.72 6.35 9.8 6.27C9.88 6.19 9.92 6.1 9.92 6C9.92 5.89 9.88 5.8 9.8 5.73C9.72 5.65 9.63 5.61 9.52 5.61L6.38 5.61Z"
              fill="#000000" fill-opacity="0.700000" fill-rule="nonzero"/>
        <path id="path"
              d="M11.12 6.39C10.87 6.39 10.72 6.53 10.68 6.8C10.55 7.54 10.26 8.21 9.82 8.81C9.37 9.41 8.82 9.88 8.15 10.22C7.48 10.56 6.76 10.74 6 10.74C5.14 10.74 4.35 10.52 3.62 10.1C2.89 9.68 2.31 9.1 1.89 8.38C1.47 7.65 1.26 6.86 1.26 6C1.26 5.23 1.42 4.51 1.76 3.84C2.1 3.17 2.57 2.62 3.16 2.17C3.76 1.73 4.41 1.44 5.13 1.32C5.27 1.3 5.37 1.25 5.44 1.17C5.51 1.09 5.54 0.99 5.54 0.87C5.54 0.75 5.5 0.66 5.42 0.6C5.34 0.54 5.23 0.52 5.08 0.54C4.23 0.67 3.45 1 2.75 1.52C2.04 2.04 1.48 2.69 1.08 3.48C0.68 4.26 0.47 5.1 0.47 6C0.47 7 0.72 7.92 1.21 8.76C1.7 9.6 2.38 10.27 3.22 10.77C4.07 11.27 5 11.52 6 11.52C6.9 11.52 7.74 11.31 8.52 10.91C9.31 10.5 9.96 9.93 10.48 9.23C10.99 8.51 11.32 7.72 11.46 6.85C11.47 6.7 11.45 6.58 11.4 6.51C11.34 6.43 11.25 6.39 11.12 6.39ZM11.12 5.58C11.25 5.58 11.34 5.54 11.4 5.46C11.45 5.38 11.47 5.26 11.46 5.12C11.33 4.34 11.05 3.63 10.62 2.97C10.18 2.31 9.64 1.77 8.98 1.35C8.33 0.93 7.61 0.66 6.83 0.54C6.69 0.51 6.58 0.53 6.5 0.59C6.42 0.65 6.38 0.74 6.38 0.87C6.38 1 6.41 1.1 6.48 1.17C6.55 1.24 6.65 1.29 6.78 1.32C7.44 1.43 8.03 1.66 8.58 2.03C9.13 2.39 9.59 2.84 9.95 3.38C10.31 3.92 10.56 4.52 10.68 5.16C10.69 5.3 10.74 5.41 10.82 5.48C10.89 5.54 10.99 5.58 11.12 5.58Z"
              fill="#000000" fill-opacity="0.700000" fill-rule="nonzero"/>
    </g>
</svg>
