<?xml version="1.0" encoding="UTF-8"?>
<!--
  - /*
  -    Copyright (c) 2025 Huawei Device Co., Ltd.
  -    Licensed under the Apache License, Version 2.0 (the "License");
  -    you may not use this file except in compliance with the License.
  -    You may obtain a copy of the License at
  -    http://www.apache.org/licenses/LICENSE-2.0
  -    Unless required by applicable law or agreed to in writing, software
  -    distributed under the License is distributed on an "AS IS" BASIS,
  -    WITHOUT WARRANTIES OR CONDITIONS OF ANY KIND, either express or implied.
  -    See the License for the specific language governing permissions and
  -    limitations under the License.
  -  */
  -
  -->

<svg width="25px" height="24px" viewBox="0 0 25 24" version="1.1" xmlns="http://www.w3.org/2000/svg" xmlns:xlink="http://www.w3.org/1999/xlink">
    <title>tab/ic_备份 68</title>
    <g id="方特" stroke="none" stroke-width="1" fill="none" fill-rule="evenodd">
        <g id="我的" transform="translate(-311.000000, -724.000000)">
            <g id="BottomNavigationBar/land/Basic/Item_5" transform="translate(0.000000, 708.000000)">
                <g id="Bottom-tab/item/normal备份-2" transform="translate(288.000000, 16.000000)">
                    <g id="编组" transform="translate(0.293445, 0.000000)">
                        <g transform="translate(23.213404, 0.000000)" id="形状结合">
                            <g transform="translate(1.500033, 1.500000)">
                                <path d="M10.6732784,0.00140414107 L10.4999672,6.39488462e-14 C4.76563276,6.39488462e-14 0.0942098729,4.60067747 0.00137132636,10.3266888 L1.42108547e-14,10.4918989 C1.42108547e-14,16.2343344 4.60064466,20.9057573 10.326656,20.9985959 L10.4918661,20.9999672 C16.2343016,20.9999672 20.9057245,16.3993225 20.998563,10.6733112 L20.9999344,10.5081011 C20.9999344,4.76566558 16.3992897,0.0942426876 10.6732784,0.00140414107 Z" fill="#458EF8"></path>
                                <path d="M10.4999672,11.3900553 C13.5199031,11.3900553 16.0478545,13.4964918 16.6947103,16.3202539 C15.1438117,17.970056 12.942184,19 10.5,19 C8.05781599,19 5.8561883,17.970056 4.30578106,16.320832 C4.95207989,13.4964918 7.48003124,11.3900553 10.4999672,11.3900553 Z M10.4999672,4.80882353 C12.1568214,4.80882353 13.4999672,6.15196928 13.4999672,7.80882353 C13.4999672,9.46567778 12.1568214,10.8088235 10.4999672,10.8088235 C8.84311294,10.8088235 7.49996719,9.46567778 7.49996719,7.80882353 C7.49996719,6.15196928 8.84311294,4.80882353 10.4999672,4.80882353 Z" fill="#FFFFFF"></path>
                            </g>
                        </g>
                    </g>
                </g>
            </g>
        </g>
    </g>
</svg>