<!--
  - Copyright (c) 2025 Huawei Device Co., Ltd.
  - Licensed under the Apache License, Version 2.0 (the "License");
  - you may not use this file except in compliance with the License.
  - You may obtain a copy of the License at
  -
  -     http://www.apache.org/licenses/LICENSE-2.0
  -
  - Unless required by applicable law or agreed to in writing, software
  - distributed under the License is distributed on an "AS IS" BASIS,
  - WITHOUT WARRANTIES OR CONDITIONS OF ANY KIND, either express or implied.
  - See the License for the specific language governing permissions and
  - limitations under the License.
  -->

<svg width="8.000000" height="16.000000" viewBox="0 0 8 16" fill="none" xmlns="http://www.w3.org/2000/svg"
>
    <desc>
        Created with Pixso.
    </desc>
    <defs>
        <clipPath id="clip63_12036">
            <rect id="svg" rx="4.000000" width="8.000000" height="16.000000" fill="white" fill-opacity="0"/>
        </clipPath>
    </defs>
    <g clip-path="url(#clip63_12036)">
        <g opacity="0.000000">
            <rect id="rect" width="8.000000" height="16.000000" fill="#000000" fill-opacity="1.000000"/>
        </g>
        <path id="path"
              d="M1.18 13.77C1.35 13.92 1.51 14 1.68 14C1.85 14 2 13.92 2.12 13.77L6.72 8.72C6.84 8.54 7 8.23 7 8C7 7.69 6.9 7.45 6.72 7.27L2.12 2.2C2 2.06 1.85 2 1.67 2C1.48 2 1.33 2.06 1.2 2.2C1.09 2.32 1.03 2.47 1.02 2.66C1.02 2.83 1.06 3 1.16 3.15L5.57 8L1.18 12.77C1.06 12.91 1 13.07 1 13.27C1 13.46 1.06 13.63 1.18 13.77Z"
              fill="#FFFFFF" fill-opacity="1.000000" fill-rule="nonzero"/>
    </g>
</svg>
