<!--
  - Copyright (c) 2025 Huawei Device Co., Ltd.
  - Licensed under the Apache License, Version 2.0 (the "License");
  - you may not use this file except in compliance with the License.
  - You may obtain a copy of the License at
  -
  -     http://www.apache.org/licenses/LICENSE-2.0
  -
  - Unless required by applicable law or agreed to in writing, software
  - distributed under the License is distributed on an "AS IS" BASIS,
  - WITHOUT WARRANTIES OR CONDITIONS OF ANY KIND, either express or implied.
  - See the License for the specific language governing permissions and
  - limitations under the License.
  -->

<svg width="24.000000" height="24.000000" viewBox="0 0 24 24" fill="none" xmlns="http://www.w3.org/2000/svg"
>
    <desc>
        Created with Pixso.
    </desc>
    <defs/>
    <g opacity="0.000000">
        <rect width="24.000000" height="24.000000" fill="#000000" fill-opacity="1.000000"/>
    </g>
    <path d="M20.38 12.07C18.55 10.33 16.71 8.59 14.88 6.85L13.06 5.15C12.75 4.87 12.39 4.72 11.99 4.72C11.58 4.72 11.22 4.87 10.91 5.15L3.64 12.07C3.52 12.19 3.42 12.34 3.36 12.5C3.29 12.66 3.26 12.82 3.26 12.98L3.26 19.99C3.26 20.41 3.36 20.79 3.56 21.13C3.76 21.47 4.03 21.75 4.38 21.95C4.72 22.15 5.1 22.25 5.52 22.25L18.5 22.25C18.89 22.25 19.27 22.15 19.62 21.95C19.96 21.75 20.24 21.47 20.43 21.13C20.63 20.79 20.74 20.41 20.74 19.99L20.74 12.96C20.74 12.78 20.7 12.62 20.63 12.47C20.57 12.31 20.48 12.18 20.38 12.07Z"
          fill="#CCCCCC" fill-opacity="1.000000" fill-rule="evenodd"/>
    <path d="M1.48 11.47C1.61 11.59 1.79 11.66 2.02 11.68C2.23 11.68 2.41 11.62 2.54 11.5L10.61 3.83C11.01 3.45 11.47 3.25 12.01 3.25C12.55 3.25 13.02 3.45 13.41 3.83L21.48 11.47C21.62 11.61 21.8 11.69 22.01 11.69C22.21 11.69 22.39 11.61 22.54 11.45C22.66 11.3 22.73 11.12 22.73 10.92C22.73 10.71 22.65 10.53 22.51 10.39L14.45 2.75C14 2.32 13.48 2.03 12.89 1.87C12.29 1.73 11.7 1.73 11.11 1.87C10.51 2.03 9.99 2.32 9.55 2.75L1.51 10.39C1.35 10.53 1.27 10.71 1.27 10.92C1.27 11.12 1.34 11.31 1.48 11.47Z"
          fill="#CCCCCC" fill-opacity="1.000000" fill-rule="evenodd"/>
</svg>
