<!--
  - Copyright (c) 2025 Huawei Device Co., Ltd.
  - Licensed under the Apache License, Version 2.0 (the "License");
  - you may not use this file except in compliance with the License.
  - You may obtain a copy of the License at
  -
  -     http://www.apache.org/licenses/LICENSE-2.0
  -
  - Unless required by applicable law or agreed to in writing, software
  - distributed under the License is distributed on an "AS IS" BASIS,
  - WITHOUT WARRANTIES OR CONDITIONS OF ANY KIND, either express or implied.
  - See the License for the specific language governing permissions and
  - limitations under the License.
  -->

<svg width="14.000000" height="14.000000" viewBox="0 0 14 14" fill="none" xmlns="http://www.w3.org/2000/svg"
>
    <desc>
        Created with Pixso.
    </desc>
    <defs/>
    <circle cx="7.000000" cy="7.000000" r="7.000000" fill="#FFFFFF" fill-opacity="0.901961"/>
    <path d="M4.25 6.04C4.19 5.98 4.1 5.98 4.04 6.03C3.98 6.09 3.98 6.17 4.04 6.23L6.89 8.95C6.95 9.01 7.04 9.01 7.1 8.95L9.95 6.23C10.01 6.17 10.01 6.09 9.95 6.03C9.89 5.98 9.8 5.98 9.74 6.04L7 8.66L4.25 6.04Z"
          fill="#0067D1" fill-opacity="0" fill-rule="evenodd"/>
    <path d="M4.04 6.03C3.98 6.09 3.98 6.17 4.04 6.23L6.89 8.95C6.95 9.01 7.04 9.01 7.1 8.95L9.95 6.23C10.01 6.17 10.01 6.09 9.95 6.03C9.89 5.98 9.8 5.98 9.74 6.04L7 8.66L4.25 6.04C4.19 5.98 4.1 5.98 4.04 6.03Z"
          stroke="#51ADE2" stroke-opacity="1.000000" stroke-width="0.833333"/>
</svg>
