<!--
  - Copyright (c) 2025 Huawei Device Co., Ltd.
  - Licensed under the Apache License, Version 2.0 (the "License");
  - you may not use this file except in compliance with the License.
  - You may obtain a copy of the License at
  -
  -     http://www.apache.org/licenses/LICENSE-2.0
  -
  - Unless required by applicable law or agreed to in writing, software
  - distributed under the License is distributed on an "AS IS" BASIS,
  - WITHOUT WARRANTIES OR CONDITIONS OF ANY KIND, either express or implied.
  - See the License for the specific language governing permissions and
  - limitations under the License.
  -->

<svg width="24.000000" height="24.000000" viewBox="0 0 24 24" fill="none" xmlns="http://www.w3.org/2000/svg"
>
    <desc>
        Created with Pixso.
    </desc>
    <defs/>
    <path d="M0.75 11.99C0.75 10.23 0.74 8.47 0.75 6.71C0.74 5.86 0.85 5.02 1.06 4.19C1.52 2.45 2.66 1.41 4.4 1.01C5.27 0.82 6.16 0.73 7.06 0.75C10.43 0.75 13.8 0.75 17.17 0.75C18.02 0.74 18.87 0.84 19.7 1.04C21.49 1.48 22.57 2.61 22.98 4.4C23.17 5.25 23.25 6.11 23.24 6.98C23.24 10.38 23.24 13.79 23.24 17.2C23.25 18.04 23.15 18.88 22.96 19.7C22.52 21.5 21.37 22.57 19.58 22.98C18.71 23.17 17.82 23.26 16.92 23.24C13.57 23.24 10.21 23.24 6.86 23.24C6 23.25 5.14 23.15 4.31 22.96C2.5 22.52 1.42 21.38 1.01 19.58C0.8 18.66 0.75 17.75 0.75 16.82C0.75 15.21 0.75 13.6 0.75 11.99Z"
          fill="#FFFFFF" fill-opacity="0" fill-rule="evenodd"/>
    <path d="M0.75 6.71C0.74 5.86 0.85 5.02 1.06 4.19C1.52 2.45 2.66 1.41 4.4 1.01C5.27 0.82 6.16 0.73 7.06 0.75C10.43 0.75 13.8 0.75 17.17 0.75C18.02 0.74 18.87 0.84 19.7 1.04C21.49 1.48 22.57 2.61 22.98 4.4C23.17 5.25 23.25 6.11 23.24 6.98C23.24 10.38 23.24 13.79 23.24 17.2C23.25 18.04 23.15 18.88 22.96 19.7C22.52 21.5 21.37 22.57 19.58 22.98C18.71 23.17 17.82 23.26 16.92 23.24C13.57 23.24 10.21 23.24 6.86 23.24C6 23.25 5.14 23.15 4.31 22.96C2.5 22.52 1.42 21.38 1.01 19.58C0.8 18.66 0.75 17.75 0.75 16.82C0.75 15.21 0.75 13.6 0.75 11.99C0.75 10.23 0.74 8.47 0.75 6.71Z"
          stroke="#FFFFFF" stroke-opacity="0" stroke-width="2.000000"/>
    <g opacity="0.200000">
        <path d="M0.75 6.71C0.74 5.86 0.85 5.02 1.06 4.19C1.52 2.45 2.66 1.41 4.4 1.01C5.27 0.82 6.16 0.73 7.06 0.75C10.43 0.75 13.8 0.75 17.17 0.75C18.02 0.74 18.87 0.84 19.7 1.04C21.49 1.48 22.57 2.61 22.98 4.4C23.17 5.25 23.25 6.11 23.24 6.98C23.24 10.38 23.24 13.79 23.24 17.2C23.25 18.04 23.15 18.88 22.96 19.7C22.52 21.5 21.37 22.57 19.58 22.98C18.71 23.17 17.82 23.26 16.92 23.24C13.57 23.24 10.21 23.24 6.86 23.24C6 23.25 5.14 23.15 4.31 22.96C2.5 22.52 1.42 21.38 1.01 19.58C0.8 18.66 0.75 17.75 0.75 16.82C0.75 15.21 0.75 13.6 0.75 11.99C0.75 10.23 0.74 8.47 0.75 6.71Z"
              stroke="#FFFFFF" stroke-opacity="0" stroke-width="2.000000"/>
    </g>
    <circle cx="12.000000" cy="12.000000" r="12.000000" fill="#FFFFFF" fill-opacity="0"/>
    <path d="M20.77 13.52C20.92 12.87 21 12.19 21 11.5C21 6.52 16.97 2.5 12 2.5C7.02 2.5 3 6.52 3 11.5C3 16.47 7.02 20.5 12 20.5"
          stroke="#000000" stroke-opacity="1.000000" stroke-width="1.000000" stroke-linejoin="round"
          stroke-linecap="round"/>
    <mask id="mask_50_8391" fill="white">
        <path d="M3.33215 9.06491L3.35144 9L3.2843 9.00467C2.00452 9.11404 1 10.1875 1 11.4955L1.00232 11.6039C1.05603 12.8624 2.04016 13.88 3.2843 13.9863L3.35144 13.9905L3.33228 13.9263C3.11279 13.1422 3 12.3264 3 11.4955C3 10.6646 3.11279 9.84888 3.33215 9.06491ZM20.6486 9.00449L20.6678 9.06943C20.8872 9.85336 21 10.6692 21 11.5C21 12.3309 20.8872 13.1467 20.6677 13.9308L20.6486 13.995L20.7157 13.9908C21.9598 13.8845 22.944 12.8669 22.9977 11.6085L23 11.5C23 10.192 21.9955 9.11853 20.7157 9.00919L20.6486 9.00449Z"
              clip-rule="evenodd" fill="" fill-opacity="1.000000" fill-rule="evenodd"/>
    </mask>
    <path d="M3.33215 9.06491L3.35144 9L3.2843 9.00467C2.00452 9.11404 1 10.1875 1 11.4955L1.00232 11.6039C1.05603 12.8624 2.04016 13.88 3.2843 13.9863L3.35144 13.9905L3.33228 13.9263C3.11279 13.1422 3 12.3264 3 11.4955C3 10.6646 3.11279 9.84888 3.33215 9.06491ZM20.6486 9.00449L20.6678 9.06943C20.8872 9.85336 21 10.6692 21 11.5C21 12.3309 20.8872 13.1467 20.6677 13.9308L20.6486 13.995L20.7157 13.9908C21.9598 13.8845 22.944 12.8669 22.9977 11.6085L23 11.5C23 10.192 21.9955 9.11853 20.7157 9.00919L20.6486 9.00449Z"
          clip-rule="evenodd" fill="#000000" fill-opacity="1.000000" fill-rule="evenodd" mask="url(#mask_50_8391)"/>
    <path d="M2.37378 8.77939L2.39319 8.71448L3.35144 9L3.4209 9.99759L3.35376 10.0023C2.45129 10.0795 2 10.5772 2 11.4955L2.00208 11.5826C2.03906 12.4461 2.49487 12.9152 3.36938 12.99L3.2843 13.9863L3.34631 12.9883L3.41357 12.9924L3.35144 13.9905L2.39355 14.2776L2.37439 14.2134C2.12476 13.3222 2 12.4163 2 11.4955C2 10.5748 2.12305 9.67474 2.36914 8.79538L2.37378 8.77939ZM4.29517 9.33444C4.09839 10.0375 4 10.7578 4 11.4955C4 12.2332 4.09668 12.9478 4.29016 13.6393L4.30945 13.7034C4.34351 13.8174 4.35693 13.9338 4.34961 14.0525C4.30823 14.7179 3.95483 15.0299 3.28943 14.9886L3.22229 14.9844C3.2146 14.9839 3.20679 14.9833 3.1991 14.9827C1.15601 14.8081 0.0904541 13.6889 0.00256348 11.6252L0 11.4955C0 9.35297 1.07166 8.19019 3.21484 8.00708L3.2821 8.00241C3.40283 7.99402 3.52112 8.00708 3.63696 8.04163C4.27588 8.23196 4.50024 8.64661 4.30981 9.28552L4.29053 9.35043L4.29517 9.33444ZM21.6068 8.71896L21.6262 8.78391C21.8754 9.67389 22 10.5793 22 11.5C22 12.4208 21.877 13.3209 21.6307 14.2004L21.6064 14.2821L20.6486 13.995L20.5864 12.9969L20.6537 12.9927L20.7157 13.9908L20.6306 12.9944C21.5051 12.9197 21.9612 12.4435 21.9987 11.5658L22.0002 11.4787C22.0001 10.5746 21.5436 10.0836 20.6306 10.0056L20.5791 10.0021L20.6486 9.00449L21.6068 8.71896ZM19.6902 9.29004C19.6556 9.17407 19.6425 9.05579 19.6509 8.93509C19.6971 8.27002 20.0529 7.96063 20.7179 8.0069L20.8009 8.01282C22.9336 8.19507 23.9999 9.36456 23.9998 11.5213L23.9968 11.6511C23.9093 13.7005 22.844 14.8126 20.8009 14.9872C20.7932 14.9879 20.7854 14.9884 20.7777 14.9889L20.7106 14.9931C20.5918 15.0005 20.4755 14.9871 20.3615 14.9529C19.7228 14.7615 19.4993 14.3466 19.6906 13.7079L19.7047 13.6613C19.9016 12.9581 20 12.2377 20 11.5C20 10.7623 19.9032 10.0473 19.7095 9.35495L19.6902 9.29004L19.6902 9.29004Z"
          fill="#000000" fill-opacity="1.000000" fill-rule="nonzero"/>
    <circle cx="12.000000" cy="20.500000" r="1.000000" fill="#000000" fill-opacity="1.000000"/>
    <circle cx="12.000000" cy="20.500000" r="1.000000" stroke="#000000" stroke-opacity="1.000000"
            stroke-width="2.000000" stroke-linejoin="round"/>
    <mask id="mask_50_8395" fill="white">
        <path d="M10.5 20.5C10.5 19.6716 11.1716 19 12 19C12.8284 19 13.5 19.6716 13.5 20.5C13.5 21.3284 12.8284 22 12 22C11.1716 22 10.5 21.3284 10.5 20.5ZM12.5 20.5C12.5 20.2238 12.2761 20 12 20C11.7239 20 11.5 20.2238 11.5 20.5C11.5 20.7762 11.7239 21 12 21C12.2761 21 12.5 20.7762 12.5 20.5Z"
              clip-rule="evenodd" fill="" fill-opacity="1.000000" fill-rule="evenodd"/>
    </mask>
    <path d="M10.5 20.5C10.5 19.6716 11.1716 19 12 19C12.8284 19 13.5 19.6716 13.5 20.5C13.5 21.3284 12.8284 22 12 22C11.1716 22 10.5 21.3284 10.5 20.5ZM12.5 20.5C12.5 20.2238 12.2761 20 12 20C11.7239 20 11.5 20.2238 11.5 20.5C11.5 20.7762 11.7239 21 12 21C12.2761 21 12.5 20.7762 12.5 20.5Z"
          clip-rule="evenodd" fill="#FFFFFF" fill-opacity="0.000000" fill-rule="evenodd" mask="url(#mask_50_8395)"/>
    <path d="" fill="#FFFFFF" fill-opacity="0.000000" fill-rule="nonzero"/>
    <path d="M12 2.25C17.1 2.25 21.25 6.39 21.25 11.5C21.25 12.2 21.17 12.9 21.01 13.58C20.98 13.71 20.84 13.8 20.71 13.77C20.58 13.74 20.49 13.6 20.52 13.47C20.67 12.82 20.75 12.17 20.75 11.5C20.75 6.66 16.83 2.75 12 2.75C7.16 2.75 3.25 6.66 3.25 11.5C3.25 16.33 7.16 20.25 12 20.25C12.13 20.25 12.25 20.36 12.25 20.5C12.25 20.63 12.13 20.75 12 20.75C6.89 20.75 2.75 16.6 2.75 11.5C2.75 6.39 6.89 2.25 12 2.25Z"
          fill="#FFFFFF" fill-opacity="0" fill-rule="evenodd"/>
    <path d="M21.25 11.5C21.25 12.2 21.17 12.9 21.01 13.58C20.98 13.71 20.84 13.8 20.71 13.77C20.58 13.74 20.49 13.6 20.52 13.47C20.67 12.82 20.75 12.17 20.75 11.5C20.75 6.66 16.83 2.75 12 2.75C7.16 2.75 3.25 6.66 3.25 11.5C3.25 16.33 7.16 20.25 12 20.25C12.13 20.25 12.25 20.36 12.25 20.5C12.25 20.63 12.13 20.75 12 20.75C6.89 20.75 2.75 16.6 2.75 11.5C2.75 6.39 6.89 2.25 12 2.25C17.1 2.25 21.25 6.39 21.25 11.5Z"
          stroke="#FFFFFF" stroke-opacity="0" stroke-width="2.000000" stroke-linejoin="round"/>
    <mask id="mask_50_8399" fill="white">
        <path d="M3.25 11.5C3.25 12.5507 3.43518 13.5582 3.77478 14.4915C2.22302 14.3764 1 13.081 1 11.5C1 9.91895 2.22302 8.6236 3.77466 8.50833C3.43518 9.44177 3.25 10.4492 3.25 11.5ZM23 11.5C23 9.91895 21.777 8.6236 20.2253 8.50833L20.2323 8.52805C20.5674 9.4559 20.75 10.4566 20.75 11.5C20.75 12.5507 20.5648 13.5582 20.2253 14.4916C21.777 14.3764 23 13.081 23 11.5Z"
              clip-rule="evenodd" fill="" fill-opacity="1.000000" fill-rule="evenodd"/>
    </mask>
    <path d="M3.25 11.5C3.25 12.5507 3.43518 13.5582 3.77478 14.4915C2.22302 14.3764 1 13.081 1 11.5C1 9.91895 2.22302 8.6236 3.77466 8.50833C3.43518 9.44177 3.25 10.4492 3.25 11.5ZM23 11.5C23 9.91895 21.777 8.6236 20.2253 8.50833L20.2323 8.52805C20.5674 9.4559 20.75 10.4566 20.75 11.5C20.75 12.5507 20.5648 13.5582 20.2253 14.4916C21.777 14.3764 23 13.081 23 11.5Z"
          clip-rule="evenodd" fill="#FFFFFF" fill-opacity="0.000000" fill-rule="evenodd" mask="url(#mask_50_8399)"/>
    <path d="" fill="#FFFFFF" fill-opacity="0.000000" fill-rule="nonzero"/>
</svg>
