<!--
  - Copyright (c) 2025 Huawei Device Co., Ltd.
  - Licensed under the Apache License, Version 2.0 (the "License");
  - you may not use this file except in compliance with the License.
  - You may obtain a copy of the License at
  -
  -     http://www.apache.org/licenses/LICENSE-2.0
  -
  - Unless required by applicable law or agreed to in writing, software
  - distributed under the License is distributed on an "AS IS" BASIS,
  - WITHOUT WARRANTIES OR CONDITIONS OF ANY KIND, either express or implied.
  - See the License for the specific language governing permissions and
  - limitations under the License.
  -->

<svg width="24.000000" height="24.000000" viewBox="0 0 24 24" fill="none" xmlns="http://www.w3.org/2000/svg"
>
    <desc>
        Created with Pixso.
    </desc>
    <defs/>
    <path d="M12.17 1.5L12 1.5C6.26 1.5 1.59 6.1 1.5 11.82L1.5 11.99C1.5 17.73 6.1 22.4 11.82 22.49L11.99 22.5C17.73 22.5 22.4 17.89 22.49 12.17L22.5 12C22.5 6.26 17.89 1.59 12.17 1.5Z"
          fill="#0A57F9" fill-opacity="1.000000" fill-rule="evenodd"/>
    <path d="M18.1948 17.8204C16.6445 19.4699 14.4426 20.5 12.0002 20.5C9.55786 20.5 7.35596 19.4698 5.80542 17.8202C6.45239 14.9965 8.98022 12.8901 12.0002 12.8901C15.02 12.8901 17.5481 14.9966 18.1948 17.8204ZM12.0002 6.3089C10.3433 6.3089 9.00024 7.65204 9.00024 9.3089C9.00024 10.9658 10.3433 12.3089 12.0002 12.3089C13.657 12.3089 15.0002 10.9658 15.0002 9.3089C15.0002 7.65204 13.657 6.3089 12.0002 6.3089Z"
          clip-rule="evenodd" fill="#FFFFFF" fill-opacity="1.000000" fill-rule="evenodd"/>
</svg>
