<!--
  - Copyright (c) 2025 Huawei Device Co., Ltd.
  - Licensed under the Apache License, Version 2.0 (the "License");
  - you may not use this file except in compliance with the License.
  - You may obtain a copy of the License at
  -
  -     http://www.apache.org/licenses/LICENSE-2.0
  -
  - Unless required by applicable law or agreed to in writing, software
  - distributed under the License is distributed on an "AS IS" BASIS,
  - WITHOUT WARRANTIES OR CONDITIONS OF ANY KIND, either express or implied.
  - See the License for the specific language governing permissions and
  - limitations under the License.
  -->

<svg width="24.000000" height="24.000000" viewBox="0 0 24 24" fill="none" xmlns="http://www.w3.org/2000/svg"
>
    <desc>
        Created with Pixso.
    </desc>
    <defs/>
    <path d="M12.17 1.5L12 1.5C6.26 1.5 1.59 6.1 1.5 11.82L1.5 11.99C1.5 17.73 6.1 22.4 11.82 22.49L11.99 22.5C17.73 22.5 22.4 17.89 22.49 12.17L22.49 12C22.5 6.26 17.89 1.59 12.17 1.5Z"
          fill="#CCCCCC" fill-opacity="1.000000" fill-rule="evenodd"/>
    <path d="M5.80591 17.8176C6.45374 14.9951 8.98108 12.8901 12 12.8901C15.019 12.8901 17.5464 14.9952 18.1942 17.8177C16.6431 19.4683 14.4408 20.5 12.0001 20.5C9.55933 20.5 7.35693 19.4682 5.80591 17.8176ZM12 12.3088C13.6554 12.3088 15 10.9642 15 9.30884C15 7.65347 13.6554 6.30884 12 6.30884C10.3447 6.30884 9 7.65347 9 9.30884C9 10.9642 10.3447 12.3088 12 12.3088Z"
          clip-rule="evenodd" fill="#FFFFFF" fill-opacity="1.000000" fill-rule="evenodd"/>
</svg>
