<!--
  - Copyright (c) 2025 Huawei Device Co., Ltd.
  - Licensed under the Apache License, Version 2.0 (the "License");
  - you may not use this file except in compliance with the License.
  - You may obtain a copy of the License at
  -
  -     http://www.apache.org/licenses/LICENSE-2.0
  -
  - Unless required by applicable law or agreed to in writing, software
  - distributed under the License is distributed on an "AS IS" BASIS,
  - WITHOUT WARRANTIES OR CONDITIONS OF ANY KIND, either express or implied.
  - See the License for the specific language governing permissions and
  - limitations under the License.
  -->

<svg width="24.000000" height="24.000000" viewBox="0 0 24 24" fill="none" xmlns="http://www.w3.org/2000/svg"
>
    <desc>
        Created with Pixso.
    </desc>
    <defs>
        <filter id="filter_50_10225_dd" x="2.000000" y="2.000000" width="20.000000" height="20.000000"
                filterUnits="userSpaceOnUse" color-interpolation-filters="sRGB">
            <feFlood flood-opacity="0" result="BackgroundImageFix"/>
            <feGaussianBlur in="BackgroundImage" stdDeviation="0.666667"/>
            <feComposite in2="SourceAlpha" operator="in" result="effect_backgroundBlur_1"/>
            <feBlend mode="normal" in="SourceGraphic" in2="effect_backgroundBlur_1" result="shape"/>
        </filter>
        <clipPath id="clip50_10214">
            <rect width="24.000000" height="24.000000" fill="white" fill-opacity="0"/>
        </clipPath>
    </defs>
    <g clip-path="url(#clip50_10214)">
        <g filter="url(#filter_50_10225_dd)">
            <circle cx="12.000000" cy="12.000000" r="10.000000" fill="#FFFFFF" fill-opacity="0.200000"/>
        </g>
        <path d="M12 1C18.07 1 23 5.92 23 12C23 18.07 18.07 23 12 23C5.92 23 1 18.07 1 12C1 5.92 5.92 1 12 1ZM12 2.5C6.75 2.5 2.5 6.75 2.5 12C2.5 17.24 6.75 21.5 12 21.5C17.24 21.5 21.5 17.24 21.5 12C21.5 6.75 17.24 2.5 12 2.5Z"
              fill="#000000" fill-opacity="1.000000" fill-rule="nonzero"/>
        <path d="M23 12C23 18.07 18.07 23 12 23C5.92 23 1 18.07 1 12C1 5.92 5.92 1 12 1C18.07 1 23 5.92 23 12ZM2.5 12C2.5 17.24 6.75 21.5 12 21.5C17.24 21.5 21.5 17.24 21.5 12C21.5 6.75 17.24 2.5 12 2.5C6.75 2.5 2.5 6.75 2.5 12Z"
              stroke="#000000" stroke-opacity="0" stroke-width="1.000000"/>
        <path d="M8.5 8.18C8.5 7.49 7.94 6.93 7.25 6.93C6.55 6.93 6 7.49 6 8.18C6 8.87 6.55 9.43 7.25 9.43C7.94 9.43 8.5 8.87 8.5 8.18ZM16.75 6.93C17.44 6.93 18 7.49 18 8.18C18 8.87 17.44 9.43 16.75 9.43C16.05 9.43 15.5 8.87 15.5 8.18C15.5 7.49 16.06 6.93 16.75 6.93ZM17.64 13.8C17.85 13.44 17.73 12.99 17.37 12.78C17.01 12.57 16.55 12.69 16.35 13.05C15.45 14.59 13.81 15.56 12 15.56C10.18 15.56 8.54 14.59 7.64 13.05C7.44 12.69 6.98 12.57 6.62 12.78C6.26 12.99 6.14 13.44 6.35 13.8C7.5 15.8 9.64 17.06 12 17.06C14.35 17.06 16.49 15.8 17.64 13.8Z"
              fill="#3F8FFE" fill-opacity="1.000000" fill-rule="evenodd"/>
        <path d="M17.64 13.8C16.49 15.8 14.35 17.06 12 17.06C9.64 17.06 7.5 15.8 6.35 13.8C6.14 13.44 6.26 12.99 6.62 12.78C6.98 12.57 7.44 12.69 7.64 13.05C8.54 14.59 10.18 15.56 12 15.56C13.81 15.56 15.45 14.59 16.35 13.05C16.55 12.69 17.01 12.57 17.37 12.78C17.73 12.99 17.85 13.44 17.64 13.8ZM8.5 8.18C8.5 8.87 7.94 9.43 7.25 9.43C6.55 9.43 6 8.87 6 8.18C6 7.49 6.55 6.93 7.25 6.93C7.94 6.93 8.5 7.49 8.5 8.18ZM18 8.18C18 8.87 17.44 9.43 16.75 9.43C16.05 9.43 15.5 8.87 15.5 8.18C15.5 7.49 16.05 6.93 16.75 6.93C17.44 6.93 18 7.49 18 8.18Z"
              stroke="#000000" stroke-opacity="0" stroke-width="1.000000"/>
    </g>
</svg>
