<!--
  -   Copyright (c) 2025 Huawei Device Co., Ltd.
  -   Licensed under the Apache License, Version 2.0 (the "License");
  -   you may not use this file except in compliance with the License.
  -   You may obtain a copy of the License at
  -
  -       http://www.apache.org/licenses/LICENSE-2.0
  -
  -   Unless required by applicable law or agreed to in writing, software
  -   distributed under the License is distributed on an "AS IS" BASIS,
  -   WITHOUT WARRANTIES OR CONDITIONS OF ANY KIND, either express or implied.
  -   See the License for the specific language governing permissions and
  -   limitations under the License.
  -->

<svg width="16.000000" height="16.000000" viewBox="0 0 16 16" fill="none" xmlns="http://www.w3.org/2000/svg" xmlns:xlink="http://www.w3.org/1999/xlink">
	<desc>
			Created with Pixso.
	</desc>
	<defs>
		<clipPath id="clip12_2213">
			<rect id="data_proportion" width="16.000000" height="16.000000" fill="white" fill-opacity="0"/>
		</clipPath>
	</defs>
	<g opacity="0.600000">
		<g clip-path="url(#clip12_2213)">
			<g opacity="0.000000">
				<rect id="rect" width="16.000000" height="16.000000" fill="#000000" fill-opacity="1.000000"/>
			</g>
			<path id="path" d="M7.66 14.91C8.6 14.91 9.49 14.72 10.33 14.34C11.17 13.96 11.9 13.42 12.52 12.73C13.14 12.04 13.59 11.24 13.88 10.35C13.93 10.22 13.92 10.1 13.85 9.98C13.79 9.86 13.69 9.77 13.56 9.72C13.42 9.68 13.3 9.69 13.18 9.76C13.06 9.82 12.98 9.91 12.94 10.04C12.69 10.8 12.31 11.48 11.78 12.06C11.25 12.65 10.63 13.1 9.92 13.42C9.21 13.74 8.46 13.9 7.66 13.9C6.66 13.9 5.73 13.65 4.88 13.15C4.03 12.65 3.36 11.97 2.86 11.12C2.36 10.27 2.11 9.35 2.11 8.35C2.11 7.56 2.27 6.81 2.58 6.1C2.89 5.39 3.34 4.77 3.92 4.25C4.49 3.73 5.16 3.35 5.9 3.1C6.03 3.05 6.12 2.96 6.18 2.83C6.24 2.71 6.25 2.59 6.2 2.46C6.17 2.35 6.1 2.27 6 2.2C5.9 2.12 5.79 2.1 5.68 2.12C5.64 2.13 5.61 2.15 5.58 2.15C4.69 2.44 3.91 2.9 3.24 3.51C2.57 4.13 2.05 4.86 1.68 5.7C1.3 6.54 1.12 7.42 1.12 8.35C1.12 9.53 1.41 10.63 2 11.64C2.58 12.64 3.38 13.44 4.38 14.03C5.38 14.62 6.47 14.91 7.66 14.91Z" fill="#000000" fill-opacity="0.901961" fill-rule="nonzero"/>
			<path id="path" d="M14.06 8.79C14.28 8.79 14.48 8.71 14.64 8.54C14.81 8.37 14.88 8.17 14.88 7.95C14.82 6.72 14.48 5.59 13.86 4.57C13.24 3.55 12.41 2.72 11.39 2.1C10.36 1.47 9.23 1.14 8.01 1.08C7.78 1.08 7.58 1.16 7.41 1.32C7.24 1.47 7.16 1.67 7.16 1.9L7.16 7.72C7.16 8.02 7.27 8.27 7.47 8.48C7.68 8.69 7.94 8.79 8.23 8.79L14.06 8.79ZM8.15 2.09C9.17 2.16 10.09 2.46 10.93 2.98C11.77 3.5 12.45 4.18 12.97 5.02C13.49 5.86 13.79 6.78 13.87 7.79L8.23 7.79C8.22 7.78 8.15 7.73 8.15 7.71L8.15 2.09Z" fill="#000000" fill-opacity="0.901961" fill-rule="nonzero"/>
		</g>
	</g>
</svg>
