<!--
  -   Copyright (c) 2025 Huawei Device Co., Ltd.
  -   Licensed under the Apache License, Version 2.0 (the "License");
  -   you may not use this file except in compliance with the License.
  -   You may obtain a copy of the License at
  -
  -       http://www.apache.org/licenses/LICENSE-2.0
  -
  -   Unless required by applicable law or agreed to in writing, software
  -   distributed under the License is distributed on an "AS IS" BASIS,
  -   WITHOUT WARRANTIES OR CONDITIONS OF ANY KIND, either express or implied.
  -   See the License for the specific language governing permissions and
  -   limitations under the License.
  -->

<svg width="24.000000" height="24.000000" viewBox="0 0 24 24" fill="none" xmlns="http://www.w3.org/2000/svg" xmlns:xlink="http://www.w3.org/1999/xlink">
	<desc>
			Created with Pixso.
	</desc>

	<g clip-path="url(#clip57_1588)">
		<g opacity="0.000000">
			<rect id="rect" width="24.000000" height="24.000000" fill="#000000" fill-opacity="1.000000"/>
		</g>
		<path id="path" d="M11.93 23.1C13.92 23.1 15.76 22.6 17.45 21.61C19.16 20.62 20.5 19.28 21.49 17.58C22.48 15.88 22.98 14.04 22.98 12.06C22.98 10.06 22.48 8.21 21.49 6.52C20.5 4.81 19.16 3.47 17.46 2.48C15.78 1.49 13.93 1 11.93 1C9.88 1 7.96 1.53 6.18 2.6C4.42 3.67 3.06 5.13 2.13 6.96C2.05 7.16 2.03 7.35 2.08 7.55C2.14 7.74 2.26 7.88 2.45 7.97C2.64 8.07 2.82 8.09 3.03 8.03C3.22 7.96 3.37 7.84 3.46 7.67C4.28 6.06 5.44 4.81 6.96 3.89C8.48 2.96 10.14 2.51 11.93 2.51C13.66 2.51 15.26 2.93 16.73 3.79C18.19 4.65 19.35 5.81 20.2 7.27C21.06 8.73 21.49 10.33 21.49 12.06C21.49 13.78 21.06 15.38 20.2 16.85C19.35 18.31 18.19 19.47 16.73 20.33C15.26 21.18 13.66 21.61 11.93 21.61C10.14 21.61 8.48 21.15 6.96 20.23C5.44 19.31 4.28 18.04 3.46 16.45C3.37 16.26 3.22 16.13 3.03 16.06C2.82 16 2.64 16.02 2.45 16.12C2.26 16.21 2.14 16.36 2.08 16.56C2.03 16.76 2.05 16.95 2.13 17.15C3.06 18.99 4.42 20.44 6.18 21.51C7.96 22.56 9.88 23.1 11.93 23.1ZM2.51 10.55C2.09 10.55 1.73 10.69 1.43 10.99C1.14 11.29 1 11.64 1 12.06C1 12.48 1.14 12.83 1.43 13.13C1.73 13.42 2.09 13.56 2.51 13.56C2.92 13.56 3.27 13.42 3.56 13.13C3.85 12.83 4 12.48 4 12.06C4 11.64 3.85 11.29 3.56 10.99C3.27 10.69 2.92 10.55 2.51 10.55Z" fill="#000000" fill-opacity="0.901961" fill-rule="nonzero"/>
		<g clip-path="url(#clip57_1580)">
			<g opacity="0.000000">
				<rect id="rect" x="6.000000" y="6.000000" width="12.000000" height="12.000000" fill="#000000" fill-opacity="1.000000"/>
			</g>
			<path id="path" d="M14.25 7.75C14.04 7.75 13.87 7.82 13.72 7.96C13.57 8.11 13.5 8.28 13.5 8.49L13.5 15.5C13.5 15.71 13.57 15.88 13.72 16.03C13.87 16.17 14.04 16.25 14.25 16.25C14.46 16.25 14.64 16.17 14.78 16.02C14.92 15.87 15 15.7 15 15.5L15 8.49C15 8.28 14.92 8.11 14.78 7.96C14.64 7.82 14.46 7.75 14.25 7.75ZM9.75 7.75C9.54 7.75 9.37 7.82 9.21 7.96C9.07 8.11 9 8.28 9 8.49L9 15.5C9 15.71 9.07 15.88 9.21 16.03C9.37 16.17 9.54 16.25 9.75 16.25C9.96 16.25 10.14 16.17 10.28 16.02C10.42 15.87 10.5 15.7 10.5 15.5L10.5 8.49C10.5 8.28 10.42 8.11 10.28 7.96C10.14 7.82 9.96 7.75 9.75 7.75Z" fill="#000000" fill-opacity="0.901961" fill-rule="nonzero"/>
		</g>
	</g>
</svg>
