<!--
  -   Copyright (c) 2025 Huawei Device Co., Ltd.
  -   Licensed under the Apache License, Version 2.0 (the "License");
  -   you may not use this file except in compliance with the License.
  -   You may obtain a copy of the License at
  -
  -       http://www.apache.org/licenses/LICENSE-2.0
  -
  -   Unless required by applicable law or agreed to in writing, software
  -   distributed under the License is distributed on an "AS IS" BASIS,
  -   WITHOUT WARRANTIES OR CONDITIONS OF ANY KIND, either express or implied.
  -   See the License for the specific language governing permissions and
  -   limitations under the License.
  -->

<svg width="24.000000" height="24.000000" viewBox="0 0 24 24" fill="none" xmlns="http://www.w3.org/2000/svg" xmlns:xlink="http://www.w3.org/1999/xlink">
	<desc>
			Created with Pixso.
	</desc>
	<defs>
		<clipPath id="clip12_2079">
			<rect id="media_sound" width="24.000000" height="24.000000" fill="white" fill-opacity="0"/>
		</clipPath>
	</defs>
	<g clip-path="url(#clip12_2079)">
		<g opacity="0.000000">
			<rect id="rect" width="24.000000" height="24.000000" fill="#000000" fill-opacity="1.000000"/>
		</g>
		<path id="path" d="M13.73 13.92C13.73 14.16 13.8 14.36 13.96 14.53C14.1 14.69 14.29 14.8 14.53 14.86C14.76 14.9 14.98 14.87 15.19 14.76L18.5 12.84C18.71 12.72 18.85 12.56 18.92 12.34C18.99 12.11 18.99 11.89 18.92 11.68C18.85 11.46 18.71 11.28 18.5 11.16L15.19 9.24C14.98 9.12 14.76 9.09 14.53 9.13C14.29 9.17 14.1 9.28 13.96 9.46C13.8 9.63 13.73 9.84 13.73 10.08L13.73 13.92Z" fill="#000000" fill-opacity="0.901961" fill-rule="nonzero"/>
		<path id="path" d="M6.71 15.34C6.92 15.34 7.1 15.26 7.25 15.11C7.39 14.95 7.46 14.77 7.46 14.57L7.46 8.44C7.46 8.24 7.39 8.06 7.25 7.91C7.1 7.77 6.92 7.69 6.71 7.69C6.51 7.69 6.33 7.77 6.19 7.91C6.04 8.06 5.97 8.24 5.97 8.44L5.97 14.57C5.97 14.77 6.04 14.95 6.19 15.11C6.33 15.26 6.51 15.34 6.71 15.34ZM1.05 11.66C1.05 11.87 1.13 12.05 1.27 12.19C1.41 12.33 1.59 12.41 1.79 12.41C2 12.41 2.18 12.33 2.33 12.19C2.46 12.05 2.53 11.87 2.53 11.66C2.53 11.45 2.46 11.28 2.33 11.14C2.18 10.99 2 10.92 1.79 10.92C1.59 10.92 1.41 10.99 1.27 11.14C1.13 11.28 1.05 11.45 1.05 11.66ZM3.54 12.82C3.54 13.02 3.62 13.2 3.77 13.34C3.9 13.48 4.08 13.56 4.29 13.56C4.5 13.56 4.67 13.48 4.82 13.34C4.96 13.2 5.03 13.02 5.03 12.82L5.03 10.5C5.03 10.3 4.96 10.12 4.82 9.97C4.67 9.83 4.5 9.76 4.29 9.76C4.08 9.76 3.9 9.83 3.77 9.97C3.62 10.12 3.54 10.3 3.54 10.5L3.54 12.82ZM8.9 15.96C8.9 16.5 9.03 17 9.31 17.45C9.58 17.91 9.94 18.27 10.4 18.54C10.86 18.82 11.36 18.95 11.9 18.95L19.92 18.95C20.46 18.95 20.97 18.82 21.43 18.54C21.89 18.27 22.26 17.91 22.52 17.45C22.78 17 22.92 16.5 22.92 15.96L22.92 8.03C22.92 7.49 22.78 6.99 22.52 6.53C22.26 6.08 21.89 5.72 21.43 5.44C20.97 5.17 20.46 5.03 19.92 5.03L11.9 5.03C11.36 5.03 10.86 5.17 10.4 5.44C9.94 5.72 9.58 6.08 9.31 6.53C9.03 6.99 8.9 7.49 8.9 8.03L8.9 15.96ZM10.42 8.03C10.42 7.62 10.56 7.26 10.86 6.96C11.15 6.67 11.5 6.52 11.9 6.52L19.92 6.52C20.33 6.52 20.69 6.67 20.99 6.96C21.28 7.26 21.43 7.62 21.43 8.03L21.43 15.96C21.43 16.37 21.28 16.72 20.99 17.02C20.69 17.3 20.33 17.45 19.92 17.45L11.9 17.45C11.5 17.45 11.15 17.29 10.86 17C10.56 16.7 10.42 16.36 10.42 15.96L10.42 8.03Z" fill="#000000" fill-opacity="0.901961" fill-rule="nonzero"/>
	</g>
</svg>
