<!--
  -   Copyright (c) 2025 Huawei Device Co., Ltd.
  -   Licensed under the Apache License, Version 2.0 (the "License");
  -   you may not use this file except in compliance with the License.
  -   You may obtain a copy of the License at
  -
  -       http://www.apache.org/licenses/LICENSE-2.0
  -
  -   Unless required by applicable law or agreed to in writing, software
  -   distributed under the License is distributed on an "AS IS" BASIS,
  -   WITHOUT WARRANTIES OR CONDITIONS OF ANY KIND, either express or implied.
  -   See the License for the specific language governing permissions and
  -   limitations under the License.
  -->

<svg width="24.000000" height="24.000000" viewBox="0 0 24 24" fill="none" xmlns="http://www.w3.org/2000/svg" xmlns:xlink="http://www.w3.org/1999/xlink">
	<desc>
			Created with Pixso.
	</desc>
	<defs>
		<clipPath id="clip12_2277">
			<rect id="media_center" width="24.000000" height="24.000000" fill="white" fill-opacity="0"/>
		</clipPath>
	</defs>
	<g clip-path="url(#clip12_2277)">
		<g opacity="0.000000">
			<rect id="rect" width="24.000000" height="24.000000" fill="#000000" fill-opacity="1.000000"/>
		</g>
		<path id="path" d="M11.04 8.13C10.78 7.99 10.52 7.94 10.26 8C9.99 8.06 9.77 8.18 9.59 8.38C9.4 8.58 9.31 8.83 9.31 9.12L9.31 15.1C9.31 15.38 9.4 15.63 9.59 15.84C9.77 16.04 9.99 16.17 10.26 16.21C10.52 16.27 10.78 16.22 11.04 16.08L16.22 13.1C16.46 12.96 16.62 12.75 16.72 12.5C16.8 12.24 16.8 11.98 16.72 11.72C16.62 11.46 16.46 11.25 16.22 11.11L11.04 8.13Z" fill="#000000" fill-opacity="0.901961" fill-rule="nonzero"/>
		<path id="path" d="M11.95 23.11C13.93 23.11 15.77 22.61 17.46 21.62C19.17 20.63 20.51 19.29 21.5 17.59C22.49 15.89 22.99 14.05 22.99 12.07C22.99 10.07 22.49 8.22 21.5 6.53C20.51 4.83 19.17 3.48 17.48 2.5C15.79 1.5 13.95 1.01 11.95 1.01C9.89 1.01 7.97 1.54 6.19 2.62C4.43 3.68 3.07 5.14 2.14 6.97C2.06 7.17 2.04 7.36 2.09 7.56C2.15 7.75 2.27 7.89 2.46 7.98C2.65 8.09 2.83 8.1 3.04 8.04C3.23 7.97 3.38 7.85 3.47 7.67C4.29 6.08 5.45 4.82 6.97 3.9C8.5 2.97 10.15 2.52 11.95 2.52C13.67 2.52 15.27 2.94 16.74 3.79C18.2 4.66 19.36 5.82 20.21 7.28C21.07 8.74 21.5 10.34 21.5 12.07C21.5 13.79 21.07 15.39 20.21 16.86C19.36 18.32 18.2 19.48 16.74 20.34C15.27 21.19 13.67 21.62 11.95 21.62C10.15 21.62 8.5 21.16 6.97 20.24C5.45 19.32 4.29 18.06 3.47 16.45C3.38 16.27 3.23 16.14 3.04 16.08C2.83 16.01 2.65 16.03 2.46 16.12C2.27 16.22 2.15 16.37 2.09 16.57C2.04 16.77 2.06 16.96 2.14 17.16C3.07 19 4.43 20.45 6.19 21.52C7.97 22.58 9.89 23.11 11.95 23.11ZM2.52 10.56C2.1 10.56 1.75 10.7 1.44 11C1.15 11.3 1.01 11.65 1.01 12.07C1.01 12.49 1.15 12.84 1.44 13.14C1.75 13.43 2.1 13.58 2.52 13.58C2.93 13.58 3.28 13.43 3.57 13.14C3.86 12.84 4.01 12.49 4.01 12.07C4.01 11.65 3.86 11.3 3.57 11C3.28 10.7 2.93 10.56 2.52 10.56Z" fill="#000000" fill-opacity="0.901961" fill-rule="nonzero"/>
	</g>
</svg>
