<!--
  -   Copyright (c) 2025 Huawei Device Co., Ltd.
  -   Licensed under the Apache License, Version 2.0 (the "License");
  -   you may not use this file except in compliance with the License.
  -   You may obtain a copy of the License at
  -
  -       http://www.apache.org/licenses/LICENSE-2.0
  -
  -   Unless required by applicable law or agreed to in writing, software
  -   distributed under the License is distributed on an "AS IS" BASIS,
  -   WITHOUT WARRANTIES OR CONDITIONS OF ANY KIND, either express or implied.
  -   See the License for the specific language governing permissions and
  -   limitations under the License.
  -->

<svg width="16.000000" height="16.000000" viewBox="0 0 16 16" fill="none" xmlns="http://www.w3.org/2000/svg" xmlns:xlink="http://www.w3.org/1999/xlink">
	<desc>
			Created with Pixso.
	</desc>
	<defs>
		<clipPath id="clip12_2220">
			<rect id="smart_dock_display" width="16.000000" height="16.000000" transform="translate(16.000000 0.000000) rotate(90.000000)" fill="white" fill-opacity="0"/>
		</clipPath>
	</defs>
	<g opacity="0.600000">
		<g clip-path="url(#clip12_2220)">
			<g opacity="0.000000">
				<rect id="rect" x="16.000000" width="16.000000" height="16.000000" transform="rotate(90 16.000000 0.000000)" fill="#000000" fill-opacity="1.000000"/>
			</g>
			<path id="path" d="M9.79 8.81C9.87 8.76 9.93 8.69 9.97 8.61C10 8.53 10 8.44 9.97 8.35C9.93 8.27 9.87 8.2 9.79 8.15L6.64 6.06C6.55 6.01 6.46 5.99 6.35 6C6.25 6.02 6.16 6.06 6.1 6.13C6.03 6.2 6 6.28 6 6.37L6 10.61C6 10.7 6.03 10.78 6.1 10.85C6.16 10.93 6.25 10.97 6.35 10.99C6.46 11.01 6.55 10.99 6.64 10.94L9.79 8.81Z" fill="#000000" fill-opacity="0.901961" fill-rule="nonzero"/>
			<path id="path" d="M13.09 12.2C13.09 12.44 13 12.65 12.83 12.83C12.65 13 12.44 13.09 12.2 13.09L3.79 13.09C3.55 13.09 3.35 13 3.17 12.83C2.99 12.65 2.9 12.44 2.9 12.2L2.9 3.79C2.9 3.55 2.99 3.34 3.16 3.16C3.34 2.99 3.55 2.9 3.79 2.9L12.2 2.9C12.44 2.9 12.65 2.99 12.83 3.16C13 3.34 13.09 3.55 13.09 3.79L13.09 12.2ZM14 3.79C14 3.48 13.91 3.18 13.75 2.9C13.59 2.62 13.37 2.4 13.09 2.24C12.81 2.08 12.51 2 12.2 2L3.79 2C3.48 2 3.18 2.08 2.9 2.24C2.62 2.4 2.4 2.62 2.24 2.9C2.08 3.18 2 3.48 2 3.79L2 12.2C2 12.51 2.08 12.81 2.24 13.09C2.4 13.37 2.62 13.59 2.9 13.75C3.18 13.91 3.48 14 3.79 14L12.2 14C12.51 14 12.81 13.91 13.09 13.75C13.37 13.59 13.59 13.37 13.75 13.09C13.91 12.81 14 12.51 14 12.2L14 3.79Z" fill="#000000" fill-opacity="0.901961" fill-rule="nonzero"/>
		</g>
	</g>
</svg>
