<?xml version="1.0" encoding="UTF-8"?>
<!--
  - /*
  -    Copyright (c) 2025 Huawei Device Co., Ltd.
  -    Licensed under the Apache License, Version 2.0 (the "License");
  -    you may not use this file except in compliance with the License.
  -    You may obtain a copy of the License at
  -    http://www.apache.org/licenses/LICENSE-2.0
  -    Unless required by applicable law or agreed to in writing, software
  -    distributed under the License is distributed on an "AS IS" BASIS,
  -    WITHOUT WARRANTIES OR CONDITIONS OF ANY KIND, either express or implied.
  -    See the License for the specific language governing permissions and
  -    limitations under the License.
  -  */
  -
  -->

<svg width="32px" height="32px" viewBox="0 0 32 32" version="1.1" xmlns="http://www.w3.org/2000/svg" xmlns:xlink="http://www.w3.org/1999/xlink">
    <title>编组 4备份 3</title>
    <g id="方特" stroke="none" stroke-width="1" fill="none" fill-rule="evenodd">
        <g id="首页" transform="translate(-230.000000, -406.000000)" fill-rule="nonzero">
            <g id="编组-5" transform="translate(12.000000, 298.000000)">
                <g id="提醒" transform="translate(218.000000, 108.000000)">
                    <path d="M0,16 C0,24.836556 7.163444,32 16,32 C24.836556,32 32,24.836556 32,16 C32,7.163444 24.836556,0 16,0 C7.163444,0 0,7.163444 0,16 Z" id="路径" fill="#FAA01F"></path>
                    <path d="M10.1377744,20.4693414 C15.7903164,20.4693414 20.3724451,15.8871158 20.3724451,10.2346707 C20.3724451,5.48035731 17.1307797,1.48319153 12.7371385,0.332984094 C6.43168509,1.63948525 1.48428159,6.65679941 0.280853906,12.9994368 C1.48711581,17.308754 5.44322181,20.4693414 10.1377744,20.4693414 Z" id="路径" fill-opacity="0.2" fill="#FFFFFF"></path>
                    <path d="M16,32 C24.8364572,32 32,24.8364572 32,16 C32,15.0073217 31.9096442,14.0358153 31.7364421,13.0931597 C29.0017865,10.5031219 25.3085844,8.91445875 21.2445117,8.91445875 C12.8160363,8.91445875 5.98334594,15.7471249 5.98334594,24.1756245 C5.98334594,25.8931113 6.26722784,27.5444663 6.79029825,29.0851173 C9.39457987,30.9215443 12.571349,32 16,32 Z" id="路径" fill-opacity="0.15" fill="#FFFFFF"></path>
                    <g id="_办会家_排队" transform="translate(9.000000, 8.000000)" fill="#FFFFFF">
                        <path d="M9.26270169,10.5118947 C9.1766526,10.5118947 9.09217503,10.5005835 9.01084046,10.4792402 L9.01084046,13.7404988 C9.06809078,13.7605264 9.12550557,13.7813214 9.18858508,13.7813214 C9.52952878,13.7813214 9.80594937,13.4655401 9.80594937,13.0756604 L9.80594937,10.3360139 C9.74195619,10.3773847 9.67979033,10.4218072 9.60815891,10.4485045 C9.49638098,10.4905514 9.380053,10.5118947 9.26270169,10.5118947 L9.26270169,10.5118947 Z M12.6044725,4.23489789 C12.4517989,3.76275171 12.0178075,3.44534407 11.5240257,3.44534407 L9.75829253,3.44534407 C9.43648101,3.44534407 9.14920607,3.58968507 8.9394283,3.81439214 C8.90014066,3.8677137 8.85772826,3.91851355 8.81347026,3.96783325 C8.78673639,4.00922234 8.76745803,4.05583759 8.74580414,4.10104579 C9.23529169,4.2724313 9.63070817,4.66309671 9.79805528,5.1809262 L10.9414538,8.71845918 C10.9932404,8.87831423 11.0118974,9.043633 10.9975163,9.20670414 C10.9867716,9.33344793 10.9562552,9.45452698 10.9103525,9.56827843 L10.9103525,12.8303959 C10.9103525,13.2092384 11.2153526,13.5163217 11.5919659,13.5163217 C11.9682136,13.5163217 12.2733964,13.2092384 12.2733964,12.8303959 L12.2733964,7.59269445 L12.4671668,8.19226052 C12.5597394,8.47860352 12.8237524,8.66080684 13.1074458,8.66080684 C13.1762997,8.66080684 13.2465972,8.6498063 13.3159445,8.62711082 C13.5812731,8.54020289 13.7564047,8.30339887 13.7786981,8.04044573 C13.7865557,7.95247795 13.7768708,7.86175089 13.7479259,7.77307045 L12.6044725,4.23489789 L12.6044725,4.23489789 Z M9.99935425,2.83128725 C10.1474595,2.88186782 10.303331,2.915308 10.468394,2.915308 C10.6334935,2.915308 10.7895659,2.88186782 10.9376164,2.83128725 C11.5110516,2.63532411 11.9261302,2.09779598 11.9261302,1.4577545 C11.9261302,0.652704893 11.2734984,0 10.4684122,0 C9.66349055,0 9.01085875,0.652723161 9.01085875,1.4577545 C9.01085875,2.09781427 9.42602867,2.63534239 9.99935425,2.83128725 L9.99935425,2.83128725 Z M8.89423837,5.29522584 C8.74141855,4.82282384 8.307354,4.50545273 7.81371839,4.50545273 L6.04800355,4.50545273 C5.72615548,4.50545273 5.438844,4.64977545 5.2290845,4.8745008 C5.18966894,4.92780409 5.14740273,4.97862221 5.10318128,5.02797846 C5.07624641,5.06931273 5.0569315,5.11583661 5.03547862,5.16115446 C5.52500273,5.33241207 5.92027301,5.72320539 6.08780285,6.24107143 L7.23100033,9.77845821 C7.28282348,9.93853254 7.30166328,10.1038148 7.28728217,10.2667032 C7.27653746,10.3934835 7.24605755,10.5147453 7.1999905,10.6282775 L7.1999905,13.8906324 C7.1999905,14.269475 7.50510021,14.5764121 7.88164033,14.5764121 C8.25807083,14.5764121 8.56318053,14.269475 8.56318053,13.8906324 L8.56318055,8.65283966 L8.75695089,9.25246055 C8.84939564,9.53876702 9.11364619,9.72082414 9.39715683,9.72082414 C9.46613864,9.72082414 9.53649094,9.71000634 9.60558237,9.68727432 C9.87111205,9.60040293 10.0460974,9.36352582 10.068336,9.1006275 C10.0762667,9.01258662 10.0665087,8.92193266 10.0376734,8.83323393 L8.89423837,5.29522584 L8.89423837,5.29522584 Z M6.08257667,11.5718206 C5.9963083,11.5718206 5.91205001,11.5605094 5.83056925,11.5391296 L5.83056925,14.8005527 C5.88796576,14.8205802 5.94519782,14.8414118 6.00831387,14.8414118 C6.34925757,14.8414118 6.62562335,14.5255939 6.62562335,14.1357143 L6.62562335,11.396086 C6.56183117,11.4372741 6.4996105,11.4819158 6.42803389,11.5083939 C6.31607323,11.5504408 6.19994625,11.5718206 6.08257667,11.5718206 L6.08257667,11.5718206 Z M6.28904698,3.89134111 C6.43695126,3.94197648 6.59295064,3.97539841 6.75808669,3.97539841 C6.92318619,3.97539841 7.07918557,3.9419765 7.22712641,3.89134111 C7.80059816,3.69537796 8.21580466,3.15784984 8.21580466,2.51780836 C8.21580466,1.71277702 7.56313632,1.06010868 6.75808671,1.06010868 C5.95312848,1.06010868 5.30049667,1.7127953 5.30049667,2.51780836 C5.30049667,3.15786812 5.71553867,3.69539625 6.28904698,3.89134111 L6.28904698,3.89134111 Z M5.16891042,6.62029773 C5.01411708,6.14813329 4.57449744,5.83056118 4.07459408,5.83056118 L2.28611067,5.83056118 C1.7861525,5.83056118 1.34656941,6.14813329 1.1918126,6.62029773 L0.0337771739,10.1582876 C0.00450329891,10.2469863 -0.00532773681,10.3376585 0.00267597748,10.4256811 C0.0252617989,10.688817 0.202421692,10.9254566 0.471405031,11.0123279 C0.54139187,11.03506 0.612603013,11.0460605 0.68248021,11.0460605 C0.969645513,11.0460605 1.23709389,10.8638572 1.3308726,10.5775142 L1.52710983,9.97792984 L1.52710983,15.2156312 C1.52710983,15.5945104 1.8361483,15.9015571 2.21740296,15.9015571 C2.59865762,15.9015571 2.90756817,15.5945104 2.90756817,15.2156312 L2.90756819,11.1172716 L3.45297212,11.1172716 L3.45297212,15.2157774 C3.45297212,15.59462 3.76204714,15.9015571 4.1433018,15.9015571 C4.52457473,15.9015571 4.83346701,15.59462 4.83346701,15.2157774 L4.83346701,9.97791155 L5.02972253,10.5774959 C5.12348296,10.8638389 5.39091307,11.0460422 5.67822457,11.0460422 C5.74812003,11.0460422 5.81914844,11.0350417 5.88935457,11.0123097 C6.15813691,10.9254383 6.3354978,10.688817 6.3580288,10.4256628 C6.36592287,10.3376585 6.35603701,10.246968 6.32694587,10.1582693 L5.16891042,6.62029773 L5.16891042,6.62029773 Z M2.57864833,5.21652264 C2.72658917,5.26712148 2.88260682,5.30054339 3.04766976,5.30054339 C3.2128058,5.30054339 3.36882344,5.26712148 3.51672775,5.21652264 C4.09021778,5.0205595 4.50542426,4.48303137 4.50542426,3.84315436 C4.50542426,3.03797684 3.85260973,2.38525368 3.04766976,2.38525368 C2.24280289,2.38525368 1.59013455,3.03797684 1.59013455,3.84315436 C1.59013455,4.48303137 2.00515832,5.0205595 2.57864833,5.21652264 L2.57864833,5.21652264 Z" id="形状"></path>
                    </g>
                </g>
            </g>
        </g>
    </g>
</svg>