<?xml version="1.0" encoding="UTF-8"?>
<!--
  - /*
  -    Copyright (c) 2025 Huawei Device Co., Ltd.
  -    Licensed under the Apache License, Version 2.0 (the "License");
  -    you may not use this file except in compliance with the License.
  -    You may obtain a copy of the License at
  -    http://www.apache.org/licenses/LICENSE-2.0
  -    Unless required by applicable law or agreed to in writing, software
  -    distributed under the License is distributed on an "AS IS" BASIS,
  -    WITHOUT WARRANTIES OR CONDITIONS OF ANY KIND, either express or implied.
  -    See the License for the specific language governing permissions and
  -    limitations under the License.
  -  */
  -
  -->

<svg width="32px" height="32px" viewBox="0 0 32 32" version="1.1" xmlns="http://www.w3.org/2000/svg" xmlns:xlink="http://www.w3.org/1999/xlink">
    <title>UIicon / HMS</title>
    <defs>
        <path d="M16,32 C7.16355556,32 0,24.8364444 0,16 C0,7.16355556 7.16355556,0 16,0 C24.8364444,0 32,7.16355556 32,16 C32,24.8364444 24.8364444,32 16,32 Z" id="path-1"></path>
    </defs>
    <g id="方特" stroke="none" stroke-width="1" fill="none" fill-rule="evenodd">
        <g id="首页" transform="translate(-33.000000, -326.000000)">
            <g id="编组-5" transform="translate(12.000000, 298.000000)">
                <g id="Group备份-8" transform="translate(4.000000, 28.000000)">
                    <g id="会员-(1)" transform="translate(17.000000, 0.000000)">
                        <g id="路径" fill-rule="nonzero">
                            <use fill="#EC6066" xlink:href="#path-1"></use>
                            <use fill="#458EF8" xlink:href="#path-1"></use>
                        </g>
                        <path d="M10.1377744,20.4693414 C15.7903164,20.4693414 20.3724451,15.8871158 20.3724451,10.2346707 C20.3724451,5.48035731 17.1307797,1.48319153 12.7371385,0.332984094 C6.43168509,1.63948525 1.48428159,6.65679941 0.280853906,12.9994368 C1.48711581,17.308754 5.44322181,20.4693414 10.1377744,20.4693414 Z" id="路径" fill-opacity="0.2" fill="#FFFFFF" fill-rule="nonzero"></path>
                        <path d="M16,32 C24.8364572,32 32,24.8364572 32,16 C32,15.0073217 31.9096442,14.0358153 31.7364421,13.0931597 C29.0017865,10.5031219 25.3085844,8.91445875 21.2445117,8.91445875 C12.8160363,8.91445875 5.98334594,15.7471249 5.98334594,24.1756245 C5.98334594,25.8931113 6.26722784,27.5444663 6.79029825,29.0851173 C9.39457987,30.9215443 12.571349,32 16,32 Z" id="路径" fill-opacity="0.15" fill="#FFFFFF" fill-rule="nonzero"></path>
                        <g id="券_ticket" transform="translate(8.000000, 9.000000)">
                            <polyline id="路径" stroke="#FFFFFF" stroke-linecap="round" stroke-linejoin="round" points="2.000052 4.00004 12 3.2e-05 13.60016 4.00004"></polyline>
                            <path d="M15,4 C15.5522847,4 16,4.44771525 16,5 L16,6.4 C14.8,6.4 13.6,7.2 13.6,8.6 C13.6,10 14.8,11.2 16,11.2 L16,12.6 C16,13.1522847 15.5522847,13.6 15,13.6 L1,13.6 C0.44771525,13.6 6.76353751e-17,13.1522847 0,12.6 L0,11.2 C1.200064,11.2 2.4,10.4 2.4,8.8 C2.4,7.2 1.2,6.4 0,6.4 L0,5 C-6.76353751e-17,4.44771525 0.44771525,4 1,4 L15,4 Z M11.5,10 L4.5,10 C4.22385763,10 4,10.2238576 4,10.5 C4,10.7761424 4.22385763,11 4.5,11 L4.5,11 L11.5,11 C11.7761424,11 12,10.7761424 12,10.5 C12,10.2238576 11.7761424,10 11.5,10 L11.5,10 Z M8.5,7 L4.5,7 C4.22385763,7 4,7.22385763 4,7.5 C4,7.77614237 4.22385763,8 4.5,8 L4.5,8 L8.5,8 C8.77614237,8 9,7.77614237 9,7.5 C9,7.22385763 8.77614237,7 8.5,7 L8.5,7 Z" id="形状结合" fill="#FFFFFF" fill-rule="nonzero"></path>
                        </g>
                    </g>
                </g>
            </g>
        </g>
    </g>
</svg>