<?xml version="1.0" encoding="UTF-8"?>
<!--
  - /*
  -    Copyright (c) 2025 Huawei Device Co., Ltd.
  -    Licensed under the Apache License, Version 2.0 (the "License");
  -    you may not use this file except in compliance with the License.
  -    You may obtain a copy of the License at
  -    http://www.apache.org/licenses/LICENSE-2.0
  -    Unless required by applicable law or agreed to in writing, software
  -    distributed under the License is distributed on an "AS IS" BASIS,
  -    WITHOUT WARRANTIES OR CONDITIONS OF ANY KIND, either express or implied.
  -    See the License for the specific language governing permissions and
  -    limitations under the License.
  -  */
  -
  -->

<svg width="32px" height="32px" viewBox="0 0 32 32" version="1.1" xmlns="http://www.w3.org/2000/svg" xmlns:xlink="http://www.w3.org/1999/xlink">
    <title>UIicon / HMS</title>
    <g id="方特" stroke="none" stroke-width="1" fill="none" fill-rule="evenodd">
        <g id="首页" transform="translate(-99.000000, -326.000000)" fill-rule="nonzero">
            <g id="编组-5" transform="translate(12.000000, 298.000000)">
                <g id="Group备份-7" transform="translate(70.000000, 28.000000)">
                    <g id="会员-(1)" transform="translate(17.000000, 0.000000)">
                        <path d="M16,32 C7.16355556,32 0,24.8364444 0,16 C0,7.16355556 7.16355556,0 16,0 C24.8364444,0 32,7.16355556 32,16 C32,24.8364444 24.8364444,32 16,32 Z" id="路径" fill="#EB8704"></path>
                        <path d="M10.1377744,20.4693414 C15.7903164,20.4693414 20.3724451,15.8871158 20.3724451,10.2346707 C20.3724451,5.48035731 17.1307797,1.48319153 12.7371385,0.332984094 C6.43168509,1.63948525 1.48428159,6.65679941 0.280853906,12.9994368 C1.48711581,17.308754 5.44322181,20.4693414 10.1377744,20.4693414 Z" id="路径" fill-opacity="0.2" fill="#FFFFFF"></path>
                        <path d="M16,32 C24.8364572,32 32,24.8364572 32,16 C32,15.0073217 31.9096442,14.0358153 31.7364421,13.0931597 C29.0017865,10.5031219 25.3085844,8.91445875 21.2445117,8.91445875 C12.8160363,8.91445875 5.98334594,15.7471249 5.98334594,24.1756245 C5.98334594,25.8931113 6.26722784,27.5444663 6.79029825,29.0851173 C9.39457987,30.9215443 12.571349,32 16,32 Z" id="路径" fill-opacity="0.15" fill="#FFFFFF"></path>
                        <g id="年卡" transform="translate(7.000000, 9.000000)" fill="#FFFFFF">
                            <path d="M17.9322388,1.52485714 C17.9322388,0.692758929 17.2576406,0.0181607143 16.4255424,0.0181607143 L1.51025223,0.0181607143 C0.678154018,0.0181607143 0.00355580357,0.692758929 0.00355580357,1.52485714 L0.00355580357,11.3479152 C0.00355580357,12.1800134 0.678154018,12.8546116 1.51025223,12.8546116 L16.4255424,12.8546116 C17.2576406,12.8546116 17.9322388,12.1800134 17.9322388,11.3479152 L17.9322388,1.52485714 Z M17.2466518,3.91526116 L2.6250067,3.91526116 C2.58081027,3.91526116 2.54464955,3.87910045 2.54464955,3.83490402 L2.54464955,2.63979241 C2.54464955,2.59539509 2.58081027,2.55943527 2.6250067,2.55943527 L17.2466518,2.55943527 L17.2466518,3.91526116 Z M15.7310558,7.92668973 L15.2318371,9.7895692 C15.1836228,9.9693683 15.0202969,10.0949263 14.834471,10.0949263 C14.7985112,10.0949263 14.7625513,10.0901049 14.7273951,10.0806629 C14.5080201,10.0220022 14.3774397,9.79559598 14.4363013,9.57642187 L14.9353192,7.71354241 C14.9835335,7.5337433 15.1470603,7.40798437 15.3328862,7.40798437 C15.3686451,7.40798437 15.4046049,7.4128058 15.4397612,7.42224777 C15.6591362,7.48110937 15.7897165,7.70733482 15.7310558,7.92668973 Z M12.9989129,7.92668973 L12.4998951,9.7895692 C12.4516808,9.9693683 12.288154,10.0949263 12.102529,10.0949263 C12.0665692,10.0949263 12.0306094,10.0901049 11.9954531,10.0806629 C11.7760781,10.0220022 11.6454978,9.79559598 11.7041585,9.57642187 L12.2033772,7.71354241 C12.2515915,7.5337433 12.4149174,7.40798437 12.6007433,7.40798437 C12.6367031,7.40798437 12.6726629,7.4128058 12.7078192,7.42224777 C12.9271942,7.48110937 13.0577746,7.70733482 12.9989129,7.92668973 Z M10.1564799,7.92668973 L9.65726116,9.7895692 C9.60904688,9.9693683 9.44572098,10.0949263 9.25989509,10.0949263 C9.22413616,10.0949263 9.18817634,10.0901049 9.15302009,10.0806629 C8.93364509,10.0220022 8.80286384,9.79559598 8.86172545,9.57642187 L9.3609442,7.71354241 C9.40915848,7.5337433 9.57248438,7.40798437 9.75831027,7.40798437 C9.7940692,7.40798437 9.83002902,7.4128058 9.86518527,7.42224777 C10.0845603,7.48110937 10.2153415,7.70733482 10.1564799,7.92668973 Z" id="形状"></path>
                        </g>
                    </g>
                </g>
            </g>
        </g>
    </g>
</svg>