<?xml version="1.0" encoding="UTF-8"?>
<!--
  - /*
  -    Copyright (c) 2025 Huawei Device Co., Ltd.
  -    Licensed under the Apache License, Version 2.0 (the "License");
  -    you may not use this file except in compliance with the License.
  -    You may obtain a copy of the License at
  -    http://www.apache.org/licenses/LICENSE-2.0
  -    Unless required by applicable law or agreed to in writing, software
  -    distributed under the License is distributed on an "AS IS" BASIS,
  -    WITHOUT WARRANTIES OR CONDITIONS OF ANY KIND, either express or implied.
  -    See the License for the specific language governing permissions and
  -    limitations under the License.
  -  */
  -
  -->

<svg width="32px" height="32px" viewBox="0 0 36 36" version="1.1" xmlns="http://www.w3.org/2000/svg" xmlns:xlink="http://www.w3.org/1999/xlink">
    <title>UIicon / HMS</title>
    <g id="方特" stroke="none" stroke-width="1" fill="none" fill-rule="evenodd">
        <g id="首页" transform="translate(-160.000000, -322.000000)" fill-rule="nonzero">
            <g id="编组-5" transform="translate(12.000000, 298.000000)">
                <g id="Group备份-5" transform="translate(135.000000, 24.000000)">
                    <g id="UIicon-/-HMS" transform="translate(13.000000, 0.000000)">
                        <g id="会员-(1)" transform="translate(4.000000, 4.000000)">
                            <path d="M16,32 C7.16355556,32 0,24.8364444 0,16 C0,7.16355556 7.16355556,0 16,0 C24.8364444,0 32,7.16355556 32,16 C32,24.8364444 24.8364444,32 16,32 Z" id="路径" fill="#8D78FB"></path>
                            <path d="M10.1377744,20.4693414 C15.7903164,20.4693414 20.3724451,15.8871158 20.3724451,10.2346707 C20.3724451,5.48035731 17.1307797,1.48319153 12.7371385,0.332984094 C6.43168509,1.63948525 1.48428159,6.65679941 0.280853906,12.9994368 C1.48711581,17.308754 5.44322181,20.4693414 10.1377744,20.4693414 Z" id="路径" fill-opacity="0.2" fill="#FFFFFF"></path>
                            <path d="M16,32 C24.8364572,32 32,24.8364572 32,16 C32,15.0073217 31.9096442,14.0358153 31.7364421,13.0931597 C29.0017865,10.5031219 25.3085844,8.91445875 21.2445117,8.91445875 C12.8160363,8.91445875 5.98334594,15.7471249 5.98334594,24.1756245 C5.98334594,25.8931113 6.26722784,27.5444663 6.79029825,29.0851173 C9.39457987,30.9215443 12.571349,32 16,32 Z" id="路径" fill-opacity="0.15" fill="#FFFFFF"></path>
                            <path d="M11.5990519,12.004491 L11.5990519,11.2060878 L16.3894711,11.2060878 L16.3894711,12.004491 L11.5990519,12.004491 Z M11.5990519,14.3997006 L11.5990519,13.6012974 L16.3894711,13.6012974 L16.3894711,14.3997006 L11.5990519,14.3997006 Z M11.5990519,16.7949102 L11.5990519,15.996507 L16.3894711,15.996507 L16.3894711,16.7949102 L11.5990519,16.7949102 Z M11.5990519,19.1901198 L11.5990519,18.3917166 L16.3894711,18.3917166 L16.3894711,19.1901198 L11.5990519,19.1901198 Z M23.1758982,22.3837325 L23.1758982,13.2020958 C23.1758982,12.9816229 22.9971696,12.8028942 22.7766966,12.8028942 L20.381487,12.8028942 C20.2756122,12.8028942 20.1740737,12.8449528 20.0992089,12.9198177 C20.024344,12.9946825 19.9822854,13.096221 19.9822854,13.2020958 L19.9822854,22.3837325 L19.1838822,22.3837325 L19.1838822,8.81207584 C19.1838842,8.37140222 18.8273483,8.0137951 18.3866766,8.01247506 L9.60184631,8.01247506 C9.39009655,8.01279244 9.18714561,8.09721422 9.03764051,8.2471685 C8.88813541,8.39712279 8.80432286,8.60032608 8.80464072,8.81207584 L8.80464072,22.3837325 L8.00623752,22.3837325 L8.00623752,23.1821357 L23.9743014,23.1821357 L23.9743014,22.3837325 L23.1758982,22.3837325 Z" id="形状" fill="#FFFFFF"></path>
                        </g>
                    </g>
                </g>
            </g>
        </g>
    </g>
</svg>