<?xml version="1.0" encoding="UTF-8"?>
<!--
  - /*
  -    Copyright (c) 2025 Huawei Device Co., Ltd.
  -    Licensed under the Apache License, Version 2.0 (the "License");
  -    you may not use this file except in compliance with the License.
  -    You may obtain a copy of the License at
  -    http://www.apache.org/licenses/LICENSE-2.0
  -    Unless required by applicable law or agreed to in writing, software
  -    distributed under the License is distributed on an "AS IS" BASIS,
  -    WITHOUT WARRANTIES OR CONDITIONS OF ANY KIND, either express or implied.
  -    See the License for the specific language governing permissions and
  -    limitations under the License.
  -  */
  -
  -->

<svg width="32px" height="32px" viewBox="0 0 32 32" version="1.1" xmlns="http://www.w3.org/2000/svg" xmlns:xlink="http://www.w3.org/1999/xlink">
    <title>UIicon / HMS</title>
    <g id="方特" stroke="none" stroke-width="1" fill="none" fill-rule="evenodd">
        <g id="首页" transform="translate(-230.000000, -326.000000)" fill-rule="nonzero">
            <g id="编组-5" transform="translate(12.000000, 298.000000)">
                <g id="Group备份-3" transform="translate(201.000000, 28.000000)">
                    <g id="会员-(1)" transform="translate(17.000000, 0.000000)">
                        <path d="M16,32 C7.16355556,32 0,24.8364444 0,16 C0,7.16355556 7.16355556,0 16,0 C24.8364444,0 32,7.16355556 32,16 C32,24.8364444 24.8364444,32 16,32 Z M24.8888889,13.3991111 C24.8856392,12.8091504 24.6523603,12.243732 24.2386667,11.8231111 C23.8209279,11.4043339 23.2537288,11.1689798 22.6622222,11.1689798 C22.0707156,11.1689798 21.5035166,11.4043339 21.0857778,11.8231111 C20.6546715,12.2319999 20.4181857,12.8051912 20.4355556,13.3991111 C20.4255054,13.9916681 20.6608229,14.5620275 21.0857778,14.9751111 C21.1631111,15.0693333 21.2564444,15.1493333 21.3613333,15.2115556 C20.5925435,15.9858058 19.4060452,16.1621258 18.4453333,15.6448889 C17.7200745,15.2499982 17.1710376,14.5953773 16.9084444,13.8124444 C16.8881549,13.2759146 16.9410865,12.7391226 17.0657778,12.2168889 C17.7838574,11.8215519 18.2294997,11.0663791 18.2284444,10.2466667 C18.2316359,9.65542916 17.9973834,9.08765092 17.5782222,8.67066666 C17.1658134,8.24199805 16.5966204,7.99975946 16.0017778,7.99975946 C15.4069351,7.99975946 14.8377421,8.24199805 14.4253333,8.67066666 C14.0098652,9.09011195 13.7762736,9.65628818 13.7751111,10.2466667 C13.7782452,10.8367815 14.0115328,11.4023803 14.4253333,11.8231111 C14.6013333,11.9888889 14.8004445,12.1284445 15.0164444,12.2364444 C15.1504239,12.7303709 15.1906739,13.2450277 15.1351111,13.7537778 C14.8744223,14.5535728 14.3172961,15.2231421 13.5782222,15.6248889 C12.5939711,16.1403739 11.3889843,15.9569711 10.6026667,15.172 C11.196171,14.7506753 11.5486838,14.0678474 11.5484444,13.34 C11.5164163,12.1412912 10.5408698,11.1832318 9.34177778,11.1728889 C8.75169123,11.1761639 8.18614343,11.4094304 7.76533334,11.8231111 C7.34660993,12.240698 7.11127778,12.8077499 7.11127778,13.3991111 C7.11127778,13.9904723 7.34660993,14.5575243 7.76533334,14.9751111 C8.03256385,15.2454309 8.36507861,15.4421535 8.73066666,15.5462222 L10.5831111,23.2688889 C10.6812779,23.6581864 11.0287792,23.9329422 11.4302222,23.938674 L20.5733333,23.938674 C20.9774563,23.9403211 21.329083,23.6624493 21.4208889,23.2688889 L23.2728889,15.5462222 C24.2275735,15.267319 24.8850978,14.3936941 24.8888889,13.3991111 L24.8888889,13.3991111 Z" id="形状" fill="#D7A26A"></path>
                        <path d="M10.1377744,20.4693414 C15.7903164,20.4693414 20.3724451,15.8871158 20.3724451,10.2346707 C20.3724451,5.48035731 17.1307797,1.48319153 12.7371385,0.332984094 C6.43168509,1.63948525 1.48428159,6.65679941 0.280853906,12.9994368 C1.48711581,17.308754 5.44322181,20.4693414 10.1377744,20.4693414 Z" id="路径" fill-opacity="0.2" fill="#FFFFFF"></path>
                        <path d="M16,32 C24.8364572,32 32,24.8364572 32,16 C32,15.0073217 31.9096442,14.0358153 31.7364421,13.0931597 C29.0017865,10.5031219 25.3085844,8.91445875 21.2445117,8.91445875 C12.8160363,8.91445875 5.98334594,15.7471249 5.98334594,24.1756245 C5.98334594,25.8931113 6.26722784,27.5444663 6.79029825,29.0851173 C9.39457987,30.9215443 12.571349,32 16,32 Z" id="路径" fill-opacity="0.15" fill="#FFFFFF"></path>
                    </g>
                </g>
            </g>
        </g>
    </g>
</svg>