<?xml version="1.0" encoding="UTF-8"?>
<!--
  - /*
  -    Copyright (c) 2025 Huawei Device Co., Ltd.
  -    Licensed under the Apache License, Version 2.0 (the "License");
  -    you may not use this file except in compliance with the License.
  -    You may obtain a copy of the License at
  -    http://www.apache.org/licenses/LICENSE-2.0
  -    Unless required by applicable law or agreed to in writing, software
  -    distributed under the License is distributed on an "AS IS" BASIS,
  -    WITHOUT WARRANTIES OR CONDITIONS OF ANY KIND, either express or implied.
  -    See the License for the specific language governing permissions and
  -    limitations under the License.
  -  */
  -
  -->

<svg width="32px" height="32px" viewBox="0 0 32 32" version="1.1" xmlns="http://www.w3.org/2000/svg" xmlns:xlink="http://www.w3.org/1999/xlink">
    <title>UIicon / HMS</title>
    <g id="方特" stroke="none" stroke-width="1" fill="none" fill-rule="evenodd">
        <g id="首页" transform="translate(-296.000000, -326.000000)">
            <g id="编组-5" transform="translate(12.000000, 298.000000)">
                <g id="Group备份-6" transform="translate(267.000000, 28.000000)">
                    <g id="会员-(1)" transform="translate(17.000000, 0.000000)">
                        <path d="M16,32 C7.16355556,32 0,24.8364444 0,16 C0,7.16355556 7.16355556,0 16,0 C24.8364444,0 32,7.16355556 32,16 C32,24.8364444 24.8364444,32 16,32 Z" id="路径" fill="#34B495" fill-rule="nonzero"></path>
                        <path d="M10.1377744,20.4693414 C15.7903164,20.4693414 20.3724451,15.8871158 20.3724451,10.2346707 C20.3724451,5.48035731 17.1307797,1.48319153 12.7371385,0.332984094 C6.43168509,1.63948525 1.48428159,6.65679941 0.280853906,12.9994368 C1.48711581,17.308754 5.44322181,20.4693414 10.1377744,20.4693414 Z" id="路径" fill-opacity="0.2" fill="#FFFFFF" fill-rule="nonzero"></path>
                        <path d="M16,32 C24.8364572,32 32,24.8364572 32,16 C32,15.0073217 31.9096442,14.0358153 31.7364421,13.0931597 C29.0017865,10.5031219 25.3085844,8.91445875 21.2445117,8.91445875 C12.8160363,8.91445875 5.98334594,15.7471249 5.98334594,24.1756245 C5.98334594,25.8931113 6.26722784,27.5444663 6.79029825,29.0851173 C9.39457987,30.9215443 12.571349,32 16,32 Z" id="路径" fill-opacity="0.15" fill="#FFFFFF" fill-rule="nonzero"></path>
                        <g id="公交_bus-one" transform="translate(9.000000, 8.000000)">
                            <path d="M2.94736842,14.3157895 L2.94736842,16 M11.3684211,14.3157895 L11.3684211,16" id="形状结合" stroke="#FFFFFF" stroke-width="2" stroke-linecap="round" stroke-linejoin="round"></path>
                            <path d="M13.7777778,7.90935058 L13.7777778,13.1800704 C13.7777778,13.8037546 12.9991426,14.3093506 12.0386473,14.3093506 L2.18357488,14.3093506 C1.22307966,14.3093506 0.444444444,13.8037546 0.444444444,13.1800704 L0.444444444,7.90935058 L13.7777778,7.90935058 Z M11.3684211,10.9473684 C10.9033392,10.9473684 10.5263158,11.3243918 10.5263158,11.7894737 C10.5263158,12.2545556 10.9033392,12.6315789 11.3684211,12.6315789 C11.8335029,12.6315789 12.2105263,12.2545556 12.2105263,11.7894737 C12.2105263,11.3243918 11.8335029,10.9473684 11.3684211,10.9473684 Z M2.94736842,10.9473684 C2.48228653,10.9473684 2.10526316,11.3243918 2.10526316,11.7894737 C2.10526316,12.2545556 2.48228653,12.6315789 2.94736842,12.6315789 C3.41245032,12.6315789 3.78947368,12.2545556 3.78947368,11.7894737 C3.78947368,11.3243918 3.41245032,10.9473684 2.94736842,10.9473684 Z" id="形状结合" fill="#FFFFFF" fill-rule="nonzero"></path>
                            <path d="M11.8666667,0 C12.9712362,-2.02906125e-16 13.8666667,0.8954305 13.8666667,2 L13.8666667,6.93333333 L0.533333333,6.93333333 L0.533333333,2 C0.533333333,0.8954305 1.42876383,2.02906125e-16 2.53333333,0 L11.8666667,0 Z M9.4,2 L5.4,2 C4.84771525,2 4.4,2.44771525 4.4,3 C4.4,3.55228475 4.84771525,4 5.4,4 L5.4,4 L9.4,4 C9.95228475,4 10.4,3.55228475 10.4,3 C10.4,2.44771525 9.95228475,2 9.4,2 L9.4,2 Z" id="形状结合" fill="#FFFFFF"></path>
                        </g>
                    </g>
                </g>
            </g>
        </g>
    </g>
</svg>