<?xml version="1.0" encoding="UTF-8"?>
<!--
  - /*
  -    Copyright (c) 2025 Huawei Device Co., Ltd.
  -    Licensed under the Apache License, Version 2.0 (the "License");
  -    you may not use this file except in compliance with the License.
  -    You may obtain a copy of the License at
  -    http://www.apache.org/licenses/LICENSE-2.0
  -    Unless required by applicable law or agreed to in writing, software
  -    distributed under the License is distributed on an "AS IS" BASIS,
  -    WITHOUT WARRANTIES OR CONDITIONS OF ANY KIND, either express or implied.
  -    See the License for the specific language governing permissions and
  -    limitations under the License.
  -  */
  -
  -->

<svg width="32px" height="32px" viewBox="0 0 32 32" version="1.1" xmlns="http://www.w3.org/2000/svg" xmlns:xlink="http://www.w3.org/1999/xlink">
    <title>编组 4</title>
    <g id="方特" stroke="none" stroke-width="1" fill="none" fill-rule="evenodd">
        <g id="首页" transform="translate(-33.000000, -406.000000)" fill-rule="nonzero">
            <g id="编组-5" transform="translate(12.000000, 298.000000)">
                <g id="提醒" transform="translate(21.000000, 108.000000)">
                    <path d="M0,16 C0,24.836556 7.163444,32 16,32 C24.836556,32 32,24.836556 32,16 C32,7.163444 24.836556,0 16,0 C7.163444,0 0,7.163444 0,16 Z" id="路径" fill="#574AF7"></path>
                    <path d="M10.1377744,20.4693414 C15.7903164,20.4693414 20.3724451,15.8871158 20.3724451,10.2346707 C20.3724451,5.48035731 17.1307797,1.48319153 12.7371385,0.332984094 C6.43168509,1.63948525 1.48428159,6.65679941 0.280853906,12.9994368 C1.48711581,17.308754 5.44322181,20.4693414 10.1377744,20.4693414 Z" id="路径" fill-opacity="0.2" fill="#FFFFFF"></path>
                    <path d="M16,32 C24.8364572,32 32,24.8364572 32,16 C32,15.0073217 31.9096442,14.0358153 31.7364421,13.0931597 C29.0017865,10.5031219 25.3085844,8.91445875 21.2445117,8.91445875 C12.8160363,8.91445875 5.98334594,15.7471249 5.98334594,24.1756245 C5.98334594,25.8931113 6.26722784,27.5444663 6.79029825,29.0851173 C9.39457988,30.9215443 12.571349,32 16,32 Z" id="路径" fill-opacity="0.15" fill="#FFFFFF"></path>
                    <g id="B-时间" transform="translate(8.000000, 8.000000)" fill="#FFFFFF">
                        <path d="M13.606179,2.34375 C12.1004972,0.843394886 10.1012074,0.0159801136 7.97585227,0.0159801136 C5.85049716,0.0159801136 3.85120739,0.843394886 2.34730114,2.34375 C0.843394886,3.84588068 0.0142045455,5.84161932 0.0142045455,7.96697443 C0.0142045455,10.090554 0.841619318,12.0880682 2.34552557,13.5901989 C3.84943182,15.090554 5.84694602,15.9179688 7.9740767,15.9179688 C10.1012074,15.9179688 12.1004972,15.090554 13.606179,13.5884233 C16.7098722,10.4900568 16.7098722,5.44566761 13.606179,2.34375 Z M11.7542614,10.8327415 C11.6548295,11.0049716 11.5074574,11.1274858 11.3370028,11.1772017 C11.2784091,11.1949574 11.2180398,11.2020597 11.1576705,11.2020597 C11.0369318,11.2020597 10.9161932,11.1683239 10.8025568,11.1044034 L8.05042614,9.44069602 C7.95809659,9.38920455 7.84446023,9.32705966 7.78409091,9.24715909 C7.43430398,9.04474432 7.25852273,8.83522727 7.25852273,8.62393466 L7.25852273,4.03409091 C7.25852273,3.62571023 7.59055398,3.29545455 7.99893466,3.29545455 C8.40731534,3.29545455 8.73934659,3.6274858 8.73934659,4.03409091 L8.73934659,8.27414773 L11.4204545,9.82244318 C11.8004261,10.0426136 11.9495739,10.4953835 11.7542614,10.8327415 Z" id="形状"></path>
                    </g>
                </g>
            </g>
        </g>
    </g>
</svg>