<?xml version="1.0" encoding="UTF-8"?>
<!--
  - /*
  -    Copyright (c) 2025 Huawei Device Co., Ltd.
  -    Licensed under the Apache License, Version 2.0 (the "License");
  -    you may not use this file except in compliance with the License.
  -    You may obtain a copy of the License at
  -    http://www.apache.org/licenses/LICENSE-2.0
  -    Unless required by applicable law or agreed to in writing, software
  -    distributed under the License is distributed on an "AS IS" BASIS,
  -    WITHOUT WARRANTIES OR CONDITIONS OF ANY KIND, either express or implied.
  -    See the License for the specific language governing permissions and
  -    limitations under the License.
  -  */
  -
  -->

<svg width="32px" height="32px" viewBox="0 0 32 32" version="1.1" xmlns="http://www.w3.org/2000/svg" xmlns:xlink="http://www.w3.org/1999/xlink">
    <title>编组 4</title>
    <g id="方特" stroke="none" stroke-width="1" fill="none" fill-rule="evenodd">
        <g id="游园" transform="translate(-236.000000, -324.000000)" fill-rule="nonzero">
            <g id="提醒" transform="translate(236.000000, 324.000000)">
                <path d="M0,16 C0,24.836556 7.163444,32 16,32 C24.836556,32 32,24.836556 32,16 C32,7.163444 24.836556,0 16,0 C7.163444,0 0,7.163444 0,16 Z" id="路径" fill="#FEB833"></path>
                <path d="M10.1377744,20.4693414 C15.7903164,20.4693414 20.3724451,15.8871158 20.3724451,10.2346707 C20.3724451,5.48035731 17.1307797,1.48319153 12.7371385,0.332984094 C6.43168509,1.63948525 1.48428159,6.65679941 0.280853906,12.9994368 C1.48711581,17.308754 5.44322181,20.4693414 10.1377744,20.4693414 Z" id="路径" fill-opacity="0.2" fill="#FFFFFF"></path>
                <path d="M16,32 C24.8364572,32 32,24.8364572 32,16 C32,15.0073217 31.9096442,14.0358153 31.7364421,13.0931597 C29.0017865,10.5031219 25.3085844,8.91445875 21.2445117,8.91445875 C12.8160363,8.91445875 5.98334594,15.7471249 5.98334594,24.1756245 C5.98334594,25.8931113 6.26722784,27.5444663 6.79029825,29.0851173 C9.39457987,30.9215443 12.571349,32 16,32 Z" id="路径" fill-opacity="0.15" fill="#FFFFFF"></path>
                <g id="收藏-(3)" transform="translate(8.000000, 8.000000)" fill="#FFFFFF">
                    <path d="M15.0454905,4.98813291 L11.1946203,4.02294304 C11.1234177,4.00514241 11.0621044,3.9596519 11.0225475,3.89833861 L8.91613924,0.535996835 C8.82515823,0.391613924 8.70253165,0.268987342 8.55814873,0.178006329 C8.02808544,-0.154272152 7.32792722,0.0059335443 6.99564873,0.535996835 L4.88528481,3.90031646 C4.84572785,3.96162975 4.78441456,4.00712025 4.71321203,4.02492089 L0.862341772,4.99011076 C0.696202532,5.03164557 0.54193038,5.11075949 0.409414557,5.22151899 C-0.0712025316,5.62302215 -0.134493671,6.33900316 0.267009494,6.81962025 L0.931566456,7.61471519 L1.77412975,7.68987342 C5.76147152,8.04588608 9.27808544,10.5300633 10.9513449,14.1752373 L11.3251582,14.9881329 L11.7405063,15.1542722 C11.8987342,15.2175633 12.070807,15.2452532 12.2428797,15.2333861 C12.8678797,15.1898734 13.3386076,14.6499209 13.2970728,14.0249209 L13.0241297,10.065269 C13.0181962,9.99208861 13.0419304,9.92088608 13.0893987,9.86352848 L15.6368671,6.81962025 C15.7476266,6.68908228 15.8247627,6.53283228 15.8682753,6.36669304 C16.0205696,5.75553797 15.6526899,5.14042722 15.0454905,4.98813291 L15.0454905,4.98813291 Z" id="路径"></path>
                    <path d="M4.1653481,15.1522943 L7.84810127,13.6689082 C7.88172468,13.6550633 7.91732595,13.6491297 7.95490506,13.6491297 C7.99050633,13.6491297 8.02610759,13.6550633 8.06170886,13.6689082 L10.1878956,14.5253165 C8.67484177,11.2282437 5.48061709,8.86471519 1.70490506,8.52848101 L2.82041139,9.86155063 C2.86787975,9.91693038 2.89161392,9.99011076 2.88568038,10.0632911 L2.61075949,14.0209652 C2.59889241,14.1910601 2.62658228,14.3631329 2.68987342,14.5233386 C2.86787975,14.9643987 3.29311709,15.2333861 3.74208861,15.2333861 C3.88449367,15.2333861 4.02689873,15.2076741 4.1653481,15.1522943 L4.1653481,15.1522943 Z" id="路径"></path>
                </g>
            </g>
        </g>
    </g>
</svg>