<?xml version="1.0" encoding="UTF-8"?>
<!--
  - /*
  -    Copyright (c) 2025 Huawei Device Co., Ltd.
  -    Licensed under the Apache License, Version 2.0 (the "License");
  -    you may not use this file except in compliance with the License.
  -    You may obtain a copy of the License at
  -    http://www.apache.org/licenses/LICENSE-2.0
  -    Unless required by applicable law or agreed to in writing, software
  -    distributed under the License is distributed on an "AS IS" BASIS,
  -    WITHOUT WARRANTIES OR CONDITIONS OF ANY KIND, either express or implied.
  -    See the License for the specific language governing permissions and
  -    limitations under the License.
  -  */
  -
  -->

<svg width="24px" height="24px" viewBox="0 0 24 24" version="1.1" xmlns="http://www.w3.org/2000/svg" xmlns:xlink="http://www.w3.org/1999/xlink">
    <title>编组 2</title>
    <defs>
        <path d="M14.8888978,0.000235191442 C14.6115523,0.160423417 14.3503659,0.35913384 14.1131107,0.596366763 L5.43056313,9.27720833 C5.23845713,9.46931433 5.09371663,9.70350933 5.00680421,9.96424658 L3.35973109,14.3907125 C2.83758472,15.794901 4.20632567,17.1632739 5.61037371,16.64075 L10.0923737,14.97275 L10.0383986,14.991841 C10.2961358,14.9059285 10.5303309,14.761188 10.7264369,14.565082 L19.4041626,5.8877655 C19.6415223,5.65039129 19.8403222,5.38906158 20.0005624,5.11155996 L20,20.0006452 L0,20.0006452 L0,0.000645179775 L14.8888978,0.000235191442 Z M20,0.000645179775 L20.0006015,1.37275026 C19.8403692,1.095256 19.6415784,0.833935404 19.4042295,0.59657205 C19.1668405,0.359168434 18.9054865,0.160334927 18.6279546,7.18293272e-05 L20,0.000645179775 Z" id="path-1"></path>
    </defs>
    <g id="方特" stroke="none" stroke-width="1" fill="none" fill-rule="evenodd">
        <g id="我的" transform="translate(-128.000000, -606.000000)">
            <g id="编组-2" transform="translate(128.000000, 606.000000)">
                <rect id="矩形" fill="#FFFFFF" x="0" y="0" width="24" height="24" rx="1"></rect>
                <g id="ic_public_feedback_two_colors1" transform="translate(2.000000, 2.000000)">
                    <path d="M0.627278292,9.99236571 C0.627278292,8.52774771 0.622152133,7.06312971 0.627278292,5.59851171 C0.624331658,4.88978437 0.711441517,4.18355425 0.8865155,3.49678488 C1.27024515,2.04315151 2.21712003,1.1804915 3.66928777,0.845826292 C4.3974235,0.688506021 5.14113475,0.614798208 5.88598558,0.626133592 C8.69463275,0.626133592 11.503524,0.626133592 14.3126594,0.626133592 C15.0221029,0.621729654 15.7294902,0.702869029 16.419511,0.867795562 C17.9156172,1.23395006 18.8134274,2.18155791 19.1554155,3.67253904 C19.3091661,4.37720192 19.3826209,5.09701017 19.3743757,5.81820442 C19.3743757,8.65712229 19.3743757,11.4962843 19.3743757,14.3356904 C19.3782113,15.0382955 19.2973177,15.7388003 19.1334462,16.4220387 C18.767292,17.9188784 17.815291,18.8122953 16.3243109,19.1542836 C15.5960817,19.3110085 14.8524386,19.3847095 14.107613,19.3739763 C11.3106828,19.3739763 8.51399667,19.3739763 5.71755462,19.3739763 C5.00268821,19.379811 4.28970092,19.2999073 3.59386,19.1359759 C2.09116297,18.7698214 1.18895891,17.8178197 0.84770315,16.3195155 C0.673413729,15.5579141 0.627278292,14.7941158 0.627278292,14.0237268 C0.627278292,12.6801839 0.627278292,11.3363968 0.627278292,9.99236571 Z" id="path1" stroke-opacity="0" stroke="#FFFFFF" stroke-width="2" fill-opacity="0" fill="#FFFFFF" fill-rule="nonzero"></path>
                    <path d="M0.627278292,9.99236571 C0.627278292,8.52774771 0.622152133,7.06312971 0.627278292,5.59851171 C0.624331658,4.88978437 0.711441517,4.18355425 0.8865155,3.49678488 C1.27024515,2.04315151 2.21712003,1.1804915 3.66928777,0.845826292 C4.3974235,0.688506021 5.14113475,0.614798208 5.88598558,0.626133592 C8.69463275,0.626133592 11.503524,0.626133592 14.3126594,0.626133592 C15.0221029,0.621729654 15.7294902,0.702869029 16.419511,0.867795562 C17.9156172,1.23395006 18.8134274,2.18155791 19.1554155,3.67253904 C19.3091661,4.37720192 19.3826209,5.09701017 19.3743757,5.81820442 C19.3743757,8.65712229 19.3743757,11.4962843 19.3743757,14.3356904 C19.3782113,15.0382955 19.2973177,15.7388003 19.1334462,16.4220387 C18.767292,17.9188784 17.815291,18.8122953 16.3243109,19.1542836 C15.5960817,19.3110085 14.8524386,19.3847095 14.107613,19.3739763 C11.3106828,19.3739763 8.51399667,19.3739763 5.71755462,19.3739763 C5.00268821,19.379811 4.28970092,19.2999073 3.59386,19.1359759 C2.09116297,18.7698214 1.18895891,17.8178197 0.84770315,16.3195155 C0.673413729,15.5579141 0.627278292,14.7941158 0.627278292,14.0237268 C0.627278292,12.6801839 0.627278292,11.3363968 0.627278292,9.99236571 Z" id="path2" stroke-opacity="0" stroke="#FFFFFF" stroke-width="2" opacity="0.200000003"></path>
                    <circle id="path3" fill-opacity="0" fill="#FFFFFF" fill-rule="nonzero" cx="10" cy="10" r="10"></circle>
                    <g id="path5-Clipped">
                        <mask id="mask-2" fill="white">
                            <use xlink:href="#path-1"></use>
                        </mask>
                        <g id="path-1"></g>
                        <path d="M3.71481003,1.79928044 L13.0285822,1.66816693 C13.0690704,1.66759696 13.1095665,1.66791925 13.1500346,1.66940793 L15.5029951,1.75064518 C16.8492929,1.79712685 17.9166667,2.90198829 17.9166667,4.24908825 L17.9166667,15.8339785 C17.9166667,17.2146904 16.7973785,18.3339785 15.4166667,18.3339785 L3.75,18.3339785 C2.36928812,18.3339785 1.25,17.2146904 1.25,15.8339785 L1.25,4.29903275 C1.25,2.93204393 2.34795663,1.81852216 3.71481003,1.79928044 Z" id="path5" stroke="#191919" stroke-width="1.5" fill-opacity="0" fill="#FFFFFF" fill-rule="nonzero" stroke-linecap="round" stroke-linejoin="round" mask="url(#mask-2)"></path>
                    </g>
                    <path d="M18.1667549,1.83397114 C18.944415,2.61167873 18.944415,3.87259188 18.1667549,4.65029946 L9.48958333,13.3277285 L9.485,13.3323118 L9.4825,13.3331452 L5,15.0006452 L6.6675,10.5173118 L6.66875,10.5143952 L6.66958333,10.5135618 L15.3504893,1.83386187 C16.1282274,1.05619695 17.3890771,1.05624587 18.1667549,1.83397114 Z M14.6728544,2.51886673 L17.4812484,5.33212162" id="path6" stroke="#458EF8" stroke-width="1.5" fill-opacity="0" fill="#FFFFFF" fill-rule="nonzero" stroke-linecap="round" stroke-linejoin="round"></path>
                </g>
            </g>
        </g>
    </g>
</svg>