<?xml version="1.0" encoding="UTF-8"?>
<!--
  - /*
  -    Copyright (c) 2025 Huawei Device Co., Ltd.
  -    Licensed under the Apache License, Version 2.0 (the "License");
  -    you may not use this file except in compliance with the License.
  -    You may obtain a copy of the License at
  -    http://www.apache.org/licenses/LICENSE-2.0
  -    Unless required by applicable law or agreed to in writing, software
  -    distributed under the License is distributed on an "AS IS" BASIS,
  -    WITHOUT WARRANTIES OR CONDITIONS OF ANY KIND, either express or implied.
  -    See the License for the specific language governing permissions and
  -    limitations under the License.
  -  */
  -
  -->

<svg width="24px" height="24px" viewBox="0 0 24 24" version="1.1" xmlns="http://www.w3.org/2000/svg" xmlns:xlink="http://www.w3.org/1999/xlink">
    <title>编组 4备份 2</title>
    <g id="方特" stroke="none" stroke-width="1" fill="none" fill-rule="evenodd">
        <g id="我的" transform="translate(-289.000000, -542.000000)">
            <g id="编组-4备份-2" transform="translate(289.000000, 542.000000)">
                <rect id="矩形备份" fill="#FFFFFF" x="0" y="0" width="24" height="24" rx="1"></rect>
                <g id="ic_public_send_two_colors1" transform="translate(2.000000, 4.500000)" stroke-linecap="round" stroke-linejoin="round" stroke-width="1.5">
                    <path d="M7.05146519,11.6536565 L7.05146519,14.6133161 C7.05146519,15.4072254 7.69505583,16.0508161 8.48896519,16.0508161 C8.93570291,16.0508161 9.35704925,15.8431172 9.62912257,15.4887858 L11.2015436,13.4409625 L11.2015436,13.4409625 L7.05146519,11.6536565 Z" id="path6" stroke="#458EF8"></path>
                    <path d="M7.29104852,13.5703231 L10.7707093,15.0669978 L9.43898895,16.8008192 C9.03598789,17.3255029 8.2839508,17.4241461 7.75926719,17.021145 C7.46407354,16.7944116 7.29104852,16.4433407 7.29104852,16.0711212 L7.29104852,13.5703231 L7.29104852,13.5703231 Z" id="path7" stroke-opacity="0" stroke="#FFFFFF" fill-opacity="0" fill="#FFFFFF" fill-rule="nonzero"></path>
                    <path d="M4.21,10.4333177 L1.08067993,9.08261803 C0.351494187,8.76864321 0.0148992162,7.92299454 0.328874018,7.19380877 C0.490149462,6.81925722 0.802918527,6.53083018 1.18928252,6.40036364 L17.7062598,0.822948594 C18.2077148,0.65361843 18.7514935,0.922858778 18.9208237,1.42431374 C18.970937,1.57271942 18.9839093,1.73114663 18.9586051,1.88572761 L16.9781556,13.9840912 C16.849903,14.7675727 16.1107966,15.2987408 15.327315,15.1704882 C15.2116325,15.1515515 15.0987007,15.118536 14.9910351,15.072177 L7.05146519,11.6536565 L18.5221991,0.968288421" id="path9" stroke="#191919"></path>
                </g>
            </g>
        </g>
    </g>
</svg>