<?xml version="1.0" encoding="UTF-8"?>
<!--
  - /*
  -    Copyright (c) 2025 Huawei Device Co., Ltd.
  -    Licensed under the Apache License, Version 2.0 (the "License");
  -    you may not use this file except in compliance with the License.
  -    You may obtain a copy of the License at
  -    http://www.apache.org/licenses/LICENSE-2.0
  -    Unless required by applicable law or agreed to in writing, software
  -    distributed under the License is distributed on an "AS IS" BASIS,
  -    WITHOUT WARRANTIES OR CONDITIONS OF ANY KIND, either express or implied.
  -    See the License for the specific language governing permissions and
  -    limitations under the License.
  -  */
  -
  -->

<svg width="32px" height="32px" viewBox="0 0 32 32" version="1.1" xmlns="http://www.w3.org/2000/svg" xmlns:xlink="http://www.w3.org/1999/xlink">
    <title>编组 4备份 2</title>
    <defs>
        <path d="M0,16 C0,24.836556 7.163444,32 16,32 C24.836556,32 32,24.836556 32,16 C32,7.163444 24.836556,0 16,0 C7.163444,0 0,7.163444 0,16 Z" id="path-1"></path>
    </defs>
    <g id="方特" stroke="none" stroke-width="1" fill="none" fill-rule="evenodd">
        <g id="首页" transform="translate(-164.000000, -406.000000)" fill-rule="nonzero">
            <g id="编组-5" transform="translate(12.000000, 298.000000)">
                <g id="提醒" transform="translate(152.000000, 108.000000)">
                    <g id="路径">
                        <use fill="#65BB5C" xlink:href="#path-1"></use>
                        <use fill="#61D0BE" xlink:href="#path-1"></use>
                    </g>
                    <path d="M10.1377744,20.4693414 C15.7903164,20.4693414 20.3724451,15.8871158 20.3724451,10.2346707 C20.3724451,5.48035731 17.1307797,1.48319153 12.7371385,0.332984094 C6.43168509,1.63948525 1.48428159,6.65679941 0.280853906,12.9994368 C1.48711581,17.308754 5.44322181,20.4693414 10.1377744,20.4693414 Z" id="路径" fill-opacity="0.2" fill="#FFFFFF"></path>
                    <path d="M16,32 C24.8364572,32 32,24.8364572 32,16 C32,15.0073217 31.9096442,14.0358153 31.7364421,13.0931597 C29.0017865,10.5031219 25.3085844,8.91445875 21.2445117,8.91445875 C12.8160363,8.91445875 5.98334594,15.7471249 5.98334594,24.1756245 C5.98334594,25.8931113 6.26722784,27.5444663 6.79029825,29.0851173 C9.39457987,30.9215443 12.571349,32 16,32 Z" id="路径" fill-opacity="0.15" fill="#FFFFFF"></path>
                    <g id="自助餐" transform="translate(8.000000, 9.000000)" fill="#FFFFFF">
                        <path d="M13.2885605,8.8104218 L13.2885605,15.0401018 C13.2885605,15.5697815 13.0729414,16 12.5385605,16 C12.0052207,16 11.7552207,15.5697815 11.7552207,15.0401018 L11.7552207,8.81042156 C10.2708398,8.39064227 9.04428125,7.04898211 9.04428125,5.44012078 L9.04428125,3.51980078 C9.04428125,1.57604102 10.6312617,0 12.5885605,0 C14.5463809,0 16,1.57603906 16,3.51980078 L16,5.44012078 C16,7.04898234 14.7729414,8.3906425 13.2885605,8.8104218 Z M4.7802207,7.56200188 L4.7802207,15.0401219 C4.7802207,15.5698016 4.62606055,16.0000217 4.025,16.0000217 C3.42343945,16.0000217 3.18646094,15.5698016 3.18646094,15.0401219 L3.18646094,7.56200156 C1.96770117,7.30680234 0.648441406,6.63856211 0,5.7299625 L0,0.639861563 C0,0.286480703 0.391660156,2.171875e-05 0.792179688,2.171875e-05 C1.19321875,2.171875e-05 1.58490039,0.286482656 1.58490039,0.639861563 L1.58490039,4.79324156 L1.81458039,4.79324156 L2.12708039,4.79324156 L2.12708039,0.639861563 C2.12708039,0.286480703 2.53542023,2.171875e-05 2.93646125,2.171875e-05 C3.33698078,2.171875e-05 3.71198078,0.286482656 3.71198078,0.639861563 L3.71198078,4.79324156 L4.27136078,4.79324156 L4.27136078,0.639861563 C4.27136078,0.286480703 4.64584125,2.171875e-05 5.04688031,2.171875e-05 C5.44794086,2.171875e-05 5.85626117,0.286482656 5.85626117,0.639861563 L5.85626117,4.79324156 L6.16876117,4.79324156 L6.39844117,4.79324156 L6.39844117,0.639861563 C6.39844117,0.286480703 6.79012086,2.171875e-05 7.19062086,2.171875e-05 C7.59168141,2.171875e-05 7.98334156,0.286482656 7.98334156,0.639861563 L7.98334156,5.72996156 C7.33490039,6.63856242 5.99844141,7.30678117 4.7802207,7.56200188 Z" id="形状"></path>
                    </g>
                </g>
            </g>
        </g>
    </g>
</svg>