<!--
  - Copyright (c) 2025 Huawei Device Co., Ltd.
  - Licensed under the Apache License, Version 2.0 (the "License");
  - you may not use this file except in compliance with the License.
  - You may obtain a copy of the License at
  -
  -     http://www.apache.org/licenses/LICENSE-2.0
  -
  - Unless required by applicable law or agreed to in writing, software
  - distributed under the License is distributed on an "AS IS" BASIS,
  - WITHOUT WARRANTIES OR CONDITIONS OF ANY KIND, either express or implied.
  - See the License for the specific language governing permissions and
  - limitations under the License.
  -->

<svg width="32.000000" height="32.000000" viewBox="0 0 32 32" fill="none" xmlns="http://www.w3.org/2000/svg"
>
    <desc>
        Created with Pixso.
    </desc>
    <defs/>
    <path d="M16 32C7.16 32 0 24.83 0 16C0 7.16 7.16 0 16 0C24.83 0 32 7.16 32 16C32 24.83 24.83 32 16 32Z"
          fill="#EC6066" fill-opacity="1.000000" fill-rule="evenodd"/>
    <path d="M16 32C7.16 32 0 24.83 0 16C0 7.16 7.16 0 16 0C24.83 0 32 7.16 32 16C32 24.83 24.83 32 16 32Z"
          fill="#458EF8" fill-opacity="1.000000" fill-rule="evenodd"/>
    <path d="M10.13 20.46C15.79 20.46 20.37 15.88 20.37 10.23C20.37 5.48 17.13 1.48 12.73 0.33C6.43 1.63 1.48 6.65 0.28 12.99C1.48 17.3 5.44 20.46 10.13 20.46Z"
          fill="#FFFFFF" fill-opacity="0.200000" fill-rule="evenodd"/>
    <path d="M16 32C24.83 32 32 24.83 32 16C32 15 31.9 14.03 31.73 13.09C29 10.5 25.3 8.91 21.24 8.91C12.81 8.91 5.98 15.74 5.98 24.17C5.98 25.89 6.26 27.54 6.79 29.08C9.39 30.92 12.57 32 16 32Z"
          fill="#FFFFFF" fill-opacity="0.149020" fill-rule="evenodd"/>
    <path d="M10 13L20 9L21.6 13" stroke="#FFFFFF" stroke-opacity="1.000000" stroke-width="1.000000"
          stroke-linejoin="round" stroke-linecap="round"/>
    <mask id="mask_50_9557" fill="white">
        <path d="M9 13L23 13C23.5522 13 24 13.4477 24 14L24 14.4C24 14.9523 23.5372 15.382 23.0225 15.5821C22.2242 15.8926 21.6 16.5902 21.6 17.6C21.6 18.6176 22.234 19.5296 23.0413 19.9518C23.5306 20.2078 24 20.6477 24 21.2L24 21.6C24 22.1523 23.5522 22.6 23 22.6L9 22.6C8.44775 22.6 8 22.1523 8 21.6L8 21.2C8 20.6477 8.46399 20.2201 8.97644 20.014C9.77515 19.6925 10.4 18.9546 10.4 17.8C10.4 16.6455 9.77515 15.9075 8.97644 15.586C8.46399 15.3799 8 14.9523 8 14.4L8 14C8 13.4477 8.44775 13 9 13ZM16.5 16L12.5 16C12.2239 16 12 16.2239 12 16.5C12 16.7761 12.2239 17 12.5 17L16.5 17C16.7761 17 17 16.7761 17 16.5C17 16.2239 16.7761 16 16.5 16ZM12.5 19L19.5 19C19.7761 19 20 19.2239 20 19.5C20 19.7761 19.7761 20 19.5 20L12.5 20C12.2239 20 12 19.7761 12 19.5C12 19.2239 12.2239 19 12.5 19Z"
              clip-rule="evenodd" fill="" fill-opacity="1.000000" fill-rule="evenodd"/>
    </mask>
    <path d="M9 13L23 13C23.5522 13 24 13.4477 24 14L24 14.4C24 14.9523 23.5372 15.382 23.0225 15.5821C22.2242 15.8926 21.6 16.5902 21.6 17.6C21.6 18.6176 22.234 19.5296 23.0413 19.9518C23.5306 20.2078 24 20.6477 24 21.2L24 21.6C24 22.1523 23.5522 22.6 23 22.6L9 22.6C8.44775 22.6 8 22.1523 8 21.6L8 21.2C8 20.6477 8.46399 20.2201 8.97644 20.014C9.77515 19.6925 10.4 18.9546 10.4 17.8C10.4 16.6455 9.77515 15.9075 8.97644 15.586C8.46399 15.3799 8 14.9523 8 14.4L8 14C8 13.4477 8.44775 13 9 13ZM16.5 16L12.5 16C12.2239 16 12 16.2239 12 16.5C12 16.7761 12.2239 17 12.5 17L16.5 17C16.7761 17 17 16.7761 17 16.5C17 16.2239 16.7761 16 16.5 16ZM12.5 19L19.5 19C19.7761 19 20 19.2239 20 19.5C20 19.7761 19.7761 20 19.5 20L12.5 20C12.2239 20 12 19.7761 12 19.5C12 19.2239 12.2239 19 12.5 19Z"
          clip-rule="evenodd" fill="#FFFFFF" fill-opacity="1.000000" fill-rule="evenodd" mask="url(#mask_50_9557)"/>
    <path d="" clip-rule="evenodd" fill="#EE6F20" fill-opacity="0.000000" fill-rule="evenodd"/>
</svg>
