<!--
  - Copyright (c) 2025 Huawei Device Co., Ltd.
  - Licensed under the Apache License, Version 2.0 (the "License");
  - you may not use this file except in compliance with the License.
  - You may obtain a copy of the License at
  -
  -     http://www.apache.org/licenses/LICENSE-2.0
  -
  - Unless required by applicable law or agreed to in writing, software
  - distributed under the License is distributed on an "AS IS" BASIS,
  - WITHOUT WARRANTIES OR CONDITIONS OF ANY KIND, either express or implied.
  - See the License for the specific language governing permissions and
  - limitations under the License.
  -->

<svg width="32.000000" height="32.000000" viewBox="0 0 32 32" fill="none" xmlns="http://www.w3.org/2000/svg"
>
    <desc>
        Created with Pixso.
    </desc>
    <defs/>
    <path d="M0 16C0 24.83 7.16 32 16 32C24.83 32 32 24.83 32 16C32 7.16 24.83 0 16 0C7.16 0 0 7.16 0 16Z"
          fill="#574AF7" fill-opacity="1.000000" fill-rule="evenodd"/>
    <path d="M10.13 20.46C15.79 20.46 20.37 15.88 20.37 10.23C20.37 5.48 17.13 1.48 12.73 0.33C6.43 1.63 1.48 6.65 0.28 12.99C1.48 17.3 5.44 20.46 10.13 20.46Z"
          fill="#FFFFFF" fill-opacity="0.200000" fill-rule="evenodd"/>
    <path d="M16 32C24.83 32 32 24.83 32 16C32 15 31.9 14.03 31.73 13.09C29 10.5 25.3 8.91 21.24 8.91C12.81 8.91 5.98 15.74 5.98 24.17C5.98 25.89 6.26 27.54 6.79 29.08C9.39 30.92 12.57 32 16 32Z"
          fill="#FFFFFF" fill-opacity="0.149020" fill-rule="evenodd"/>
    <path d="M15.9758 8.01599C18.1012 8.01599 20.1005 8.84341 21.6061 10.3438C24.7098 13.4457 24.7098 18.4901 21.6061 21.5884C20.1005 23.0906 18.1012 23.918 15.974 23.918C13.8469 23.918 11.8494 23.0906 10.3455 21.5902C8.84155 20.0881 8.01416 18.0906 8.01416 15.967C8.01416 13.8416 8.84338 11.8459 10.3473 10.3438C11.8512 8.84341 13.8505 8.01599 15.9758 8.01599ZM19.3369 19.1772C19.5074 19.1275 19.6548 19.005 19.7543 18.8328C19.9496 18.4954 19.8004 18.0426 19.4204 17.8225L16.7393 16.2742L16.7393 12.0341C16.7393 11.6275 16.4072 11.2955 15.9989 11.2955C15.5905 11.2955 15.2584 11.6257 15.2584 12.0341L15.2584 16.6239C15.2584 16.8352 15.4342 17.0448 15.7841 17.2472C15.8444 17.3271 15.958 17.3892 16.0504 17.4407L18.8025 19.1044C18.9161 19.1683 19.0369 19.2021 19.1576 19.2021C19.218 19.2021 19.2783 19.195 19.3369 19.1772Z"
          clip-rule="evenodd" fill="#FFFFFF" fill-opacity="1.000000" fill-rule="evenodd"/>
</svg>
