<!--
  - Copyright (c) 2025 Huawei Device Co., Ltd.
  - Licensed under the Apache License, Version 2.0 (the "License");
  - you may not use this file except in compliance with the License.
  - You may obtain a copy of the License at
  -
  -     http://www.apache.org/licenses/LICENSE-2.0
  -
  - Unless required by applicable law or agreed to in writing, software
  - distributed under the License is distributed on an "AS IS" BASIS,
  - WITHOUT WARRANTIES OR CONDITIONS OF ANY KIND, either express or implied.
  - See the License for the specific language governing permissions and
  - limitations under the License.
  -->

<svg width="32.000000" height="32.000000" viewBox="0 0 32 32" fill="none" xmlns="http://www.w3.org/2000/svg"
>
    <desc>
        Created with Pixso.
    </desc>
    <defs/>
    <path d="M0 16C0 24.83 7.16 32 16 32C24.83 32 32 24.83 32 16C32 7.16 24.83 0 16 0C7.16 0 0 7.16 0 16Z"
          fill="#FAA01F" fill-opacity="1.000000" fill-rule="evenodd"/>
    <path d="M10.13 20.46C15.79 20.46 20.37 15.88 20.37 10.23C20.37 5.48 17.13 1.48 12.73 0.33C6.43 1.63 1.48 6.65 0.28 12.99C1.48 17.3 5.44 20.46 10.13 20.46Z"
          fill="#FFFFFF" fill-opacity="0.200000" fill-rule="evenodd"/>
    <path d="M16 32C24.83 32 32 24.83 32 16C32 15 31.9 14.03 31.73 13.09C29 10.5 25.3 8.91 21.24 8.91C12.81 8.91 5.98 15.74 5.98 24.17C5.98 25.89 6.26 27.54 6.79 29.08C9.39 30.92 12.57 32 16 32Z"
          fill="#FFFFFF" fill-opacity="0.149020" fill-rule="evenodd"/>
    <path d="M18.0109 18.4792C18.0922 18.5006 18.1766 18.5119 18.2627 18.5119C18.38 18.5119 18.4963 18.4906 18.6082 18.4485C18.6798 18.4218 18.7419 18.3774 18.8059 18.336L18.8059 21.0757C18.8059 21.4655 18.5295 21.7813 18.1886 21.7813C18.1255 21.7813 18.0681 21.7605 18.0109 21.7405L18.0109 18.4792ZM20.524 11.4453C21.0178 11.4453 21.4518 11.7628 21.6045 12.2349L22.7479 15.7731C22.7705 15.8421 22.7814 15.9124 22.7814 15.9816C22.7814 16.0013 22.7804 16.021 22.7787 16.0404C22.7563 16.3034 22.5813 16.5402 22.3159 16.6271C22.2466 16.6498 22.1763 16.6608 22.1074 16.6608C21.8237 16.6608 21.5597 16.4786 21.4672 16.1923L21.2734 15.5927L21.2734 20.8304C21.2734 21.2092 20.9683 21.5163 20.5919 21.5163C20.2153 21.5163 19.9104 21.2092 19.9104 20.8304L19.9104 17.5683C19.9563 17.4545 19.9868 17.3334 19.9976 17.2067C20.0006 17.1712 20.0022 17.1356 20.0022 17.1C20.0022 16.972 19.9819 16.8435 19.9414 16.7185L18.7981 13.1809C18.6307 12.6631 18.2354 12.2724 17.7458 12.101C17.7675 12.0558 17.7867 12.0092 17.8135 11.9678C17.8578 11.9185 17.9001 11.8677 17.9395 11.8144C18.1492 11.5897 18.4365 11.4453 18.7583 11.4453L20.524 11.4453ZM19.4684 10.9153C19.3033 10.9153 19.1475 10.8819 18.9994 10.8313C18.426 10.6353 18.0109 10.0978 18.0109 9.4578L18.0109 9.45775C18.0109 8.65272 18.6635 8 19.4684 8C20.2734 8 20.9261 8.6527 20.9261 9.45775C20.9261 10.0978 20.5111 10.6353 19.9376 10.8313C19.7896 10.8819 19.6335 10.9153 19.4684 10.9153ZM16.8137 12.5055C17.3074 12.5055 17.7415 12.8228 17.8943 13.2952L19.0377 16.8332C19.0601 16.9022 19.071 16.9724 19.071 17.0416C19.071 17.0614 19.0701 17.0811 19.0684 17.1006C19.0461 17.3635 18.8711 17.6004 18.6056 17.6873C18.5365 17.71 18.4662 17.7208 18.3972 17.7208C18.1136 17.7208 17.8494 17.5388 17.757 17.2525L17.5632 16.6528L17.5632 21.8906C17.5632 22.2695 17.2581 22.5764 16.8816 22.5764C16.5051 22.5764 16.2 22.2695 16.2 21.8906L16.2 18.6283C16.2461 18.5147 16.2765 18.3935 16.2872 18.2667C16.2904 18.2314 16.292 18.196 16.292 18.1606C16.292 18.0325 16.2716 17.9039 16.231 17.7785L15.0878 14.2411C14.9203 13.7232 14.525 13.3324 14.0355 13.1612C14.0569 13.1158 14.0763 13.0693 14.1031 13.028C14.1475 12.9786 14.1897 12.9278 14.2291 12.8745C14.4388 12.6498 14.7262 12.5055 15.048 12.5055L16.8137 12.5055ZM14.8306 19.5391C14.9121 19.5605 14.9963 19.5718 15.0825 19.5718C15.2 19.5718 15.316 19.5504 15.428 19.5084C15.4996 19.4819 15.5619 19.4373 15.6256 19.3961L15.6256 22.1357C15.6256 22.5256 15.3492 22.8414 15.0083 22.8414C14.9452 22.8414 14.8879 22.8206 14.8306 22.8006L14.8306 19.5391ZM15.7581 11.9754C15.5929 11.9754 15.437 11.942 15.2891 11.8913C14.7156 11.6954 14.3005 11.1579 14.3005 10.5178C14.3005 9.7128 14.9531 9.06011 15.7581 9.06011C16.5631 9.06011 17.2158 9.71278 17.2158 10.5178C17.2158 11.1579 16.8005 11.6954 16.2272 11.8913C16.0792 11.942 15.9232 11.9754 15.7581 11.9754ZM13.0746 13.8306C13.5745 13.8306 14.0142 14.1481 14.1689 14.6203L15.3269 18.1583C15.3496 18.2274 15.3606 18.2978 15.3606 18.3672C15.3606 18.3868 15.3597 18.4063 15.358 18.4257C15.3354 18.6888 15.1581 18.9254 14.8894 19.0123C14.8191 19.035 14.7482 19.046 14.6782 19.046C14.3909 19.046 14.1235 18.8638 14.0297 18.5775L13.8335 17.9779L13.8335 23.2158C13.8335 23.5946 13.5245 23.9015 13.1433 23.9015C12.7621 23.9015 12.453 23.5946 12.453 23.2158L12.453 19.1173L11.9076 19.1173L11.9076 23.2156C11.9076 23.5945 11.5986 23.9016 11.2174 23.9016C10.8362 23.9016 10.5271 23.5945 10.5271 23.2156L10.5271 17.9779L10.3309 18.5775C10.2371 18.8639 9.9696 19.0461 9.6825 19.0461C9.61255 19.0461 9.54138 19.0351 9.47144 19.0123C9.20239 18.9255 9.02527 18.6888 9.00269 18.4257C9.00085 18.4061 9 18.3864 9 18.3667C9 18.2975 9.01099 18.2273 9.03381 18.1583L10.1918 14.6203C10.3466 14.1481 10.7861 13.8306 11.2861 13.8306L13.0746 13.8306ZM12.0477 13.3005C11.8826 13.3005 11.7266 13.2671 11.5786 13.2165C11.0051 13.0206 10.5902 12.483 10.5901 11.8432C10.5901 11.038 11.2428 10.3853 12.0477 10.3853C12.8527 10.3853 13.5054 11.038 13.5054 11.8432C13.5054 12.483 13.0902 13.0206 12.5167 13.2165C12.3688 13.2671 12.2128 13.3005 12.0477 13.3005Z"
          clip-rule="evenodd" fill="#FFFFFF" fill-opacity="1.000000" fill-rule="evenodd"/>
</svg>
