<!--
  - Copyright (c) 2025 Huawei Device Co., Ltd.
  - Licensed under the Apache License, Version 2.0 (the "License");
  - you may not use this file except in compliance with the License.
  - You may obtain a copy of the License at
  -
  -     http://www.apache.org/licenses/LICENSE-2.0
  -
  - Unless required by applicable law or agreed to in writing, software
  - distributed under the License is distributed on an "AS IS" BASIS,
  - WITHOUT WARRANTIES OR CONDITIONS OF ANY KIND, either express or implied.
  - See the License for the specific language governing permissions and
  - limitations under the License.
  -->

<svg width="32.000000" height="32.000000" viewBox="0 0 32 32" fill="none" xmlns="http://www.w3.org/2000/svg"
>
    <desc>
        Created with Pixso.
    </desc>
    <defs/>
    <path d="M0 16C0 24.83 7.16 32 16 32C24.83 32 32 24.83 32 16C32 7.16 24.83 0 16 0C7.16 0 0 7.16 0 16Z"
          fill="#0A5AF7" fill-opacity="1.000000" fill-rule="evenodd"/>
    <path d="M10.13 20.46C15.79 20.46 20.37 15.88 20.37 10.23C20.37 5.48 17.13 1.48 12.73 0.33C6.43 1.63 1.48 6.65 0.28 12.99C1.48 17.3 5.44 20.46 10.13 20.46Z"
          fill="#FFFFFF" fill-opacity="0.200000" fill-rule="evenodd"/>
    <path d="M16 32C24.83 32 32 24.83 32 16C32 15 31.9 14.03 31.73 13.09C29 10.5 25.3 8.91 21.24 8.91C12.81 8.91 5.98 15.74 5.98 24.17C5.98 25.89 6.26 27.54 6.79 29.08C9.39 30.92 12.57 32 16 32Z"
          fill="#FFFFFF" fill-opacity="0.149020" fill-rule="evenodd"/>
    <path d="M22.8684 10.4927C22.8684 9.67193 22.203 9.00659 21.3823 9.00659L21.3823 9.00661L9.50085 9.00661C8.6803 9.00661 8.01501 9.67168 8.01477 10.4922L8.01477 22.2333C8.01453 22.6275 8.17102 23.0058 8.44971 23.2846C8.72839 23.5635 9.10657 23.7202 9.50085 23.7202L17.189 23.7202C16.1233 22.8433 15.4447 21.5207 15.4447 20.0414C15.4447 17.4005 17.6072 15.2599 20.2745 15.2599C21.1927 15.258 22.0924 15.5173 22.8688 16.0073L22.8684 10.4927ZM13.7085 11.3973L11.1724 11.3973C10.5573 11.3973 10.2672 11.5171 10.245 12.0628L10.2433 12.133L10.2433 20.4929C10.2372 20.9465 10.5942 21.3222 11.0476 21.3392C11.501 21.3562 11.8851 21.0083 11.9131 20.5555L11.9152 20.4929L11.9152 17.0991L13.7085 17.0991C15.2828 17.0991 16.5592 15.8228 16.5592 14.2484C16.5592 12.674 15.2828 11.3978 13.7085 11.3978L13.7085 11.3973ZM14.8816 14.212C14.8621 13.5685 14.3363 13.056 13.6925 13.0528L13.6918 13.0528L11.916 13.0528L11.916 15.4436L13.6917 15.4436L13.7644 15.4415C14.4072 15.3995 14.9012 14.8559 14.8816 14.212ZM20.2745 16.3634C22.326 16.3634 23.9895 18.0101 23.9895 20.0418C23.9895 22.0731 22.326 23.7198 20.2745 23.7198C18.2231 23.7198 16.5596 22.0731 16.5596 20.0414C16.5596 18.0101 18.2227 16.363 20.2745 16.363L20.2745 16.3634ZM21.1503 17.7717C21.2529 17.642 21.4288 17.5957 21.582 17.6582L21.5815 17.6578L21.6232 17.6779L21.6324 17.6834L21.6724 17.7107C21.7975 17.8102 21.8412 17.9808 21.7792 18.1282L21.7568 18.1715L21.1935 19.1216L21.5786 19.1216L21.6249 19.1245C21.8159 19.1505 21.9545 19.3197 21.9424 19.5122C21.9302 19.7046 21.7715 19.8551 21.5786 19.8568L20.6458 19.8568L20.6458 20.4092L21.5786 20.4092L21.6249 20.4122C21.8174 20.4367 21.9576 20.6066 21.9454 20.8002C21.9332 20.9939 21.7727 21.1447 21.5786 21.1449L20.6458 21.1445L20.6462 22.0609L20.6428 22.1072C20.6168 22.3003 20.4459 22.4405 20.2513 22.4283C20.0569 22.4162 19.9048 22.2558 19.903 22.0609L19.903 21.1449L18.9706 21.1449L18.9243 21.1419C18.7318 21.1174 18.5916 20.9475 18.6038 20.7539C18.616 20.5602 18.7765 20.4094 18.9706 20.4092L19.903 20.4088L19.903 19.8577L18.9706 19.8577L18.9243 19.8547C18.7318 19.8301 18.5916 19.6603 18.6038 19.4667C18.616 19.273 18.7765 19.1222 18.9706 19.122L19.4414 19.122L18.8781 18.1719L18.8557 18.129C18.7864 17.9646 18.8492 17.7742 19.0029 17.6834L19.0533 17.6582C19.2238 17.5884 19.4197 17.6541 19.5137 17.8125L20.2712 19.0896L20.2872 19.1216L20.3473 19.1216L20.3641 19.0896L21.1217 17.8125L21.1503 17.7717Z"
          clip-rule="evenodd" fill="#FFFFFF" fill-opacity="1.000000" fill-rule="evenodd"/>
</svg>
