<!--
  - Copyright (c) 2025 Huawei Device Co., Ltd.
  - Licensed under the Apache License, Version 2.0 (the "License");
  - you may not use this file except in compliance with the License.
  - You may obtain a copy of the License at
  -
  -     http://www.apache.org/licenses/LICENSE-2.0
  -
  - Unless required by applicable law or agreed to in writing, software
  - distributed under the License is distributed on an "AS IS" BASIS,
  - WITHOUT WARRANTIES OR CONDITIONS OF ANY KIND, either express or implied.
  - See the License for the specific language governing permissions and
  - limitations under the License.
  -->

<svg width="32.000000" height="32.000000" viewBox="0 0 32 32" fill="none" xmlns="http://www.w3.org/2000/svg"
>
    <desc>
        Created with Pixso.
    </desc>
    <defs/>
    <path d="M16 32C7.16 32 0 24.83 0 16C0 7.16 7.16 0 16 0C24.83 0 32 7.16 32 16C32 24.83 24.83 32 16 32Z"
          fill="#8D78FB" fill-opacity="0" fill-rule="evenodd"/>
    <path d="M16 32C7.16 32 0 24.83 0 16C0 7.16 7.16 0 16 0C24.83 0 32 7.16 32 16C32 24.83 24.83 32 16 32Z"
          fill="#EB8704" fill-opacity="1.000000" fill-rule="evenodd"/>
    <path d="M10.13 20.46C15.79 20.46 20.37 15.88 20.37 10.23C20.37 5.48 17.13 1.48 12.73 0.33C6.43 1.63 1.48 6.65 0.28 12.99C1.48 17.3 5.44 20.46 10.13 20.46Z"
          fill="#FFFFFF" fill-opacity="0.200000" fill-rule="evenodd"/>
    <path d="M16 32C24.83 32 32 24.83 32 16C32 15 31.9 14.03 31.73 13.09C29 10.5 25.3 8.91 21.24 8.91C12.81 8.91 5.98 15.74 5.98 24.17C5.98 25.89 6.26 27.54 6.79 29.08C9.39 30.92 12.57 32 16 32Z"
          fill="#FFFFFF" fill-opacity="0.149020" fill-rule="evenodd"/>
    <path d="M24.9323 10.5249C24.9323 9.69276 24.2576 9.01816 23.4255 9.01816L8.51025 9.01816C7.6781 9.01816 7.00354 9.69276 7.00354 10.5249L7.00354 20.3479C7.00354 21.18 7.6781 21.8546 8.51025 21.8546L23.4255 21.8546C24.2576 21.8546 24.9323 21.18 24.9323 20.3479L24.9323 10.5249ZM24.2466 12.9153L9.625 12.9153C9.58081 12.9153 9.54468 12.8791 9.54468 12.8349L9.54468 11.6398C9.54468 11.5954 9.58081 11.5594 9.625 11.5594L24.2466 11.5594L24.2466 12.9153ZM16.6572 18.7896L17.1565 16.9267C17.2153 16.7073 17.0846 16.4811 16.8651 16.4222C16.83 16.4128 16.7941 16.408 16.7583 16.408C16.5725 16.408 16.4092 16.5337 16.361 16.7135L15.8617 18.5764C15.8029 18.7956 15.9336 19.022 16.153 19.0807C16.1881 19.0901 16.2241 19.0949 16.2599 19.0949C16.4457 19.0949 16.609 18.9694 16.6572 18.7896ZM19.9989 16.9267L19.4999 18.7896C19.4517 18.9694 19.2881 19.0949 19.1025 19.0949C19.0665 19.0949 19.0306 19.0901 18.9955 19.0807C18.7761 19.022 18.6455 18.7956 18.7041 18.5764L19.2034 16.7135C19.2516 16.5337 19.4149 16.408 19.6007 16.408C19.6367 16.408 19.6726 16.4128 19.7078 16.4222C19.9271 16.4811 20.0577 16.7073 19.9989 16.9267ZM22.2318 18.7896L22.7311 16.9267C22.7897 16.7073 22.6592 16.4811 22.4397 16.4222C22.4045 16.4128 22.3687 16.408 22.3329 16.408C22.1471 16.408 21.9835 16.5337 21.9353 16.7135L21.4363 18.5764C21.3774 18.7956 21.5081 19.022 21.7274 19.0807C21.7626 19.0901 21.7985 19.0949 21.8345 19.0949C22.0203 19.0949 22.1836 18.9694 22.2318 18.7896Z"
          clip-rule="evenodd" fill="#FFFFFF" fill-opacity="1.000000" fill-rule="evenodd"/>
</svg>
