<!--
  - Copyright (c) 2025 Huawei Device Co., Ltd.
  - Licensed under the Apache License, Version 2.0 (the "License");
  - you may not use this file except in compliance with the License.
  - You may obtain a copy of the License at
  -
  -     http://www.apache.org/licenses/LICENSE-2.0
  -
  - Unless required by applicable law or agreed to in writing, software
  - distributed under the License is distributed on an "AS IS" BASIS,
  - WITHOUT WARRANTIES OR CONDITIONS OF ANY KIND, either express or implied.
  - See the License for the specific language governing permissions and
  - limitations under the License.
  -->

<svg width="32.000000" height="32.000000" viewBox="0 0 32 32" fill="none" xmlns="http://www.w3.org/2000/svg"
>
    <desc>
        Created with Pixso.
    </desc>
    <defs/>
    <path d="M0 16C0 24.83 7.16 32 16 32C24.83 32 32 24.83 32 16C32 7.16 24.83 0 16 0C7.16 0 0 7.16 0 16Z"
          fill="#65BB5C" fill-opacity="1.000000" fill-rule="evenodd"/>
    <path d="M0 16C0 24.83 7.16 32 16 32C24.83 32 32 24.83 32 16C32 7.16 24.83 0 16 0C7.16 0 0 7.16 0 16Z"
          fill="#61D0BE" fill-opacity="1.000000" fill-rule="evenodd"/>
    <path d="M10.13 20.46C15.79 20.46 20.37 15.88 20.37 10.23C20.37 5.48 17.13 1.48 12.73 0.33C6.43 1.63 1.48 6.65 0.28 12.99C1.48 17.3 5.44 20.46 10.13 20.46Z"
          fill="#FFFFFF" fill-opacity="0.200000" fill-rule="evenodd"/>
    <path d="M16 32C24.83 32 32 24.83 32 16C32 15 31.9 14.03 31.73 13.09C29 10.5 25.3 8.91 21.24 8.91C12.81 8.91 5.98 15.74 5.98 24.17C5.98 25.89 6.26 27.54 6.79 29.08C9.39 30.92 12.57 32 16 32Z"
          fill="#FFFFFF" fill-opacity="0.149020" fill-rule="evenodd"/>
    <path d="M21.2886 17.8104L21.2886 24.0401C21.2886 24.5698 21.073 25 20.5386 25C20.0052 25 19.7552 24.5698 19.7552 24.0401L19.7552 17.8104C18.2709 17.3906 17.0443 16.049 17.0443 14.4401L17.0443 12.5198C17.0443 10.576 18.6312 9 20.5885 9C22.5464 9 24 10.576 24 12.5198L24 14.4401C24 16.049 22.7729 17.3906 21.2886 17.8104ZM12.7803 24.0401L12.7803 16.562C13.9984 16.3068 15.335 15.6386 15.9834 14.73L15.9834 9.63986C15.9834 9.28648 15.5917 9.00002 15.1907 9.00002C14.7902 9.00002 14.3984 9.28648 14.3984 9.63986L14.3984 13.7932L13.8562 13.7932L13.8562 9.63986C13.8562 9.28648 13.448 9.00002 13.0469 9.00002C12.6459 9.00002 12.2714 9.28648 12.2714 9.63986L12.2714 13.7932L11.712 13.7932L11.712 9.63986C11.712 9.28648 11.337 9.00002 10.9364 9.00002C10.5354 9.00002 10.1271 9.28648 10.1271 9.63986L10.1271 13.7932L9.58496 13.7932L9.58496 9.63986C9.58496 9.28648 9.19324 9.00002 8.79224 9.00002C8.3916 9.00002 8 9.28648 8 9.63986L8 14.73C8.64844 15.6386 9.96765 16.3068 11.1864 16.562L11.1864 24.0401C11.1864 24.5698 11.4235 25 12.025 25C12.6261 25 12.7803 24.5698 12.7803 24.0401Z"
          clip-rule="evenodd" fill="#FFFFFF" fill-opacity="1.000000" fill-rule="evenodd"/>
</svg>
