<?xml version="1.0" encoding="UTF-8"?>
<!--
  - /*
  -    Copyright (c) 2025 Huawei Device Co., Ltd.
  -    Licensed under the Apache License, Version 2.0 (the "License");
  -    you may not use this file except in compliance with the License.
  -    You may obtain a copy of the License at
  -    http://www.apache.org/licenses/LICENSE-2.0
  -    Unless required by applicable law or agreed to in writing, software
  -    distributed under the License is distributed on an "AS IS" BASIS,
  -    WITHOUT WARRANTIES OR CONDITIONS OF ANY KIND, either express or implied.
  -    See the License for the specific language governing permissions and
  -    limitations under the License.
  -  */
  -
  -->

<svg width="24px" height="24px" viewBox="0 0 24 24" version="1.1" xmlns="http://www.w3.org/2000/svg" xmlns:xlink="http://www.w3.org/1999/xlink">
    <title>编组 3</title>
    <defs>
        <path d="M22,0 L22,22 L0,22 L0,0 L22,0 Z M15.675,2.475 L4.125,2.475 C1.99870371,2.475 0.275,4.19870371 0.275,6.325 L0.275,17.875 C0.275,20.0012963 1.99870371,21.725 4.125,21.725 L15.675,21.725 C17.8012963,21.725 19.525,20.0012963 19.525,17.875 L19.525,6.325 C19.525,4.19870371 17.8012963,2.475 15.675,2.475 Z" id="path-1"></path>
    </defs>
    <g id="方特" stroke="none" stroke-width="1" fill="none" fill-rule="evenodd">
        <g id="我的" transform="translate(-47.000000, -606.000000)">
            <g id="编组-3" transform="translate(47.000000, 606.000000)">
                <rect id="矩形备份-2" fill="#FFFFFF" x="0" y="0" width="24" height="24" rx="1"></rect>
                <g id="ic_public_message_two_colors1" transform="translate(1.000000, 1.000000)">
                    <path d="M0.690006121,10.9916023 C0.690006121,9.38052248 0.684367347,7.76944268 0.690006121,6.15836288 C0.686764824,5.37876281 0.782585668,4.60190967 0.97516705,3.84646337 C1.39726966,2.24746666 2.43883204,1.29854065 4.03621655,0.930408921 C4.83716585,0.757356623 5.65524822,0.676278029 6.47458414,0.688746951 C9.56409602,0.688746951 12.6538764,0.688746951 15.7439254,0.688746951 C16.5243132,0.68390262 17.3024392,0.773155932 18.0614621,0.954575119 C19.7071789,1.35734507 20.6947702,2.3997137 21.070957,4.03979294 C21.2400827,4.81492211 21.320883,5.60671118 21.3118133,6.40002486 C21.3118133,9.52283452 21.3118133,12.6459127 21.3118133,15.7692595 C21.3160324,16.5421251 21.2270494,17.3126803 21.0467909,18.0642426 C20.6440212,19.7107662 19.5968201,20.6935249 17.956742,21.069712 C17.1556899,21.2421093 16.3376824,21.3231805 15.5183743,21.311374 C12.4417511,21.311374 9.36539633,21.311374 6.28931009,21.311374 C5.50295703,21.3177921 4.71867101,21.229898 3.953246,21.0495735 C2.30027927,20.6468036 1.3078548,19.5996017 0.932473465,17.951467 C0.740755102,17.1137055 0.690006121,16.2735274 0.690006121,15.4260995 C0.690006121,13.9482023 0.690006121,12.4700365 0.690006121,10.9916023 Z" id="path1" stroke-opacity="0" stroke="#FFFFFF" stroke-width="2" fill-opacity="0" fill="#FFFFFF" fill-rule="nonzero"></path>
                    <path d="M0.690006121,10.9916023 C0.690006121,9.38052248 0.684367347,7.76944268 0.690006121,6.15836288 C0.686764824,5.37876281 0.782585668,4.60190967 0.97516705,3.84646337 C1.39726966,2.24746666 2.43883204,1.29854065 4.03621655,0.930408921 C4.83716585,0.757356623 5.65524822,0.676278029 6.47458414,0.688746951 C9.56409602,0.688746951 12.6538764,0.688746951 15.7439254,0.688746951 C16.5243132,0.68390262 17.3024392,0.773155932 18.0614621,0.954575119 C19.7071789,1.35734507 20.6947702,2.3997137 21.070957,4.03979294 C21.2400827,4.81492211 21.320883,5.60671118 21.3118133,6.40002486 C21.3118133,9.52283452 21.3118133,12.6459127 21.3118133,15.7692595 C21.3160324,16.5421251 21.2270494,17.3126803 21.0467909,18.0642426 C20.6440212,19.7107662 19.5968201,20.6935249 17.956742,21.069712 C17.1556899,21.2421093 16.3376824,21.3231805 15.5183743,21.311374 C12.4417511,21.311374 9.36539633,21.311374 6.28931009,21.311374 C5.50295703,21.3177921 4.71867101,21.229898 3.953246,21.0495735 C2.30027927,20.6468036 1.3078548,19.5996017 0.932473465,17.951467 C0.740755102,17.1137055 0.690006121,16.2735274 0.690006121,15.4260995 C0.690006121,13.9482023 0.690006121,12.4700365 0.690006121,10.9916023 Z" id="path2" stroke-opacity="0" stroke="#FFFFFF" stroke-width="2" opacity="0.200000003"></path>
                    <circle id="path3" fill-opacity="0" fill="#FFFFFF" fill-rule="nonzero" cx="11" cy="11" r="11"></circle>
                    <g id="path5-Clipped">
                        <mask id="mask-2" fill="white">
                            <use xlink:href="#path-1"></use>
                        </mask>
                        <g id="path-1"></g>
                        <path d="M8.46999977,1.65 L15.7300002,1.65 C18.2815556,1.65 20.35,3.71844436 20.35,6.26999977 L20.35,9.13000023 C20.35,11.6815556 18.2815556,13.75 15.7300002,13.75 L8.46999977,13.75 C5.91844435,13.75 3.85,11.6815556 3.85,9.13000023 L3.85,6.26999977 C3.85,3.71844436 5.91844435,1.65 8.46999977,1.65 Z" id="path5" stroke="#458EF8" stroke-width="1.5" stroke-linecap="round" stroke-linejoin="round" mask="url(#mask-2)"></path>
                    </g>
                    <path d="M4.4,16.5051955 C4.27985029,16.5051955 4.09651695,16.5051955 3.85,16.5051955 C2.33121694,16.5051955 1.1,15.2739786 1.1,13.7551955 L1.1,7.15 C1.1,5.63121694 2.33121694,4.4 3.85,4.4 L14.85,4.4 C16.3687831,4.4 17.6,5.63121694 17.6,7.15 L17.6,13.7551955 C17.6,15.2739786 16.3687831,16.5051955 14.85,16.5051955 C11.3877983,16.5051955 10.1006847,16.5051955 8.79621976,16.5051955 L4.85604657,19.9514287 C4.74172609,20.051418 4.56799374,20.0398002 4.46800449,19.9254798 C4.42416353,19.8753552 4.4,19.8110253 4.4,19.7444332 L4.4,16.5051955 L4.4,16.5051955 Z" id="path7" stroke="#191919" stroke-width="1.5" fill-opacity="0" fill="#FFFFFF" fill-rule="nonzero" stroke-linecap="round" stroke-linejoin="round"></path>
                    <path d="M4.4,8.25 L14.3,8.25 M4.4,12.65 L8.8,12.65" id="path8" stroke="#191919" stroke-width="1.5" stroke-linecap="round" stroke-linejoin="round"></path>
                </g>
            </g>
        </g>
    </g>
</svg>