<?xml version="1.0" encoding="UTF-8"?>
<!--
  - /*
  -    Copyright (c) 2025 Huawei Device Co., Ltd.
  -    Licensed under the Apache License, Version 2.0 (the "License");
  -    you may not use this file except in compliance with the License.
  -    You may obtain a copy of the License at
  -    http://www.apache.org/licenses/LICENSE-2.0
  -    Unless required by applicable law or agreed to in writing, software
  -    distributed under the License is distributed on an "AS IS" BASIS,
  -    WITHOUT WARRANTIES OR CONDITIONS OF ANY KIND, either express or implied.
  -    See the License for the specific language governing permissions and
  -    limitations under the License.
  -  */
  -
  -->

<svg width="36px" height="36px" viewBox="0 0 36 36" version="1.1" xmlns="http://www.w3.org/2000/svg" xmlns:xlink="http://www.w3.org/1999/xlink">
    <title>编组 8</title>
    <g id="方特" stroke="none" stroke-width="1" fill="none" fill-rule="evenodd">
        <g id="我的" transform="translate(-198.000000, -338.000000)">
            <g id="编组-8" transform="translate(198.000000, 338.000000)">
                <circle id="椭圆形" fill="#FEB754" cx="18" cy="18" r="18"></circle>
                <g id="卡券" transform="translate(8.000000, 7.000000)" fill="#FFFFFF" fill-rule="nonzero">
                    <path d="M18.0728427,4.74498402 C19.1220734,4.7485166 19.9717319,5.59827416 19.975142,6.64750533 L19.975142,16.159446 C19.9716102,17.2085905 19.1219872,18.0582135 18.0728427,18.0617454 L1.90229936,18.0617454 C0.853154873,18.0582135 0.00353188792,17.2085905 -4.26325641e-14,16.159446 L-4.26325641e-14,6.64750533 C0.00341017272,5.59827416 0.853068603,4.7485166 1.90229936,4.74498402 L18.0728427,4.74498402 Z M17.3592862,14.732555 L14.9813565,14.732555 C14.6009411,14.732555 14.268022,15.0652521 14.268022,15.4458896 C14.268022,15.826527 14.6009411,16.159446 14.9813565,16.159446 L14.9813565,16.159446 L17.3592862,16.159446 C17.7399237,16.159446 18.0728427,15.826305 18.0728427,15.4458896 C18.0728427,15.0654741 17.7399237,14.732555 17.3592862,14.732555 L17.3592862,14.732555 Z M12.6034268,14.732555 L10.2252752,14.732555 C9.84485973,14.732555 9.5119407,15.0652521 9.5119407,15.4458896 C9.5119407,15.826527 9.84485973,16.159446 10.2252752,16.159446 L10.2252752,16.159446 L12.6034268,16.159446 C12.9838423,16.159446 13.3167614,15.826305 13.3167614,15.4458896 C13.3167614,15.0654741 12.9838423,14.732555 12.6034268,14.732555 L12.6034268,14.732555 Z M17.3592862,6.64750533 L2.61585582,6.64750533 C2.23521839,6.64750533 1.90229936,6.98042436 1.90229936,7.36083984 C1.90229936,7.74125533 2.23521839,8.07417436 2.61585582,8.07417436 L2.61585582,8.07417436 L17.3592862,8.07417436 C17.7399237,8.07417436 18.0728427,7.74125533 18.0728427,7.36083984 C18.0728427,6.98042436 17.7399237,6.64750533 17.3592862,6.64750533 L17.3592862,6.64750533 Z" id="形状结合"></path>
                    <path d="M6.70587713,0.179332386 C5.75483842,-0.248801491 4.61337003,0.131613991 4.18523615,1.08287464 L2.47314453,4.74498402 L16.5032404,4.74498402 L6.70587713,0.179332386 Z" id="形状" fill-opacity="0.5"></path>
                </g>
            </g>
        </g>
    </g>
</svg>