<!--
  - Copyright (c) 2025 Huawei Device Co., Ltd.
  - Licensed under the Apache License, Version 2.0 (the "License");
  - you may not use this file except in compliance with the License.
  - You may obtain a copy of the License at
  -
  -     http://www.apache.org/licenses/LICENSE-2.0
  -
  - Unless required by applicable law or agreed to in writing, software
  - distributed under the License is distributed on an "AS IS" BASIS,
  - WITHOUT WARRANTIES OR CONDITIONS OF ANY KIND, either express or implied.
  - See the License for the specific language governing permissions and
  - limitations under the License.
  -->

<svg width="24.002197" height="24.001526" viewBox="0 0 24.0022 24.0015" fill="none" xmlns="http://www.w3.org/2000/svg"
>
    <desc>
        Created with Pixso.
    </desc>
    <defs/>
    <rect x="0.002197" y="0.001526" width="24.000000" height="24.000000" fill="#FFFFFF" fill-opacity="0"/>
    <path d="M0 11.99C0 10.11 -0.01 8.24 0 6.36C-0.01 5.45 0.11 4.55 0.33 3.67C0.82 1.81 2.03 0.71 3.89 0.28C4.82 0.08 5.78 -0.02 6.73 0C10.32 0 13.92 0 17.52 0C18.42 -0.01 19.33 0.09 20.21 0.31C22.13 0.77 23.28 1.99 23.71 3.9C23.91 4.8 24 5.72 23.99 6.64C23.99 10.28 23.99 13.91 23.99 17.54C24 18.44 23.9 19.34 23.69 20.22C23.22 22.13 22 23.27 20.09 23.71C19.16 23.91 18.21 24.01 17.25 23.99C13.67 23.99 10.09 23.99 6.51 23.99C5.6 24 4.69 23.9 3.8 23.69C1.87 23.22 0.72 22 0.28 20.08C0.06 19.11 0 18.13 0 17.15C0 15.43 0 13.71 0 11.99Z"
          fill="#FFFFFF" fill-opacity="0" fill-rule="evenodd"/>
    <circle cx="12.002197" cy="12.001526" r="12.000000" fill="#FFFFFF" fill-opacity="0"/>
    <path d="M12 3C5.92 3 1 6.66 1 11.17C1 13.39 2.19 15.41 4.13 16.89C4.13 16.89 4.71 18.53 3.08 20.36C1.45 22.2 6.9 20.53 9.02 19.06C9.96 19.26 10.97 19.35 12 19.35C18.07 19.35 23 15.69 23 11.17C23 6.66 18.07 3 12 3Z"
          fill="#FFFFFF" fill-opacity="0" fill-rule="evenodd"/>
    <path d="M1 11.17C1 13.39 2.19 15.41 4.13 16.89C4.13 16.89 4.71 18.53 3.08 20.36C1.45 22.2 6.9 20.53 9.02 19.06C9.96 19.26 10.97 19.35 12 19.35C18.07 19.35 23 15.69 23 11.17C23 6.66 18.07 3 12 3C5.92 3 1 6.66 1 11.17Z"
          fill="#000000" fill-opacity="0" fill-rule="nonzero"/>
    <path d="M4.13 16.89C4.13 16.89 4.71 18.53 3.08 20.36C1.45 22.2 6.9 20.53 9.02 19.06C9.96 19.26 10.97 19.35 12 19.35C18.07 19.35 23 15.69 23 11.17C23 6.66 18.07 3 12 3C5.92 3 1 6.66 1 11.17C1 13.39 2.19 15.41 4.13 16.89Z"
          stroke="#191919" stroke-opacity="1.000000" stroke-width="1.500000" stroke-linejoin="round"/>
    <path d="M6 11.7C6 11.03 6.53 10.5 7.19 10.5C7.86 10.5 8.39 11.03 8.39 11.7C8.39 12.36 7.86 12.9 7.19 12.9C6.53 12.9 6 12.36 6 11.7ZM10.8 11.7C10.8 11.03 11.33 10.5 12 10.5C12.66 10.5 13.19 11.03 13.19 11.7C13.19 12.36 12.66 12.9 12 12.9C11.33 12.9 10.8 12.36 10.8 11.7ZM16.8 10.5C16.13 10.5 15.6 11.03 15.6 11.7C15.6 12.36 16.13 12.9 16.8 12.9C17.46 12.9 18 12.36 18 11.7C18 11.03 17.46 10.5 16.8 10.5Z"
          fill="#191919" fill-opacity="1.000000" fill-rule="evenodd"/>
</svg>
