<!--
  - Copyright (c) 2025 Huawei Device Co., Ltd.
  - Licensed under the Apache License, Version 2.0 (the "License");
  - you may not use this file except in compliance with the License.
  - You may obtain a copy of the License at
  -
  -     http://www.apache.org/licenses/LICENSE-2.0
  -
  - Unless required by applicable law or agreed to in writing, software
  - distributed under the License is distributed on an "AS IS" BASIS,
  - WITHOUT WARRANTIES OR CONDITIONS OF ANY KIND, either express or implied.
  - See the License for the specific language governing permissions and
  - limitations under the License.
  -->

<svg width="24.000000" height="24.000000" viewBox="0 0 24 24" fill="none" xmlns="http://www.w3.org/2000/svg"
>
    <desc>
        Created with Pixso.
    </desc>
    <defs>
        <clipPath id="clip63_12026">
            <rect width="24.000000" height="24.000000" fill="white" fill-opacity="0"/>
        </clipPath>
    </defs>
    <g clip-path="url(#clip63_12026)">
        <path d="M0 11.99C0 10.11 -0.01 8.24 0 6.36C-0.01 5.45 0.11 4.55 0.33 3.67C0.82 1.81 2.03 0.71 3.89 0.27C4.82 0.08 5.78 -0.02 6.72 0C10.32 0 13.91 0 17.52 0C18.42 -0.01 19.33 0.09 20.21 0.3C22.13 0.77 23.28 1.99 23.71 3.9C23.91 4.8 24 5.72 23.99 6.64C23.99 10.28 23.99 13.91 23.99 17.54C24 18.44 23.89 19.34 23.68 20.21C23.22 22.13 22 23.27 20.09 23.71C19.15 23.91 18.2 24.01 17.25 23.99C13.67 23.99 10.09 23.99 6.51 23.99C5.6 24 4.68 23.9 3.8 23.69C1.87 23.22 0.71 22 0.28 20.08C0.06 19.11 0 18.13 0 17.15C0 15.43 0 13.71 0 11.99Z"
              fill="#FFFFFF" fill-opacity="0" fill-rule="evenodd"/>
        <circle cx="12.000000" cy="12.000000" r="12.000000" fill="#FFFFFF" fill-opacity="0"/>
        <path d="M10.19 1C9.49 1 8.88 1.48 8.72 2.16L8.28 4.13L7.04 4.85L5.11 4.25C4.44 4.04 3.72 4.32 3.37 4.93L1.57 8.06C1.21 8.66 1.33 9.43 1.85 9.91L3.33 11.28L3.33 12.71L1.85 14.08C1.33 14.56 1.21 15.33 1.57 15.93L3.37 19.06C3.72 19.66 4.44 19.95 5.11 19.74L7.05 19.14L8.28 19.85L8.72 21.83C8.88 22.51 9.49 23 10.19 23L13.8 23C14.5 23 15.11 22.51 15.26 21.83L15.71 19.84L16.93 19.14L18.88 19.74C19.54 19.95 20.27 19.66 20.62 19.06L22.42 15.93C22.77 15.33 22.66 14.56 22.14 14.08L20.65 12.7L20.65 11.29L22.14 9.91C22.66 9.43 22.77 8.66 22.42 8.06L20.62 4.93C20.27 4.32 19.54 4.04 18.88 4.25L16.94 4.85L15.71 4.14L15.26 2.16C15.11 1.48 14.5 1 13.8 1L10.19 1Z"
              fill="#000000" fill-opacity="0" fill-rule="nonzero"/>
        <path d="M8.72 2.16L8.28 4.13L7.04 4.85L5.11 4.25C4.44 4.04 3.72 4.32 3.37 4.93L1.57 8.06C1.21 8.66 1.33 9.43 1.85 9.91L3.33 11.28L3.33 12.71L1.85 14.08C1.33 14.56 1.21 15.33 1.57 15.93L3.37 19.06C3.72 19.66 4.44 19.95 5.11 19.74L7.05 19.14L8.28 19.85L8.72 21.83C8.88 22.51 9.49 23 10.19 23L13.8 23C14.5 23 15.11 22.51 15.26 21.83L15.71 19.84L16.93 19.14L18.88 19.74C19.54 19.95 20.27 19.66 20.62 19.06L22.42 15.93C22.77 15.33 22.66 14.56 22.14 14.08L20.65 12.7L20.65 11.29L22.14 9.91C22.66 9.43 22.77 8.66 22.42 8.06L20.62 4.93C20.27 4.32 19.54 4.04 18.88 4.25L16.94 4.85L15.71 4.14L15.26 2.16C15.11 1.48 14.5 1 13.8 1L10.19 1C9.49 1 8.88 1.48 8.72 2.16Z"
              stroke="#191919" stroke-opacity="1.000000" stroke-width="1.500000" stroke-linejoin="round"/>
        <ellipse cx="12.000000" cy="12.000000" rx="4.500000" ry="4.499998" fill="#000000" fill-opacity="0"/>
        <ellipse cx="12.000000" cy="12.000000" rx="4.500000" ry="4.499998" stroke="#191919" stroke-opacity="1.000000"
                 stroke-width="1.500000"/>
        <path d="M10.15 0L13.83 0C14.45 0 14.93 0.14 15.31 0.44C15.68 0.74 15.94 1.19 16.07 1.78L16.46 3.47L17.14 3.87L18.79 3.35C19.38 3.17 19.89 3.17 20.34 3.35C20.79 3.51 21.16 3.87 21.47 4.4L23.31 7.59C23.61 8.12 23.73 8.62 23.65 9.09C23.58 9.56 23.32 10.01 22.87 10.42L21.6 11.61L21.6 12.38L22.87 13.57C23.32 13.98 23.58 14.43 23.65 14.9C23.73 15.37 23.61 15.87 23.31 16.4L21.47 19.59C21.16 20.12 20.79 20.47 20.34 20.64C19.89 20.82 19.38 20.82 18.79 20.64L17.13 20.12L16.46 20.51L16.07 22.21C15.94 22.8 15.68 23.25 15.31 23.55C14.93 23.85 14.45 24 13.83 24L10.15 24C9.54 24 9.05 23.85 8.67 23.55C8.3 23.25 8.05 22.8 7.91 22.21L7.53 20.51L6.85 20.12L5.19 20.64C4.6 20.82 4.09 20.82 3.64 20.64C3.2 20.47 2.82 20.12 2.52 19.59L0.68 16.4C0.37 15.87 0.26 15.37 0.33 14.9C0.4 14.43 0.66 13.98 1.11 13.57L2.38 12.39L2.38 11.6L1.11 10.42C0.66 10.01 0.4 9.56 0.33 9.09C0.26 8.62 0.37 8.12 0.68 7.59L2.52 4.4C2.82 3.87 3.2 3.51 3.64 3.35C4.09 3.17 4.6 3.17 5.19 3.35L6.84 3.87L7.53 3.47L7.91 1.78C8.05 1.19 8.3 0.74 8.67 0.44C9.05 0.14 9.54 0 10.15 0ZM12 6.75C9.09 6.75 6.75 9.1 6.75 12C6.75 14.89 9.09 17.25 12 17.25C14.89 17.25 17.25 14.89 17.25 12C17.25 9.1 14.89 6.75 12 6.75Z"
              fill="#FFFFFF" fill-opacity="0" fill-rule="evenodd"/>
        <path d="M12 8.25C9.92 8.25 8.25 9.92 8.25 12C8.25 14.07 9.92 15.75 12 15.75C14.07 15.75 15.75 14.07 15.75 12C15.75 9.92 14.07 8.25 12 8.25Z"
              fill="#FFFFFF" fill-opacity="0" fill-rule="evenodd"/>
    </g>
</svg>
