<!--
  - Copyright (c) 2025 Huawei Device Co., Ltd.
  - Licensed under the Apache License, Version 2.0 (the "License");
  - you may not use this file except in compliance with the License.
  - You may obtain a copy of the License at
  -
  -     http://www.apache.org/licenses/LICENSE-2.0
  -
  - Unless required by applicable law or agreed to in writing, software
  - distributed under the License is distributed on an "AS IS" BASIS,
  - WITHOUT WARRANTIES OR CONDITIONS OF ANY KIND, either express or implied.
  - See the License for the specific language governing permissions and
  - limitations under the License.
  -->

<svg width="24.000000" height="24.000000" viewBox="0 0 24 24" fill="none" xmlns="http://www.w3.org/2000/svg"
>
    <desc>
        Created with Pixso.
    </desc>
    <defs/>
    <rect width="24.000000" height="24.000000" fill="#FFFFFF" fill-opacity="0"/>
    <rect x="0.500000" y="0.500000" width="23.000000" height="23.000000" stroke="#979797" stroke-opacity="0"
          stroke-width="1.000000"/>
    <path d="M2.62 11.99C2.62 10.52 2.62 9.06 2.62 7.59C2.62 6.88 2.71 6.18 2.88 5.49C3.27 4.04 4.21 3.18 5.66 2.84C6.39 2.68 7.14 2.61 7.88 2.62C10.69 2.62 13.5 2.62 16.31 2.62C17.02 2.62 17.72 2.7 18.41 2.86C19.91 3.23 20.81 4.18 21.15 5.67C21.3 6.37 21.38 7.09 21.37 7.81C21.37 10.65 21.37 13.49 21.37 16.33C21.37 17.03 21.29 17.73 21.13 18.42C20.76 19.91 19.81 20.81 18.32 21.15C17.59 21.31 16.85 21.38 16.1 21.37C13.31 21.37 10.51 21.37 7.71 21.37C7 21.37 6.28 21.29 5.59 21.13C4.09 20.76 3.18 19.81 2.84 18.31C2.67 17.55 2.62 16.79 2.62 16.02C2.62 14.68 2.62 13.33 2.62 11.99Z"
          fill="#FFFFFF" fill-opacity="0" fill-rule="evenodd"/>
    <path d="M2.62 7.59C2.62 6.88 2.71 6.18 2.88 5.49C3.27 4.04 4.21 3.18 5.66 2.84C6.39 2.68 7.14 2.61 7.88 2.62C10.69 2.62 13.5 2.62 16.31 2.62C17.02 2.62 17.72 2.7 18.41 2.86C19.91 3.23 20.81 4.18 21.15 5.67C21.3 6.37 21.38 7.09 21.37 7.81C21.37 10.65 21.37 13.49 21.37 16.33C21.37 17.03 21.29 17.73 21.13 18.42C20.76 19.91 19.81 20.81 18.32 21.15C17.59 21.31 16.85 21.38 16.1 21.37C13.31 21.37 10.51 21.37 7.71 21.37C7 21.37 6.28 21.29 5.59 21.13C4.09 20.76 3.18 19.81 2.84 18.31C2.67 17.55 2.62 16.79 2.62 16.02C2.62 14.68 2.62 13.33 2.62 11.99C2.62 10.52 2.62 9.06 2.62 7.59Z"
          stroke="#FFFFFF" stroke-opacity="0" stroke-width="2.000000"/>
    <g opacity="0.200000">
        <path d="M2.62 7.59C2.62 6.88 2.71 6.18 2.88 5.49C3.27 4.04 4.21 3.18 5.66 2.84C6.39 2.68 7.14 2.61 7.88 2.62C10.69 2.62 13.5 2.62 16.31 2.62C17.02 2.62 17.72 2.7 18.41 2.86C19.91 3.23 20.81 4.18 21.15 5.67C21.3 6.37 21.38 7.09 21.37 7.81C21.37 10.65 21.37 13.49 21.37 16.33C21.37 17.03 21.29 17.73 21.13 18.42C20.76 19.91 19.81 20.81 18.32 21.15C17.59 21.31 16.85 21.38 16.1 21.37C13.31 21.37 10.51 21.37 7.71 21.37C7 21.37 6.28 21.29 5.59 21.13C4.09 20.76 3.18 19.81 2.84 18.31C2.67 17.55 2.62 16.79 2.62 16.02C2.62 14.68 2.62 13.33 2.62 11.99C2.62 10.52 2.62 9.06 2.62 7.59Z"
              stroke="#FFFFFF" stroke-opacity="0" stroke-width="2.000000"/>
    </g>
    <circle cx="12.000000" cy="12.000000" r="10.000000" fill="#FFFFFF" fill-opacity="0"/>
    <mask id="mask50_9107" mask-type="alpha" maskUnits="userSpaceOnUse" x="2.000000" y="2.000061" width="20.000488"
          height="20.000580">
        <path d="M22.0005 3.37274L22 2.00064L20.6279 2.00006C20.9055 2.16032 21.1667 2.35916 21.4043 2.59656C21.6416 2.83392 21.8403 3.09525 22.0005 3.37274ZM16.8889 2.00023C16.6116 2.16042 16.3503 2.35912 16.113 2.59636L7.43066 11.2772C7.23853 11.4693 7.09375 11.7035 7.00684 11.9642L5.35962 16.3907C4.83765 17.7949 6.2063 19.1633 7.61035 18.6407L12.0769 16.9785C12.3196 16.8913 12.54 16.7514 12.7263 16.5651L21.4041 7.88776C21.6416 7.65038 21.8403 7.38905 22.0005 7.11154L22 22.0006L2 22.0006L2 2.00064L16.8889 2.00023ZM12.0769 16.9785C12.0642 16.9831 12.0513 16.9875 12.0383 16.9918L12.0923 16.9727L12.0769 16.9785Z"
              clip-rule="evenodd" fill="#C4C4C4" fill-opacity="1.000000" fill-rule="evenodd"/>
    </mask>
    <g mask="url(#mask50_9107)">
        <path d="M5.71 3.79L15.02 3.66C15.06 3.66 15.1 3.66 15.15 3.66L17.5 3.75C18.84 3.79 19.91 4.9 19.91 6.24L19.91 17.83C19.91 19.21 18.79 20.33 17.41 20.33L5.75 20.33C4.36 20.33 3.25 19.21 3.25 17.83L3.25 6.29C3.25 4.93 4.34 3.81 5.71 3.79Z"
              fill="#FFFFFF" fill-opacity="0" fill-rule="evenodd"/>
        <path d="M15.02 3.66C15.06 3.66 15.1 3.66 15.15 3.66L17.5 3.75C18.84 3.79 19.91 4.9 19.91 6.24L19.91 17.83C19.91 19.21 18.79 20.33 17.41 20.33L5.75 20.33C4.36 20.33 3.25 19.21 3.25 17.83L3.25 6.29C3.25 4.93 4.34 3.81 5.71 3.79L15.02 3.66Z"
              stroke="#191919" stroke-opacity="1.000000" stroke-width="1.500000" stroke-linejoin="round"/>
    </g>
    <path d="M20.6973 7.18065L12.02 15.8581L12.0154 15.8627C11.9353 15.9429 11.8418 16.0018 11.7354 16.0394L7.26172 17.7036C7.02734 17.7908 6.82983 17.7976 6.66895 17.724C6.5083 17.6504 6.38428 17.4965 6.29712 17.2622C6.26465 17.175 6.24854 17.0879 6.24854 17.0007C6.24854 16.9135 6.26465 16.8264 6.29712 16.7392L7.9646 12.2559C7.96899 12.2444 7.97339 12.2331 7.97827 12.2219L7.97949 12.2189C8.01733 12.1305 8.07031 12.0522 8.13843 11.9842L8.1394 11.9833L16.8203 3.30353C16.9619 3.16199 17.115 3.03844 17.2795 2.93289L17.2795 2.93288C17.4204 2.84254 17.5698 2.7654 17.7275 2.70142C17.8853 2.6375 18.0459 2.58884 18.21 2.55544C18.3892 2.51892 18.572 2.50067 18.7588 2.50067C19.1162 2.50069 19.46 2.56763 19.79 2.70151C19.9478 2.76546 20.0969 2.84259 20.2378 2.93288L20.2378 2.93289C20.4026 3.03848 20.5557 3.16208 20.6973 3.30368C20.96 3.56638 21.1606 3.86879 21.2993 4.21095C21.3633 4.36858 21.4119 4.52933 21.4453 4.69319C21.4819 4.87245 21.5 5.05545 21.5 5.24216C21.5 5.42888 21.4819 5.61188 21.4453 5.79114C21.4119 5.955 21.3633 6.11574 21.2993 6.27338C21.1606 6.61552 20.96 6.91795 20.6973 7.18065ZM19.6365 6.12001C19.7063 6.05013 19.7666 5.97424 19.8169 5.89236C19.8525 5.83447 19.8833 5.77359 19.9092 5.70972C19.9697 5.56036 20 5.40451 20 5.24216C20 5.15292 19.991 5.06566 19.9727 4.98036C19.9578 4.91046 19.9365 4.84187 19.9092 4.77461C19.8467 4.62038 19.7559 4.48361 19.6365 4.3643C19.5173 4.24501 19.3804 4.15408 19.2263 4.09154C19.0769 4.03096 18.9211 4.00067 18.7588 4.00067C18.5964 4.00067 18.4407 4.03094 18.2913 4.09149C18.137 4.15404 18.0002 4.24495 17.8809 4.36426L9.31445 12.9294L8.27417 15.7265L11.0706 14.6862L19.6365 6.12001Z"
          clip-rule="evenodd" fill="#458EF8" fill-opacity="1.000000" fill-rule="evenodd"/>
</svg>
