<!--
  - Copyright (c) 2025 Huawei Device Co., Ltd.
  - Licensed under the Apache License, Version 2.0 (the "License");
  - you may not use this file except in compliance with the License.
  - You may obtain a copy of the License at
  -
  -     http://www.apache.org/licenses/LICENSE-2.0
  -
  - Unless required by applicable law or agreed to in writing, software
  - distributed under the License is distributed on an "AS IS" BASIS,
  - WITHOUT WARRANTIES OR CONDITIONS OF ANY KIND, either express or implied.
  - See the License for the specific language governing permissions and
  - limitations under the License.
  -->

<svg width="44.011230" height="43.602821" viewBox="0 0 44.0112 43.6028" fill="none" xmlns="http://www.w3.org/2000/svg"
>
    <desc>
        Created with Pixso.
    </desc>
    <defs>
        <filter id="filter_50_9328_dd" x="1.198975" y="11.635605" width="41.292236" height="27.804840"
                filterUnits="userSpaceOnUse" color-interpolation-filters="sRGB">
            <feFlood flood-opacity="0" result="BackgroundImageFix"/>
            <feGaussianBlur in="BackgroundImage" stdDeviation="10.6734"/>
            <feComposite in2="SourceAlpha" operator="in" result="effect_backgroundBlur_1"/>
            <feBlend mode="normal" in="SourceGraphic" in2="effect_backgroundBlur_1" result="shape"/>
            <feColorMatrix in="SourceAlpha" type="matrix" values="0 0 0 0 0 0 0 0 0 0 0 0 0 0 0 0 0 0 127 0"
                           result="hardAlpha"/>
            <feOffset dx="0" dy="-8"/>
            <feGaussianBlur stdDeviation="2.66667"/>
            <feComposite in2="hardAlpha" operator="arithmetic" k2="-1" k3="1"/>
            <feColorMatrix type="matrix" values="0 0 0 0 0.72157 0 0 0 0 0.98039 0 0 0 0 0.72157 0 0 0 1 0"/>
            <feBlend mode="normal" in2="shape" result="effect_innerShadow_2"/>
        </filter>
        <filter id="filter_50_9329_dd" x="0.000000" y="10.830994" width="44.011230" height="32.771828"
                filterUnits="userSpaceOnUse" color-interpolation-filters="sRGB">
            <feFlood flood-opacity="0" result="BackgroundImageFix"/>
            <feColorMatrix in="SourceAlpha" type="matrix" values="0 0 0 0 0 0 0 0 0 0 0 0 0 0 0 0 0 0 127 0"
                           result="hardAlpha"/>
            <feOffset dx="0" dy="2"/>
            <feGaussianBlur stdDeviation="3"/>
            <feComposite in2="hardAlpha" operator="out" k2="-1" k3="1"/>
            <feColorMatrix type="matrix" values="0 0 0 0 0.45882 0 0 0 0 0.75294 0 0 0 0 0.41569 0 0 0 0.61 0"/>
            <feBlend mode="normal" in2="BackgroundImageFix" result="effect_dropShadow_1"/>
            <feBlend mode="normal" in="SourceGraphic" in2="effect_dropShadow_1" result="shape"/>
        </filter>
        <linearGradient x1="20.431259" y1="10.007019" x2="20.431259" y2="29.274624" id="paint_linear_50_9326_0"
                        gradientUnits="userSpaceOnUse">
            <stop stop-color="#B4EC51"/>
            <stop offset="1.000000" stop-color="#429321"/>
        </linearGradient>
        <linearGradient x1="21.435303" y1="16.500000" x2="21.435303" y2="32.500000" id="paint_linear_50_9330_0"
                        gradientUnits="userSpaceOnUse">
            <stop stop-color="#B4EC51"/>
            <stop offset="1.000000" stop-color="#429321"/>
        </linearGradient>
    </defs>
    <rect x="5.360840" y="10.007019" rx="6.840000" width="30.140844" height="19.267605"
          transform="rotate(-19 5.360840 10.007019)" fill="url(#paint_linear_50_9326_0)" fill-opacity="1.000000"/>
    <rect x="5.996338" y="10.317001" rx="6.840000" width="29.140844" height="18.267605"
          transform="rotate(-19 5.996338 10.317001)" stroke="#979797" stroke-opacity="0" stroke-width="1.000000"/>
    <g filter="url(#filter_50_9328_dd)">
        <rect x="1.935303" y="12.371826" rx="6.840000" width="39.819717" height="26.332394" fill="#CAFFE5"
              fill-opacity="1.000000"/>
    </g>
    <rect x="1.935303" y="12.371826" rx="6.840000" width="39.819717" height="26.332394" stroke="#FFFFFF"
          stroke-opacity="1.000000" stroke-width="1.472447"/>
    <g filter="url(#filter_50_9329_dd)">
        <path d="M35.01 21.27L35.01 29.15C33.17 29.15 31.67 30.7 31.67 32.6L12.33 32.6C12.33 30.7 10.84 29.15 9 29.15L9 21.27C10.84 21.27 12.33 19.73 12.33 17.83L31.67 17.83C31.67 19.73 33.17 21.27 35.01 21.27Z"
              fill="#FFFFFF" fill-opacity="1.000000" fill-rule="evenodd"/>
        <path d="" fill="#FFFFFF" fill-opacity="0" fill-rule="evenodd"/>
    </g>
    <path d="M22.75 21.12L21.14 23.94L19.48 21.12L17.48 21.12L19.77 24.87L18.31 24.87L18.31 26.12L20.23 26.12L20.23 26.79L18.31 26.79L18.31 28.04L20.23 28.04L20.23 29.9L21.98 29.9L21.98 28.04L23.92 28.04L23.92 26.79L21.98 26.79L21.98 26.12L23.92 26.12L23.92 24.87L22.39 24.87L24.59 21.12L22.75 21.12Z"
          fill="url(#paint_linear_50_9330_0)" fill-opacity="1.000000" fill-rule="evenodd"/>
</svg>
