<!--
  - Copyright (c) 2025 Huawei Device Co., Ltd.
  - Licensed under the Apache License, Version 2.0 (the "License");
  - you may not use this file except in compliance with the License.
  - You may obtain a copy of the License at
  -
  -     http://www.apache.org/licenses/LICENSE-2.0
  -
  - Unless required by applicable law or agreed to in writing, software
  - distributed under the License is distributed on an "AS IS" BASIS,
  - WITHOUT WARRANTIES OR CONDITIONS OF ANY KIND, either express or implied.
  - See the License for the specific language governing permissions and
  - limitations under the License.
  -->

<svg width="24.000000" height="24.000000" viewBox="0 0 24 24" fill="none" xmlns="http://www.w3.org/2000/svg"
>
    <desc>
        Created with Pixso.
    </desc>
    <defs/>
    <rect width="24.000000" height="24.000000" fill="#C4C4C4" fill-opacity="0"/>
    <path d="M1.68 11.99C1.68 10.38 1.68 8.76 1.68 7.15C1.68 6.37 1.78 5.6 1.97 4.84C2.39 3.24 3.43 2.29 5.03 1.93C5.83 1.75 6.65 1.67 7.47 1.68C10.56 1.68 13.65 1.68 16.74 1.68C17.52 1.68 18.3 1.77 19.06 1.95C20.7 2.35 21.69 3.39 22.07 5.03C22.24 5.81 22.32 6.6 22.31 7.4C22.31 10.52 22.31 13.64 22.31 16.76C22.31 17.54 22.22 18.31 22.04 19.06C21.64 20.71 20.59 21.69 18.95 22.06C18.15 22.24 17.33 22.32 16.51 22.31C13.44 22.31 10.36 22.31 7.28 22.31C6.5 22.31 5.71 22.22 4.95 22.04C3.3 21.64 2.3 20.59 1.93 18.95C1.74 18.11 1.68 17.27 1.68 16.42C1.68 14.94 1.68 13.47 1.68 11.99Z"
          fill="#FFFFFF" fill-opacity="0" fill-rule="evenodd"/>
    <path d="M1.68 7.15C1.68 6.37 1.78 5.6 1.97 4.84C2.39 3.24 3.43 2.29 5.03 1.93C5.83 1.75 6.65 1.67 7.47 1.68C10.56 1.68 13.65 1.68 16.74 1.68C17.52 1.68 18.3 1.77 19.06 1.95C20.7 2.35 21.69 3.39 22.07 5.03C22.24 5.81 22.32 6.6 22.31 7.4C22.31 10.52 22.31 13.64 22.31 16.76C22.31 17.54 22.22 18.31 22.04 19.06C21.64 20.71 20.59 21.69 18.95 22.06C18.15 22.24 17.33 22.32 16.51 22.31C13.44 22.31 10.36 22.31 7.28 22.31C6.5 22.31 5.71 22.22 4.95 22.04C3.3 21.64 2.3 20.59 1.93 18.95C1.74 18.11 1.68 17.27 1.68 16.42C1.68 14.94 1.68 13.47 1.68 11.99C1.68 10.38 1.68 8.76 1.68 7.15Z"
          stroke="#FFFFFF" stroke-opacity="0" stroke-width="2.000000"/>
    <g opacity="0.200000">
        <path d="M1.68 7.15C1.68 6.37 1.78 5.6 1.97 4.84C2.39 3.24 3.43 2.29 5.03 1.93C5.83 1.75 6.65 1.67 7.47 1.68C10.56 1.68 13.65 1.68 16.74 1.68C17.52 1.68 18.3 1.77 19.06 1.95C20.7 2.35 21.69 3.39 22.07 5.03C22.24 5.81 22.32 6.6 22.31 7.4C22.31 10.52 22.31 13.64 22.31 16.76C22.31 17.54 22.22 18.31 22.04 19.06C21.64 20.71 20.59 21.69 18.95 22.06C18.15 22.24 17.33 22.32 16.51 22.31C13.44 22.31 10.36 22.31 7.28 22.31C6.5 22.31 5.71 22.22 4.95 22.04C3.3 21.64 2.3 20.59 1.93 18.95C1.74 18.11 1.68 17.27 1.68 16.42C1.68 14.94 1.68 13.47 1.68 11.99C1.68 10.38 1.68 8.76 1.68 7.15Z"
              stroke="#FFFFFF" stroke-opacity="0" stroke-width="2.000000"/>
    </g>
    <path d="M18.74 4.34C18.72 4.37 18.7 4.39 18.67 4.42L19.58 5.32C19.6 5.3 19.63 5.27 19.65 5.25C19.99 5 20.45 5.06 20.7 5.4L20.7 5.43L20.12 5.87C21.41 7.57 22.17 9.69 22.17 12C22.17 17.61 17.61 22.17 12 22.17C6.38 22.17 1.82 17.61 1.82 12C1.82 6.38 6.38 1.82 12 1.82C13.98 1.82 15.84 2.39 17.41 3.38C17.65 3.53 17.89 3.7 18.13 3.87L18.57 3.29L18.6 3.29C18.93 3.54 18.99 4.01 18.74 4.34Z"
          fill="#FFFFFF" fill-opacity="0" fill-rule="evenodd"/>
    <path d="M18.14 3.89C17.91 3.71 17.66 3.54 17.41 3.38C15.84 2.39 13.98 1.82 12 1.82C6.38 1.82 1.82 6.38 1.82 12C1.82 17.61 6.38 22.17 12 22.17C17.61 22.17 22.17 17.61 22.17 12C22.17 9.69 21.4 7.56 20.11 5.85"
          stroke="#191919" stroke-opacity="1.000000" stroke-width="1.500000" stroke-linejoin="round"
          stroke-linecap="round"/>
    <path d="M11.57 15.66L9.6 16.69C9.15 16.93 8.6 16.76 8.36 16.31C8.27 16.13 8.23 15.93 8.27 15.73L8.64 13.53C8.7 13.23 8.6 12.93 8.38 12.72L6.79 11.17C6.42 10.81 6.42 10.23 6.77 9.87C6.91 9.73 7.1 9.63 7.29 9.6L9.5 9.28C9.8 9.24 10.05 9.05 10.19 8.78L11.17 6.79C11.4 6.33 11.95 6.15 12.4 6.37C12.58 6.46 12.73 6.6 12.82 6.79L13.8 8.78C13.94 9.05 14.19 9.24 14.49 9.28L16.7 9.6C17.2 9.68 17.54 10.14 17.47 10.64C17.44 10.84 17.35 11.03 17.2 11.17L15.61 12.72C15.39 12.93 15.29 13.23 15.35 13.53L15.72 15.73C15.81 16.23 15.47 16.7 14.97 16.78C14.77 16.82 14.57 16.79 14.39 16.69L12.42 15.66C12.15 15.52 11.84 15.52 11.57 15.66Z"
          fill="#FFFFFF" fill-opacity="0" fill-rule="evenodd"/>
    <path d="M9.6 16.69C9.15 16.93 8.6 16.76 8.36 16.31C8.27 16.13 8.23 15.93 8.27 15.73L8.64 13.53C8.7 13.23 8.6 12.93 8.38 12.72L6.79 11.17C6.42 10.81 6.42 10.23 6.77 9.87C6.91 9.73 7.1 9.63 7.29 9.6L9.5 9.28C9.8 9.24 10.05 9.05 10.19 8.78L11.17 6.79C11.4 6.33 11.95 6.15 12.4 6.37C12.58 6.46 12.73 6.6 12.82 6.79L13.8 8.78C13.94 9.05 14.19 9.24 14.49 9.28L16.7 9.6C17.2 9.68 17.54 10.14 17.47 10.64C17.44 10.84 17.35 11.03 17.2 11.17L15.61 12.72C15.39 12.93 15.29 13.23 15.35 13.53L15.72 15.73C15.81 16.23 15.47 16.7 14.97 16.78C14.77 16.82 14.57 16.79 14.39 16.69L12.42 15.66C12.15 15.52 11.84 15.52 11.57 15.66L9.6 16.69Z"
          stroke="#458EF8" stroke-opacity="1.000000" stroke-width="1.500000" stroke-linejoin="round"/>
</svg>
