<!--
  - Copyright (c) 2025 Huawei Device Co., Ltd.
  - Licensed under the Apache License, Version 2.0 (the "License");
  - you may not use this file except in compliance with the License.
  - You may obtain a copy of the License at
  -
  -     http://www.apache.org/licenses/LICENSE-2.0
  -
  - Unless required by applicable law or agreed to in writing, software
  - distributed under the License is distributed on an "AS IS" BASIS,
  - WITHOUT WARRANTIES OR CONDITIONS OF ANY KIND, either express or implied.
  - See the License for the specific language governing permissions and
  - limitations under the License.
  -->

<svg width="40.781738" height="40.000000" viewBox="0 0 40.7817 40" fill="none" xmlns="http://www.w3.org/2000/svg"
>
    <desc>
        Created with Pixso.
    </desc>
    <defs>
        <filter id="filter_50_9319_dd" x="13.761230" y="10.499313" width="26.824463" height="26.824493"
                filterUnits="userSpaceOnUse" color-interpolation-filters="sRGB">
            <feFlood flood-opacity="0" result="BackgroundImageFix"/>
            <feBlend mode="normal" in="SourceGraphic" in2="BackgroundImageFix" result="shape"/>
            <feColorMatrix in="SourceAlpha" type="matrix" values="0 0 0 0 0 0 0 0 0 0 0 0 0 0 0 0 0 0 127 0"
                           result="hardAlpha"/>
            <feOffset dx="6" dy="6"/>
            <feGaussianBlur stdDeviation="2"/>
            <feComposite in2="hardAlpha" operator="arithmetic" k2="-1" k3="1"/>
            <feColorMatrix type="matrix" values="0 0 0 0 0.92157 0 0 0 0 0.86275 0 0 0 0 1 0 0 0 0.45 0"/>
            <feBlend mode="normal" in2="shape" result="effect_innerShadow_1"/>
        </filter>
        <filter id="filter_50_9321_dd" x="0.000000" y="2.218323" width="35.887207" height="35.887161"
                filterUnits="userSpaceOnUse" color-interpolation-filters="sRGB">
            <feFlood flood-opacity="0" result="BackgroundImageFix"/>
            <feGaussianBlur in="BackgroundImage" stdDeviation="14.1654"/>
            <feComposite in2="SourceAlpha" operator="in" result="effect_backgroundBlur_1"/>
            <feBlend mode="normal" in="SourceGraphic" in2="effect_backgroundBlur_1" result="shape"/>
            <feColorMatrix in="SourceAlpha" type="matrix" values="0 0 0 0 0 0 0 0 0 0 0 0 0 0 0 0 0 0 127 0"
                           result="hardAlpha"/>
            <feOffset dx="0" dy="-10"/>
            <feGaussianBlur stdDeviation="3.33333"/>
            <feComposite in2="hardAlpha" operator="arithmetic" k2="-1" k3="1"/>
            <feColorMatrix type="matrix" values="0 0 0 0 0.82745 0 0 0 0 0.56078 0 0 0 0 1 0 0 0 0.3 0"/>
            <feBlend mode="normal" in2="shape" result="effect_innerShadow_2"/>
        </filter>
        <linearGradient x1="6.085688" y1="14.326172" x2="42.087975" y2="40.117889" id="paint_linear_50_9319_0"
                        gradientUnits="userSpaceOnUse">
            <stop stop-color="#AB62FF"/>
            <stop offset="1.000000" stop-color="#71268C"/>
        </linearGradient>
    </defs>
    <g filter="url(#filter_50_9319_dd)">
        <path d="M27.17 10.49C34.58 10.49 40.58 16.5 40.58 23.91C40.58 31.31 34.58 37.32 27.17 37.32C19.76 37.32 13.76 31.31 13.76 23.91C13.76 16.5 19.76 10.49 27.17 10.49Z"
              fill="url(#paint_linear_50_9319_0)" fill-opacity="1.000000" fill-rule="evenodd"/>
    </g>
    <path d="" fill="#979797" fill-opacity="0" fill-rule="evenodd"/>
    <g filter="url(#filter_50_9321_dd)">
        <path d="M17.94 3C27.42 3 35.1 10.68 35.1 20.16C35.1 29.63 27.42 37.32 17.94 37.32C8.46 37.32 0.78 29.63 0.78 20.16C0.78 10.68 8.46 3 17.94 3Z"
              fill="#EEE6FF" fill-opacity="1.000000" fill-rule="evenodd"/>
    </g>
    <path d="M35.1 20.16C35.1 29.63 27.42 37.32 17.94 37.32C8.46 37.32 0.78 29.63 0.78 20.16C0.78 10.68 8.46 3 17.94 3C27.42 3 35.1 10.68 35.1 20.16Z"
          stroke="#FFFFFF" stroke-opacity="1.000000" stroke-width="1.563346"/>
    <path d="M23.63 25.63C23.45 25.94 23.2 26.17 22.9 26.26C22.8 26.29 22.69 26.3 22.59 26.3C22.37 26.3 22.16 26.24 21.97 26.12L17.16 23.09C17 23 16.8 22.89 16.69 22.74C16.08 22.37 15.78 21.99 15.78 21.61L15.78 13.25C15.78 12.5 16.36 11.9 17.07 11.9C17.78 11.9 18.36 12.51 18.36 13.25L18.36 20.97L23.04 23.79C23.71 24.19 23.97 25.01 23.63 25.63Z"
          fill="#FFFFFF" fill-opacity="1.000000" fill-rule="evenodd"/>
</svg>
