<!--
  - Copyright (c) 2025 Huawei Device Co., Ltd.
  - Licensed under the Apache License, Version 2.0 (the "License");
  - you may not use this file except in compliance with the License.
  - You may obtain a copy of the License at
  -
  -     http://www.apache.org/licenses/LICENSE-2.0
  -
  - Unless required by applicable law or agreed to in writing, software
  - distributed under the License is distributed on an "AS IS" BASIS,
  - WITHOUT WARRANTIES OR CONDITIONS OF ANY KIND, either express or implied.
  - See the License for the specific language governing permissions and
  - limitations under the License.
  -->

<svg width="32.000000" height="32.000000" viewBox="0 0 32 32" fill="none" xmlns="http://www.w3.org/2000/svg"
>
    <desc>
        Created with Pixso.
    </desc>
    <defs/>
    <path d="M16 32C7.16 32 0 24.83 0 16C0 7.16 7.16 0 16 0C24.83 0 32 7.16 32 16C32 24.83 24.83 32 16 32Z"
          fill="#9376F5" fill-opacity="1.000000" fill-rule="evenodd"/>
    <path d="M10.13 20.46C15.79 20.46 20.37 15.88 20.37 10.23C20.37 5.48 17.13 1.48 12.73 0.33C6.43 1.63 1.48 6.65 0.28 12.99C1.48 17.3 5.44 20.46 10.13 20.46Z"
          fill="#FFFFFF" fill-opacity="0.200000" fill-rule="evenodd"/>
    <path d="M16 32C24.83 32 32 24.83 32 16C32 15 31.9 14.03 31.73 13.09C29 10.5 25.3 8.91 21.24 8.91C12.81 8.91 5.98 15.74 5.98 24.17C5.98 25.89 6.26 27.54 6.79 29.08C9.39 30.92 12.57 32 16 32Z"
          fill="#FFFFFF" fill-opacity="0.149020" fill-rule="evenodd"/>
    <path d="M10.9006 8.88889C11.4631 8.88889 11.9717 9.12058 12.3357 9.49368C11.2048 10.2331 10.2393 11.1987 9.49976 12.3295C9.12671 11.9653 8.89502 11.4569 8.89502 10.8944C8.89502 9.78677 9.79297 8.88889 10.9006 8.88889ZM21.0327 8.88889C20.4673 8.88889 19.9568 9.12326 19.5928 9.49984C20.7195 10.238 21.6812 11.2015 22.4172 12.3295C22.7971 11.9659 23.0334 11.4541 23.0334 10.8871C23.0334 9.78362 22.1377 8.88889 21.0327 8.88889ZM22.2725 15.9438C22.2725 12.4572 19.4458 9.63068 15.9592 9.63068C12.4727 9.63068 9.64624 12.4572 9.64624 15.9438C9.64624 17.7118 10.3728 19.3101 11.5439 20.4561L10.2622 21.738C9.9707 22.0294 9.9707 22.5019 10.2622 22.7932C10.5535 23.0846 11.0261 23.0846 11.3174 22.7932L12.7368 21.3737C13.6802 21.9347 14.7822 22.2569 15.9592 22.2569C17.1394 22.2569 18.2439 21.9331 19.1887 21.3695L20.6125 22.7934C20.9041 23.0848 21.3765 23.0848 21.668 22.7934C21.9592 22.502 21.9592 22.0295 21.668 21.7382L20.3804 20.4506C21.5479 19.3048 22.2725 17.709 22.2725 15.9438ZM15.1907 15.9422C15.1907 16.3543 15.5247 16.6884 15.9368 16.6884L19.4722 16.6884C19.8843 16.6884 20.2185 16.3543 20.2185 15.9422C20.2185 15.5301 19.8843 15.196 19.4722 15.196L16.6831 15.196L16.6831 12.4069C16.6831 11.9948 16.3489 11.6607 15.9368 11.6607C15.5247 11.6607 15.1907 11.9948 15.1907 12.4069L15.1907 15.9422Z"
          clip-rule="evenodd" fill="#FFFFFF" fill-opacity="1.000000" fill-rule="evenodd"/>
</svg>
