<!--
  - Copyright (c) 2025 Huawei Device Co., Ltd.
  - Licensed under the Apache License, Version 2.0 (the "License");
  - you may not use this file except in compliance with the License.
  - You may obtain a copy of the License at
  -
  -     http://www.apache.org/licenses/LICENSE-2.0
  -
  - Unless required by applicable law or agreed to in writing, software
  - distributed under the License is distributed on an "AS IS" BASIS,
  - WITHOUT WARRANTIES OR CONDITIONS OF ANY KIND, either express or implied.
  - See the License for the specific language governing permissions and
  - limitations under the License.
  -->

<svg width="24.000000" height="24.000000" viewBox="0 0 24 24" fill="none" xmlns="http://www.w3.org/2000/svg"
>
    <desc>
        Created with Pixso.
    </desc>
    <defs/>
    <rect rx="1.000000" width="24.000000" height="24.000000" fill="#FFFFFF" fill-opacity="0"/>
    <rect x="0.500000" y="0.500000" rx="1.000000" width="23.000000" height="23.000000" stroke="#979797"
          stroke-opacity="0" stroke-width="1.000000"/>
    <path d="M1.68 11.99C1.68 10.38 1.68 8.76 1.68 7.15C1.68 6.37 1.78 5.6 1.97 4.84C2.39 3.24 3.43 2.29 5.03 1.93C5.83 1.75 6.65 1.67 7.47 1.68C10.56 1.68 13.65 1.68 16.74 1.68C17.52 1.68 18.3 1.77 19.06 1.95C20.7 2.35 21.69 3.39 22.07 5.03C22.24 5.81 22.32 6.6 22.31 7.4C22.31 10.52 22.31 13.64 22.31 16.76C22.31 17.54 22.22 18.31 22.04 19.06C21.64 20.71 20.59 21.69 18.95 22.06C18.15 22.24 17.33 22.32 16.51 22.31C13.44 22.31 10.36 22.31 7.28 22.31C6.5 22.31 5.71 22.22 4.95 22.04C3.3 21.64 2.3 20.59 1.93 18.95C1.74 18.11 1.68 17.27 1.68 16.42C1.68 14.94 1.68 13.47 1.68 11.99Z"
          fill="#FFFFFF" fill-opacity="0" fill-rule="evenodd"/>
    <path d="M1.68 7.15C1.68 6.37 1.78 5.6 1.97 4.84C2.39 3.24 3.43 2.29 5.03 1.93C5.83 1.75 6.65 1.67 7.47 1.68C10.56 1.68 13.65 1.68 16.74 1.68C17.52 1.68 18.3 1.77 19.06 1.95C20.7 2.35 21.69 3.39 22.07 5.03C22.24 5.81 22.32 6.6 22.31 7.4C22.31 10.52 22.31 13.64 22.31 16.76C22.31 17.54 22.22 18.31 22.04 19.06C21.64 20.71 20.59 21.69 18.95 22.06C18.15 22.24 17.33 22.32 16.51 22.31C13.44 22.31 10.36 22.31 7.28 22.31C6.5 22.31 5.71 22.22 4.95 22.04C3.3 21.64 2.3 20.59 1.93 18.95C1.74 18.11 1.68 17.27 1.68 16.42C1.68 14.94 1.68 13.47 1.68 11.99C1.68 10.38 1.68 8.76 1.68 7.15Z"
          stroke="#FFFFFF" stroke-opacity="0" stroke-width="2.000000"/>
    <g opacity="0.200000">
        <path d="M1.68 7.15C1.68 6.37 1.78 5.6 1.97 4.84C2.39 3.24 3.43 2.29 5.03 1.93C5.83 1.75 6.65 1.67 7.47 1.68C10.56 1.68 13.65 1.68 16.74 1.68C17.52 1.68 18.3 1.77 19.06 1.95C20.7 2.35 21.69 3.39 22.07 5.03C22.24 5.81 22.32 6.6 22.31 7.4C22.31 10.52 22.31 13.64 22.31 16.76C22.31 17.54 22.22 18.31 22.04 19.06C21.64 20.71 20.59 21.69 18.95 22.06C18.15 22.24 17.33 22.32 16.51 22.31C13.44 22.31 10.36 22.31 7.28 22.31C6.5 22.31 5.71 22.22 4.95 22.04C3.3 21.64 2.3 20.59 1.93 18.95C1.74 18.11 1.68 17.27 1.68 16.42C1.68 14.94 1.68 13.47 1.68 11.99C1.68 10.38 1.68 8.76 1.68 7.15Z"
              stroke="#FFFFFF" stroke-opacity="0" stroke-width="2.000000"/>
    </g>
    <path d="M20.25 22.09L20.25 6.74L20.98 6.74L21 6.72C21 6.3 20.66 5.97 20.25 5.97L20.25 5.64C20.66 5.64 21 5.31 21 4.89L20.98 4.87L20.25 4.87L20.25 4.43C20.25 2.91 19.01 1.68 17.5 1.68L6.5 1.68C4.98 1.68 3.75 2.91 3.75 4.43L3.75 22.13L3.75 22.13Q3.76 22.15 8.88 18.83L12 22.08L15.2 18.87Q20.22 22.12 20.25 22.09L20.25 22.09Z"
          fill="#FFFFFF" fill-opacity="0" fill-rule="evenodd"/>
    <path d="M20.25 6.72C20.25 14.31 20.25 19.43 20.25 22.09C20.25 22.12 18.56 21.05 15.2 18.87L12 22.08L8.88 18.83C5.46 21.06 3.75 22.15 3.75 22.13C3.75 18.95 3.75 13.05 3.75 4.43C3.75 2.91 4.98 1.68 6.5 1.68L17.5 1.68C19.01 1.68 20.25 2.91 20.25 4.43L20.25 4.89"
          stroke="#191919" stroke-opacity="1.000000" stroke-width="1.500000" stroke-linejoin="round"
          stroke-linecap="round"/>
    <mask id="mask_50_9153" fill="white">
        <path d="M9.40015 5.14484C9.15454 4.80409 8.69385 4.72928 8.35327 4.97481C8.01245 5.22035 7.93774 5.681 8.18311 6.02176L10.5352 9.28569L8.79175 9.28569C8.37158 9.28569 8.04175 9.61569 8.04175 10.0357C8.04175 10.4557 8.37158 10.7857 8.79175 10.7857L11.25 10.7857L11.25 12.4286L8.79175 12.4286C8.37158 12.4286 8.04175 12.7586 8.04175 13.1786C8.04175 13.5986 8.37158 13.9286 8.79175 13.9286L11.25 13.9286L11.25 16.5833C11.25 17.0033 11.5798 17.3333 12 17.3333C12.4199 17.3333 12.75 17.0033 12.75 16.5833L12.75 13.9286L15.2085 13.9286C15.6284 13.9286 15.9585 13.5986 15.9585 13.1786C15.9585 12.7586 15.6284 12.4286 15.2085 12.4286L12.75 12.4286L12.75 10.7857L15.2085 10.7857C15.6284 10.7857 15.9585 10.4557 15.9585 10.0357C15.9585 9.61569 15.6284 9.28569 15.2085 9.28569L13.4648 9.28569L15.8167 6.02177C16.0623 5.68102 15.9873 5.22037 15.6467 4.97482C15.3059 4.72929 14.8452 4.80411 14.5996 5.14485L12 8.75278L9.40015 5.14484L9.40015 5.14484Z"
              clip-rule="evenodd" fill="" fill-opacity="1.000000" fill-rule="evenodd"/>
    </mask>
    <path d="M9.40015 5.14484C9.15454 4.80409 8.69385 4.72928 8.35327 4.97481C8.01245 5.22035 7.93774 5.681 8.18311 6.02176L10.5352 9.28569L8.79175 9.28569C8.37158 9.28569 8.04175 9.61569 8.04175 10.0357C8.04175 10.4557 8.37158 10.7857 8.79175 10.7857L11.25 10.7857L11.25 12.4286L8.79175 12.4286C8.37158 12.4286 8.04175 12.7586 8.04175 13.1786C8.04175 13.5986 8.37158 13.9286 8.79175 13.9286L11.25 13.9286L11.25 16.5833C11.25 17.0033 11.5798 17.3333 12 17.3333C12.4199 17.3333 12.75 17.0033 12.75 16.5833L12.75 13.9286L15.2085 13.9286C15.6284 13.9286 15.9585 13.5986 15.9585 13.1786C15.9585 12.7586 15.6284 12.4286 15.2085 12.4286L12.75 12.4286L12.75 10.7857L15.2085 10.7857C15.6284 10.7857 15.9585 10.4557 15.9585 10.0357C15.9585 9.61569 15.6284 9.28569 15.2085 9.28569L13.4648 9.28569L15.8167 6.02177C16.0623 5.68102 15.9873 5.22037 15.6467 4.97482C15.3059 4.72929 14.8452 4.80411 14.5996 5.14485L12 8.75278L9.40015 5.14484L9.40015 5.14484Z"
          clip-rule="evenodd" fill="#458EF8" fill-opacity="1.000000" fill-rule="evenodd" mask="url(#mask_50_9153)"/>
    <path d="M11.3837 7.89753L9.40015 5.14484C9.15454 4.80409 8.69385 4.72928 8.35327 4.97481C8.01245 5.22035 7.93774 5.681 8.18311 6.02176L9.81454 8.28569L10.5352 9.28569L8.79175 9.28569C8.37158 9.28569 8.04175 9.61569 8.04175 10.0357C8.04175 10.4557 8.37158 10.7857 8.79175 10.7857L11.25 10.7857L11.25 12.4286L8.79175 12.4286C8.37158 12.4286 8.04175 12.7586 8.04175 13.1786C8.04175 13.5986 8.37158 13.9286 8.79175 13.9286L11.25 13.9286L11.25 16.5833C11.25 17.0033 11.5798 17.3333 12 17.3333C12.4199 17.3333 12.75 17.0033 12.75 16.5833L12.75 13.9286L15.2085 13.9286C15.6284 13.9286 15.9585 13.5986 15.9585 13.1786C15.9585 12.7586 15.6284 12.4286 15.2085 12.4286L12.75 12.4286L12.75 10.7857L15.2085 10.7857C15.6284 10.7857 15.9585 10.4557 15.9585 10.0357C15.9585 9.61569 15.6284 9.28569 15.2085 9.28569L13.4648 9.28569L14.1854 8.28569L15.8167 6.02177C16.0623 5.68102 15.9873 5.22037 15.6467 4.97482C15.3059 4.72929 14.8452 4.80411 14.5996 5.14485L12.6162 7.89751L12 8.75278L11.3837 7.89753Z"
          clip-rule="evenodd" fill="#458EF8" fill-opacity="1.000000" fill-rule="evenodd"/>
</svg>
