<!--
  - Copyright (c) 2025 Huawei Device Co., Ltd.
  - Licensed under the Apache License, Version 2.0 (the "License");
  - you may not use this file except in compliance with the License.
  - You may obtain a copy of the License at
  -
  -     http://www.apache.org/licenses/LICENSE-2.0
  -
  - Unless required by applicable law or agreed to in writing, software
  - distributed under the License is distributed on an "AS IS" BASIS,
  - WITHOUT WARRANTIES OR CONDITIONS OF ANY KIND, either express or implied.
  - See the License for the specific language governing permissions and
  - limitations under the License.
  -->

<svg width="20.750000" height="20.750000" viewBox="0 0 20.75 20.75" fill="none" xmlns="http://www.w3.org/2000/svg"
>
    <desc>
        Created with Pixso.
    </desc>
    <defs/>
    <path d="M0.06 10.36C0.06 8.75 0.05 7.14 0.06 5.53C0.06 4.75 0.15 3.97 0.35 3.22C0.77 1.62 1.81 0.67 3.41 0.3C4.21 0.13 5.03 0.05 5.84 0.06C8.93 0.06 12.02 0.06 15.11 0.06C15.89 0.05 16.67 0.14 17.43 0.32C19.08 0.73 20.06 1.77 20.44 3.41C20.61 4.18 20.69 4.98 20.68 5.77C20.68 8.89 20.68 12.02 20.68 15.14C20.69 15.91 20.6 16.68 20.42 17.43C20.01 19.08 18.97 20.06 17.33 20.44C16.53 20.61 15.71 20.69 14.89 20.68C11.81 20.68 8.74 20.68 5.66 20.68C4.87 20.69 4.09 20.6 3.32 20.42C1.67 20.02 0.68 18.97 0.3 17.32C0.11 16.48 0.06 15.64 0.06 14.8C0.06 13.32 0.06 11.84 0.06 10.36Z"
          fill="#FFFFFF" fill-opacity="0" fill-rule="evenodd"/>
    <path d="M0.06 5.53C0.06 4.75 0.15 3.97 0.35 3.22C0.77 1.62 1.81 0.67 3.41 0.3C4.21 0.13 5.03 0.05 5.84 0.06C8.93 0.06 12.02 0.06 15.11 0.06C15.89 0.05 16.67 0.14 17.43 0.32C19.08 0.73 20.06 1.77 20.44 3.41C20.61 4.18 20.69 4.98 20.68 5.77C20.68 8.89 20.68 12.02 20.68 15.14C20.69 15.91 20.6 16.68 20.42 17.43C20.01 19.08 18.97 20.06 17.33 20.44C16.53 20.61 15.71 20.69 14.89 20.68C11.81 20.68 8.74 20.68 5.66 20.68C4.87 20.69 4.09 20.6 3.32 20.42C1.67 20.02 0.68 18.97 0.3 17.32C0.11 16.48 0.06 15.64 0.06 14.8C0.06 13.32 0.06 11.84 0.06 10.36C0.06 8.75 0.05 7.14 0.06 5.53Z"
          stroke="#FFFFFF" stroke-opacity="0" stroke-width="2.000000"/>
    <g opacity="0.200000">
        <path d="M0.06 5.53C0.06 4.75 0.15 3.97 0.35 3.22C0.77 1.62 1.81 0.67 3.41 0.3C4.21 0.13 5.03 0.05 5.84 0.06C8.93 0.06 12.02 0.06 15.11 0.06C15.89 0.05 16.67 0.14 17.43 0.32C19.08 0.73 20.06 1.77 20.44 3.41C20.61 4.18 20.69 4.98 20.68 5.77C20.68 8.89 20.68 12.02 20.68 15.14C20.69 15.91 20.6 16.68 20.42 17.43C20.01 19.08 18.97 20.06 17.33 20.44C16.53 20.61 15.71 20.69 14.89 20.68C11.81 20.68 8.74 20.68 5.66 20.68C4.87 20.69 4.09 20.6 3.32 20.42C1.67 20.02 0.68 18.97 0.3 17.32C0.11 16.48 0.06 15.64 0.06 14.8C0.06 13.32 0.06 11.84 0.06 10.36C0.06 8.75 0.05 7.14 0.06 5.53Z"
              stroke="#FFFFFF" stroke-opacity="0" stroke-width="2.000000"/>
    </g>
    <path d="M10.37 3.95C8.2 3.95 7.43 5.47 7.43 7.34C7.43 7.44 7.43 7.55 7.44 7.65C7.17 7.88 7.08 8.34 7.24 8.8C7.37 9.19 7.65 9.47 7.94 9.56C8.02 9.72 8.11 9.88 8.22 10.02L8.28 10.11C8.89 10.92 8.87 11.49 8.22 11.82C7.18 12.35 3.96 13.05 3.96 14.92L3.96 15.18C3.95 16.08 3.9 16.76 4.64 16.79C11.53 16.79 15.35 16.79 16.1 16.79C16.91 16.75 16.78 15.94 16.78 14.92C16.78 13.05 13.56 12.35 12.52 11.82C11.89 11.5 11.86 10.95 12.41 10.17L12.46 10.11C12.59 9.94 12.7 9.76 12.8 9.56C13.09 9.47 13.37 9.19 13.5 8.8C13.66 8.34 13.57 7.88 13.3 7.65C13.31 7.55 13.31 7.44 13.31 7.34C13.31 5.47 12.54 3.95 10.37 3.95Z"
          fill="#FFFFFF" fill-opacity="0" fill-rule="evenodd"/>
    <path d="M7.43 7.34C7.43 7.44 7.43 7.55 7.44 7.65C7.17 7.88 7.08 8.34 7.24 8.8C7.37 9.19 7.65 9.47 7.94 9.56C8.02 9.72 8.11 9.88 8.22 10.02L8.28 10.11C8.89 10.92 8.87 11.49 8.22 11.82C7.18 12.35 3.96 13.05 3.96 14.92L3.96 15.18C3.95 16.08 3.9 16.76 4.64 16.79C11.53 16.79 15.35 16.79 16.1 16.79C16.91 16.75 16.78 15.94 16.78 14.92C16.78 13.05 13.56 12.35 12.52 11.82C11.89 11.5 11.86 10.95 12.41 10.17L12.46 10.11C12.59 9.94 12.7 9.76 12.8 9.56C13.09 9.47 13.37 9.19 13.5 8.8C13.66 8.34 13.57 7.88 13.3 7.65C13.31 7.55 13.31 7.44 13.31 7.34C13.31 5.47 12.54 3.95 10.37 3.95C8.2 3.95 7.43 5.47 7.43 7.34Z"
          stroke="#458EF8" stroke-opacity="1.000000" stroke-width="1.500000" stroke-linejoin="round"/>
    <path d="M14.52 1.48L14.5 1.5C14.08 1.5 13.75 1.16 13.75 0.75C13.75 0.33 14.08 0 14.5 0L14.52 0.02L14.52 0.75L17.79 0.75C19.01 0.75 20 1.73 20 2.95L20 6.23L20.73 6.23L20.75 6.25C20.75 6.67 20.41 7 20 7C19.58 7 19.25 6.67 19.25 6.25L19.27 6.23L19.98 6.23L14.52 0.77L14.52 1.48Z"
          fill="#C4C4C4" fill-opacity="0" fill-rule="evenodd"/>
    <path d="M14.5 0.75L17.79 0.75C19.01 0.75 20 1.73 20 2.95L20 6.25" stroke="#191919" stroke-opacity="1.000000"
          stroke-width="1.500000" stroke-linejoin="round" stroke-linecap="round"/>
    <path d="M6.22 0.02L6.25 0C6.66 0 7 0.33 7 0.75C7 1.16 6.66 1.5 6.25 1.5L6.22 1.48L6.22 0.77L0.77 6.23L1.47 6.23L1.5 6.25C1.5 6.67 1.16 7 0.75 7C0.33 7 0 6.67 0 6.25L0.02 6.23L0.75 6.23L0.75 2.95C0.75 1.73 1.73 0.75 2.94 0.75L6.22 0.75L6.22 0.02Z"
          fill="#C4C4C4" fill-opacity="0" fill-rule="evenodd"/>
    <path d="M6.25 0.75L2.94 0.75C1.73 0.75 0.75 1.73 0.75 2.95L0.75 6.25" stroke="#191919" stroke-opacity="1.000000"
          stroke-width="1.500000" stroke-linejoin="round" stroke-linecap="round"/>
    <path d="M19.25 14.5L19.27 14.52L19.98 14.52L14.52 19.98L14.52 19.27L14.5 19.25C14.08 19.25 13.75 19.58 13.75 20C13.75 20.42 14.08 20.75 14.5 20.75L14.52 20.73L14.52 20L17.79 20C19.01 20 20 19.01 20 17.79L20 14.52L20.73 14.52L20.75 14.5C20.75 14.08 20.41 13.75 20 13.75C19.58 13.75 19.25 14.08 19.25 14.5Z"
          fill="#C4C4C4" fill-opacity="0" fill-rule="evenodd"/>
    <path d="M14.5 20L17.79 20C19.01 20 20 19.01 20 17.79L20 14.5" stroke="#191919" stroke-opacity="1.000000"
          stroke-width="1.500000" stroke-linejoin="round" stroke-linecap="round"/>
    <path d="M0 14.5L0.02 14.52L0.75 14.52L0.75 17.79C0.75 19.01 1.73 20 2.94 20L6.22 20L6.22 20.73L6.25 20.75C6.66 20.75 7 20.42 7 20C7 19.58 6.66 19.25 6.25 19.25L6.22 19.27L6.22 19.98L0.77 14.52L1.47 14.52L1.5 14.5C1.5 14.08 1.16 13.75 0.75 13.75C0.33 13.75 0 14.08 0 14.5Z"
          fill="#C4C4C4" fill-opacity="0" fill-rule="evenodd"/>
    <path d="M6.25 20L2.94 20C1.73 20 0.75 19.01 0.75 17.79L0.75 14.5" stroke="#191919" stroke-opacity="1.000000"
          stroke-width="1.500000" stroke-linejoin="round" stroke-linecap="round"/>
</svg>
