<!--
  - Copyright (c) 2025 Huawei Device Co., Ltd.
  - Licensed under the Apache License, Version 2.0 (the "License");
  - you may not use this file except in compliance with the License.
  - You may obtain a copy of the License at
  -
  -     http://www.apache.org/licenses/LICENSE-2.0
  -
  - Unless required by applicable law or agreed to in writing, software
  - distributed under the License is distributed on an "AS IS" BASIS,
  - WITHOUT WARRANTIES OR CONDITIONS OF ANY KIND, either express or implied.
  - See the License for the specific language governing permissions and
  - limitations under the License.
  -->

<svg width="24.000000" height="24.000000" viewBox="0 0 24 24" fill="none" xmlns="http://www.w3.org/2000/svg"
>
    <desc>
        Created with Pixso.
    </desc>
    <defs/>
    <rect width="24.000000" height="24.000000" fill="#FFFFFF" fill-opacity="0"/>
    <rect x="0.500000" y="0.500000" width="23.000000" height="23.000000" stroke="#979797" stroke-opacity="0"
          stroke-width="1.000000"/>
    <path d="M9.05 19.11C9.05 19.9 9.69 20.55 10.48 20.55C10.93 20.55 11.35 20.34 11.62 19.98L13.2 17.94L9.05 16.15L9.05 19.11Z"
          stroke="#458EF8" stroke-opacity="1.000000" stroke-width="1.500000" stroke-linejoin="round"/>
    <path d="M9.29 18.07L12.77 19.56L11.43 21.3C11.03 21.82 10.28 21.92 9.75 21.52C9.46 21.29 9.29 20.94 9.29 20.57L9.29 18.07L9.29 18.07Z"
          fill="#FFFFFF" fill-opacity="0" fill-rule="evenodd"/>
    <path d="M12.77 19.56L11.43 21.3C11.03 21.82 10.28 21.92 9.75 21.52C9.46 21.29 9.29 20.94 9.29 20.57L9.29 18.07L9.29 18.07L12.77 19.56Z"
          stroke="#FFFFFF" stroke-opacity="0" stroke-width="1.500000" stroke-linejoin="round"/>
    <path d="M6.21 14.93L3.08 13.58C2.35 13.26 2.01 12.42 2.32 11.69C2.49 11.31 2.8 11.03 3.18 10.9L19.7 5.32C20.2 5.15 20.75 5.42 20.92 5.92C20.97 6.07 20.98 6.23 20.95 6.38L18.97 18.48C18.85 19.26 18.11 19.79 17.32 19.67C17.21 19.65 17.09 19.61 16.99 19.57L9.05 16.15L20.52 5.46"
          stroke="#191919" stroke-opacity="1.000000" stroke-width="1.500000" stroke-linejoin="round"
          stroke-linecap="round"/>
</svg>
