<!--
  - Copyright (c) 2025 Huawei Device Co., Ltd.
  - Licensed under the Apache License, Version 2.0 (the "License");
  - you may not use this file except in compliance with the License.
  - You may obtain a copy of the License at
  -
  -     http://www.apache.org/licenses/LICENSE-2.0
  -
  - Unless required by applicable law or agreed to in writing, software
  - distributed under the License is distributed on an "AS IS" BASIS,
  - WITHOUT WARRANTIES OR CONDITIONS OF ANY KIND, either express or implied.
  - See the License for the specific language governing permissions and
  - limitations under the License.
  -->

<svg width="24.000000" height="24.000000" viewBox="0 0 24 24" fill="none" xmlns="http://www.w3.org/2000/svg"
>
    <desc>
        Created with Pixso.
    </desc>
    <defs/>
    <rect width="24.000000" height="24.000000" fill="#C4C4C4" fill-opacity="0"/>
    <path d="M2.15 11.99C2.15 10.45 2.15 8.91 2.15 7.37C2.15 6.63 2.24 5.89 2.43 5.17C2.83 3.64 3.82 2.73 5.35 2.38C6.11 2.22 6.89 2.14 7.67 2.15C10.62 2.15 13.57 2.15 16.52 2.15C17.27 2.15 18.01 2.23 18.74 2.41C20.31 2.79 21.25 3.79 21.61 5.35C21.77 6.09 21.85 6.85 21.84 7.6C21.84 10.58 21.84 13.57 21.84 16.55C21.84 17.29 21.76 18.02 21.58 18.74C21.2 20.31 20.2 21.25 18.64 21.61C17.87 21.77 17.09 21.85 16.31 21.84C13.37 21.84 10.43 21.84 7.5 21.84C6.75 21.84 6 21.76 5.27 21.59C3.69 21.2 2.74 20.2 2.38 18.63C2.2 17.83 2.15 17.03 2.15 16.22C2.15 14.81 2.15 13.4 2.15 11.99Z"
          fill="#FFFFFF" fill-opacity="0" fill-rule="evenodd"/>
    <path d="M2.15 7.37C2.15 6.63 2.24 5.89 2.43 5.17C2.83 3.64 3.82 2.73 5.35 2.38C6.11 2.22 6.89 2.14 7.67 2.15C10.62 2.15 13.57 2.15 16.52 2.15C17.27 2.15 18.01 2.23 18.74 2.41C20.31 2.79 21.25 3.79 21.61 5.35C21.77 6.09 21.85 6.85 21.84 7.6C21.84 10.58 21.84 13.57 21.84 16.55C21.84 17.29 21.76 18.02 21.58 18.74C21.2 20.31 20.2 21.25 18.64 21.61C17.87 21.77 17.09 21.85 16.31 21.84C13.37 21.84 10.43 21.84 7.5 21.84C6.75 21.84 6 21.76 5.27 21.59C3.69 21.2 2.74 20.2 2.38 18.63C2.2 17.83 2.15 17.03 2.15 16.22C2.15 14.81 2.15 13.4 2.15 11.99C2.15 10.45 2.15 8.91 2.15 7.37Z"
          stroke="#FFFFFF" stroke-opacity="0" stroke-width="2.000000"/>
    <g opacity="0.200000">
        <path d="M2.15 7.37C2.15 6.63 2.24 5.89 2.43 5.17C2.83 3.64 3.82 2.73 5.35 2.38C6.11 2.22 6.89 2.14 7.67 2.15C10.62 2.15 13.57 2.15 16.52 2.15C17.27 2.15 18.01 2.23 18.74 2.41C20.31 2.79 21.25 3.79 21.61 5.35C21.77 6.09 21.85 6.85 21.84 7.6C21.84 10.58 21.84 13.57 21.84 16.55C21.84 17.29 21.76 18.02 21.58 18.74C21.2 20.31 20.2 21.25 18.64 21.61C17.87 21.77 17.09 21.85 16.31 21.84C13.37 21.84 10.43 21.84 7.5 21.84C6.75 21.84 6 21.76 5.27 21.59C3.69 21.2 2.74 20.2 2.38 18.63C2.2 17.83 2.15 17.03 2.15 16.22C2.15 14.81 2.15 13.4 2.15 11.99C2.15 10.45 2.15 8.91 2.15 7.37Z"
              stroke="#FFFFFF" stroke-opacity="0" stroke-width="2.000000"/>
    </g>
    <circle cx="11.999756" cy="11.999817" r="10.500000" fill="#FFFFFF" fill-opacity="0"/>
    <mask id="mask50_9166" mask-type="alpha" maskUnits="userSpaceOnUse" x="1.499756" y="1.499817" width="21.000244"
          height="21.000351">
        <path d="M22.4998 1.49982L22.5 14.2705C21.4907 12.2745 19.4207 10.9061 17.031 10.9061C13.6482 10.9061 10.906 13.6483 10.906 17.0311C10.906 19.4207 12.2744 21.4907 14.2705 22.5002L1.49976 22.4998L1.49976 1.49982L22.4998 1.49982ZM22.4998 22.4998L22.5 19.7916C21.9102 20.9581 20.958 21.9102 19.7915 22.5002L22.4998 22.4998Z"
              clip-rule="evenodd" fill="#C4C4C4" fill-opacity="1.000000" fill-rule="evenodd"/>
    </mask>
    <g mask="url(#mask50_9166)">
        <path d="M6.31 2.15L16.81 2.15C18.26 2.15 19.43 3.33 19.43 4.78L19.43 19.21C19.43 20.66 18.26 21.84 16.81 21.84L6.31 21.84C4.86 21.84 3.68 20.66 3.68 19.21L3.68 4.78C3.68 3.33 4.86 2.15 6.31 2.15Z"
              fill="#FFFFFF" fill-opacity="0" fill-rule="evenodd"/>
        <path d="M16.81 2.15C18.26 2.15 19.43 3.33 19.43 4.78L19.43 19.21C19.43 20.66 18.26 21.84 16.81 21.84L6.31 21.84C4.86 21.84 3.68 20.66 3.68 19.21L3.68 4.78C3.68 3.33 4.86 2.15 6.31 2.15L16.81 2.15Z"
              stroke="#191919" stroke-opacity="1.000000" stroke-width="1.500000" stroke-linejoin="round"/>
    </g>
    <path d="M15.9373 5.34357L7.18726 5.34357C6.76733 5.34357 6.43726 5.67357 6.43726 6.09357C6.43726 6.51357 6.76733 6.84357 7.18726 6.84357L15.9373 6.84357C16.3572 6.84357 16.6873 6.51357 16.6873 6.09357C16.6873 5.67357 16.3572 5.34357 15.9373 5.34357ZM7.18726 9.71857L12.4373 9.71857C12.8572 9.71857 13.1873 10.0486 13.1873 10.4686C13.1873 10.8886 12.8572 11.2186 12.4373 11.2186L7.18726 11.2186C6.76733 11.2186 6.43726 10.8886 6.43726 10.4686C6.43726 10.0486 6.76733 9.71857 7.18726 9.71857Z"
          clip-rule="evenodd" fill="#191919" fill-opacity="1.000000" fill-rule="evenodd"/>
    <circle cx="17.031006" cy="17.031067" r="4.812500" fill="#FFFFFF" fill-opacity="0"/>
    <circle cx="17.031006" cy="17.031067" r="4.812500" stroke="#458EF8" stroke-opacity="1.000000"
            stroke-width="1.500000" stroke-linejoin="round"/>
    <path d="M17.76 17.79L17.78 17.81C17.78 18.23 17.45 18.56 17.03 18.56C16.61 18.56 16.28 18.23 16.28 17.81L16.3 17.79L17.76 17.79ZM16.3 14.33L16.28 14.31C16.28 13.89 16.61 13.56 17.03 13.56C17.45 13.56 17.78 13.89 17.78 14.31L17.76 14.33L16.3 14.33Z"
          fill="#777777" fill-opacity="1.000000" fill-rule="nonzero"/>
    <path d="M17.03 17.81L17.03 14.31" stroke="#458EF8" stroke-opacity="1.000000" stroke-width="1.500000"
          stroke-linejoin="round" stroke-linecap="round"/>
    <path d="M16.92 19.43C16.92 19.37 16.96 19.32 17.02 19.32L17.03 19.32C17.09 19.32 17.14 19.37 17.14 19.43C17.14 19.49 17.09 19.54 17.03 19.54L17.02 19.54C16.96 19.54 16.92 19.49 16.92 19.44L16.92 19.44"
          stroke="#458EF8" stroke-opacity="1.000000" stroke-width="1.500000" stroke-linejoin="round"
          stroke-linecap="round"/>
</svg>
