<!--
  - Copyright (c) 2025 Huawei Device Co., Ltd.
  - Licensed under the Apache License, Version 2.0 (the "License");
  - you may not use this file except in compliance with the License.
  - You may obtain a copy of the License at
  -
  -     http://www.apache.org/licenses/LICENSE-2.0
  -
  - Unless required by applicable law or agreed to in writing, software
  - distributed under the License is distributed on an "AS IS" BASIS,
  - WITHOUT WARRANTIES OR CONDITIONS OF ANY KIND, either express or implied.
  - See the License for the specific language governing permissions and
  - limitations under the License.
  -->

<svg width="24.000000" height="24.000000" viewBox="0 0 24 24" fill="none" xmlns="http://www.w3.org/2000/svg"
>
    <desc>
        Created with Pixso.
    </desc>
    <defs/>
    <rect width="24.000000" height="24.000000" fill="#C4C4C4" fill-opacity="0"/>
    <path d="M1.68 11.99C1.68 10.38 1.68 8.76 1.68 7.15C1.68 6.37 1.78 5.6 1.97 4.84C2.39 3.24 3.43 2.29 5.03 1.93C5.83 1.75 6.65 1.67 7.47 1.68C10.56 1.68 13.65 1.68 16.74 1.68C17.52 1.68 18.3 1.77 19.06 1.95C20.7 2.35 21.69 3.39 22.07 5.03C22.24 5.81 22.32 6.6 22.31 7.4C22.31 10.52 22.31 13.64 22.31 16.76C22.31 17.54 22.22 18.31 22.04 19.06C21.64 20.71 20.59 21.69 18.95 22.06C18.15 22.24 17.33 22.32 16.51 22.31C13.44 22.31 10.36 22.31 7.28 22.31C6.5 22.31 5.71 22.22 4.95 22.04C3.3 21.64 2.3 20.59 1.93 18.95C1.74 18.11 1.68 17.27 1.68 16.42C1.68 14.94 1.68 13.47 1.68 11.99Z"
          fill="#FFFFFF" fill-opacity="0" fill-rule="evenodd"/>
    <path d="M1.68 7.15C1.68 6.37 1.78 5.6 1.97 4.84C2.39 3.24 3.43 2.29 5.03 1.93C5.83 1.75 6.65 1.67 7.47 1.68C10.56 1.68 13.65 1.68 16.74 1.68C17.52 1.68 18.3 1.77 19.06 1.95C20.7 2.35 21.69 3.39 22.07 5.03C22.24 5.81 22.32 6.6 22.31 7.4C22.31 10.52 22.31 13.64 22.31 16.76C22.31 17.54 22.22 18.31 22.04 19.06C21.64 20.71 20.59 21.69 18.95 22.06C18.15 22.24 17.33 22.32 16.51 22.31C13.44 22.31 10.36 22.31 7.28 22.31C6.5 22.31 5.71 22.22 4.95 22.04C3.3 21.64 2.3 20.59 1.93 18.95C1.74 18.11 1.68 17.27 1.68 16.42C1.68 14.94 1.68 13.47 1.68 11.99C1.68 10.38 1.68 8.76 1.68 7.15Z"
          stroke="#FFFFFF" stroke-opacity="0" stroke-width="2.000000"/>
    <g opacity="0.200000">
        <path d="M1.68 7.15C1.68 6.37 1.78 5.6 1.97 4.84C2.39 3.24 3.43 2.29 5.03 1.93C5.83 1.75 6.65 1.67 7.47 1.68C10.56 1.68 13.65 1.68 16.74 1.68C17.52 1.68 18.3 1.77 19.06 1.95C20.7 2.35 21.69 3.39 22.07 5.03C22.24 5.81 22.32 6.6 22.31 7.4C22.31 10.52 22.31 13.64 22.31 16.76C22.31 17.54 22.22 18.31 22.04 19.06C21.64 20.71 20.59 21.69 18.95 22.06C18.15 22.24 17.33 22.32 16.51 22.31C13.44 22.31 10.36 22.31 7.28 22.31C6.5 22.31 5.71 22.22 4.95 22.04C3.3 21.64 2.3 20.59 1.93 18.95C1.74 18.11 1.68 17.27 1.68 16.42C1.68 14.94 1.68 13.47 1.68 11.99C1.68 10.38 1.68 8.76 1.68 7.15Z"
              stroke="#FFFFFF" stroke-opacity="0" stroke-width="2.000000"/>
    </g>
    <circle cx="12.000000" cy="12.000000" r="11.000000" fill="#FFFFFF" fill-opacity="0"/>
    <mask id="mask50_9128" mask-type="alpha" maskUnits="userSpaceOnUse" x="1.000000" y="1.000000" width="22.000000"
          height="22.000000">
        <path d="M23 23L23 1L1 1L1 23L23 23ZM5.125 3.47501L16.675 3.47501C18.8013 3.47501 20.5249 5.1987 20.5249 7.325L20.5249 18.875C20.5249 21.0013 18.8013 22.725 16.675 22.725L5.125 22.725C2.99878 22.725 1.2749 21.0013 1.2749 18.875L1.2749 7.325C1.2749 5.1987 2.99878 3.47501 5.125 3.47501Z"
              clip-rule="evenodd" fill="#C4C4C4" fill-opacity="1.000000" fill-rule="evenodd"/>
    </mask>
    <g mask="url(#mask50_9128)">
        <path d="M16.73 2.65C19.28 2.65 21.35 4.71 21.35 7.27L21.35 10.13C21.35 12.68 19.28 14.75 16.73 14.75L9.47 14.75C6.91 14.75 4.85 12.68 4.85 10.13L4.85 7.27C4.85 4.71 6.91 2.65 9.47 2.65L16.73 2.65Z"
              stroke="#458EF8" stroke-opacity="1.000000" stroke-width="1.500000" stroke-linejoin="round"/>
    </g>
    <path d="M5.4 17.5C5.28 17.5 5.09 17.5 4.85 17.5C3.33 17.5 2.1 16.27 2.1 14.75L2.1 8.15C2.1 6.63 3.33 5.4 4.85 5.4L15.85 5.4C17.36 5.4 18.6 6.63 18.6 8.15L18.6 14.75C18.6 16.27 17.36 17.5 15.85 17.5C12.38 17.5 11.1 17.5 9.79 17.5L5.85 20.95C5.74 21.05 5.56 21.03 5.46 20.92C5.42 20.87 5.4 20.81 5.4 20.74L5.4 17.5L5.4 17.5Z"
          fill="#FFFFFF" fill-opacity="0" fill-rule="evenodd"/>
    <path d="M4.85 17.5C3.33 17.5 2.1 16.27 2.1 14.75L2.1 8.15C2.1 6.63 3.33 5.4 4.85 5.4L15.85 5.4C17.36 5.4 18.6 6.63 18.6 8.15L18.6 14.75C18.6 16.27 17.36 17.5 15.85 17.5C12.38 17.5 11.1 17.5 9.79 17.5L5.85 20.95C5.74 21.05 5.56 21.03 5.46 20.92C5.42 20.87 5.4 20.81 5.4 20.74L5.4 17.5L5.4 17.5C5.28 17.5 5.09 17.5 4.85 17.5Z"
          stroke="#191919" stroke-opacity="1.000000" stroke-width="1.500000" stroke-linejoin="round"/>
    <path d="M15.2998 8.49998L5.3999 8.49998C4.97998 8.49998 4.6499 8.82999 4.6499 9.24998C4.6499 9.66998 4.97998 9.99998 5.3999 9.99998L15.2998 9.99998C15.72 9.99998 16.0498 9.66998 16.0498 9.24998C16.0498 8.82999 15.72 8.49998 15.2998 8.49998ZM5.3999 12.9L9.7998 12.9C10.22 12.9 10.5498 13.23 10.5498 13.65C10.5498 14.07 10.22 14.4 9.7998 14.4L5.3999 14.4C4.97998 14.4 4.6499 14.07 4.6499 13.65C4.6499 13.23 4.97998 12.9 5.3999 12.9Z"
          clip-rule="evenodd" fill="#191919" fill-opacity="1.000000" fill-rule="evenodd"/>
</svg>
