<!--
  - Copyright (c) 2025 Huawei Device Co., Ltd.
  - Licensed under the Apache License, Version 2.0 (the "License");
  - you may not use this file except in compliance with the License.
  - You may obtain a copy of the License at
  -
  -     http://www.apache.org/licenses/LICENSE-2.0
  -
  - Unless required by applicable law or agreed to in writing, software
  - distributed under the License is distributed on an "AS IS" BASIS,
  - WITHOUT WARRANTIES OR CONDITIONS OF ANY KIND, either express or implied.
  - See the License for the specific language governing permissions and
  - limitations under the License.
  -->

<svg width="32.000000" height="32.000000" viewBox="0 0 32 32" fill="none" xmlns="http://www.w3.org/2000/svg"
>
    <desc>
        Created with Pixso.
    </desc>
    <defs/>
    <path d="M0 16C0 24.8364 7.16357 32 16 32C24.8364 32 32 24.8364 32 16C32 7.16356 24.8364 0 16 0C7.16357 0 0 7.16356 0 16ZM24.2388 11.8231C24.6523 12.2437 24.8857 12.8092 24.8889 13.3991C24.885 14.3937 24.2275 15.2673 23.2729 15.5462L21.4209 23.2689C21.3291 23.6624 20.9775 23.9403 20.5732 23.9387L11.4302 23.9387C11.0288 23.9329 10.6814 23.6582 10.583 23.2689L8.73071 15.5462C8.36499 15.4422 8.03247 15.2454 7.76538 14.9751C7.34668 14.5575 7.11133 13.9905 7.11133 13.3991C7.11133 12.8078 7.34668 12.2407 7.76538 11.8231C8.18604 11.4094 8.75171 11.1762 9.3418 11.1729C10.5408 11.1832 11.5164 12.1413 11.5483 13.34C11.5486 14.0678 11.1963 14.7507 10.6028 15.172C11.3889 15.957 12.594 16.1404 13.5781 15.6249C14.3174 15.2231 14.8745 14.5536 15.135 13.7538C15.1907 13.245 15.1504 12.7304 15.0164 12.2364C14.8005 12.1284 14.6013 11.9889 14.4253 11.8231C14.0115 11.4024 13.7783 10.8368 13.7751 10.2467C13.7764 9.65629 14.0098 9.09011 14.4253 8.67067C14.8376 8.242 15.407 7.99976 16.0017 7.99976C16.5967 7.99976 17.1658 8.242 17.5781 8.67067C17.9973 9.08765 18.2317 9.65543 18.2285 10.2467C18.2295 11.0664 17.7839 11.8215 17.0657 12.2169C16.9412 12.7391 16.8882 13.2759 16.9084 13.8124C17.1711 14.5954 17.72 15.25 18.4453 15.6449C19.406 16.1621 20.5925 15.9858 21.3613 15.2116C21.2563 15.1493 21.1631 15.0693 21.0857 14.9751C20.6609 14.562 20.4255 13.9917 20.4355 13.3991C20.4182 12.8052 20.6548 12.232 21.0857 11.8231C21.5034 11.4043 22.0708 11.169 22.6621 11.169C23.2537 11.169 23.821 11.4043 24.2388 11.8231Z"
          clip-rule="evenodd" fill="#D7A26A" fill-opacity="1.000000" fill-rule="evenodd"/>
    <path d="M10.13 20.46C15.79 20.46 20.37 15.88 20.37 10.23C20.37 5.48 17.13 1.48 12.73 0.33C6.43 1.63 1.48 6.65 0.28 12.99C1.48 17.3 5.44 20.46 10.13 20.46Z"
          fill="#FFFFFF" fill-opacity="0.200000" fill-rule="evenodd"/>
    <path d="M16 32C24.83 32 32 24.83 32 16C32 15 31.9 14.03 31.73 13.09C29 10.5 25.3 8.91 21.24 8.91C12.81 8.91 5.98 15.74 5.98 24.17C5.98 25.89 6.26 27.54 6.79 29.08C9.39 30.92 12.57 32 16 32Z"
          fill="#FFFFFF" fill-opacity="0.149020" fill-rule="evenodd"/>
</svg>
