<!--
  - Copyright (c) 2025 Huawei Device Co., Ltd.
  - Licensed under the Apache License, Version 2.0 (the "License");
  - you may not use this file except in compliance with the License.
  - You may obtain a copy of the License at
  -
  -     http://www.apache.org/licenses/LICENSE-2.0
  -
  - Unless required by applicable law or agreed to in writing, software
  - distributed under the License is distributed on an "AS IS" BASIS,
  - WITHOUT WARRANTIES OR CONDITIONS OF ANY KIND, either express or implied.
  - See the License for the specific language governing permissions and
  - limitations under the License.
  -->

<svg width="32.000000" height="32.000000" viewBox="0 0 32 32" fill="none" xmlns="http://www.w3.org/2000/svg"
>
    <desc>
        Created with Pixso.
    </desc>
    <defs/>
    <path d="M0 16C0 24.83 7.16 32 16 32C24.83 32 32 24.83 32 16C32 7.16 24.83 0 16 0C7.16 0 0 7.16 0 16Z"
          fill="#FEB833" fill-opacity="1.000000" fill-rule="evenodd"/>
    <path d="M10.13 20.46C15.79 20.46 20.37 15.88 20.37 10.23C20.37 5.48 17.13 1.48 12.73 0.33C6.43 1.63 1.48 6.65 0.28 12.99C1.48 17.3 5.44 20.46 10.13 20.46Z"
          fill="#FFFFFF" fill-opacity="0.200000" fill-rule="evenodd"/>
    <path d="M16 32C24.83 32 32 24.83 32 16C32 15 31.9 14.03 31.73 13.09C29 10.5 25.3 8.91 21.24 8.91C12.81 8.91 5.98 15.74 5.98 24.17C5.98 25.89 6.26 27.54 6.79 29.08C9.39 30.92 12.57 32 16 32Z"
          fill="#FFFFFF" fill-opacity="0.149020" fill-rule="evenodd"/>
    <path d="M23.04 12.98L19.19 12.02C19.12 12 19.06 11.95 19.02 11.89L16.91 8.53C16.82 8.39 16.7 8.26 16.55 8.17C16.02 7.84 15.32 8 14.99 8.53L12.88 11.9C12.84 11.96 12.78 12 12.71 12.02L8.86 12.99C8.69 13.03 8.54 13.11 8.4 13.22C7.92 13.62 7.86 14.33 8.26 14.81L8.93 15.61L9.77 15.68C13.76 16.04 17.27 18.53 18.95 22.17L19.32 22.98L19.74 23.15C19.89 23.21 20.07 23.24 20.24 23.23C20.86 23.18 21.33 22.64 21.29 22.02L21.02 18.06C21.01 17.99 21.04 17.92 21.08 17.86L23.63 14.81C23.74 14.68 23.82 14.53 23.86 14.36C24.02 13.75 23.65 13.14 23.04 12.98L23.04 12.98Z"
          fill="#FFFFFF" fill-opacity="1.000000" fill-rule="evenodd"/>
    <path d="M12.16 23.15L15.84 21.66C15.88 21.65 15.91 21.64 15.95 21.64C15.99 21.64 16.02 21.65 16.06 21.66L18.18 22.52C16.67 19.22 13.48 16.86 9.7 16.52L10.82 17.86C10.86 17.91 10.89 17.99 10.88 18.06L10.61 22.02C10.59 22.19 10.62 22.36 10.68 22.52C10.86 22.96 11.29 23.23 11.74 23.23C11.88 23.23 12.02 23.2 12.16 23.15L12.16 23.15Z"
          fill="#FFFFFF" fill-opacity="1.000000" fill-rule="evenodd"/>
</svg>
