<?xml version="1.0" encoding="UTF-8"?>
<!--
  - /*
  -    Copyright (c) 2025 Huawei Device Co., Ltd.
  -    Licensed under the Apache License, Version 2.0 (the "License");
  -    you may not use this file except in compliance with the License.
  -    You may obtain a copy of the License at
  -    http://www.apache.org/licenses/LICENSE-2.0
  -    Unless required by applicable law or agreed to in writing, software
  -    distributed under the License is distributed on an "AS IS" BASIS,
  -    WITHOUT WARRANTIES OR CONDITIONS OF ANY KIND, either express or implied.
  -    See the License for the specific language governing permissions and
  -    limitations under the License.
  -  */
  -
  -->

<svg width="32px" height="32px" viewBox="0 0 32 32" version="1.1" xmlns="http://www.w3.org/2000/svg" xmlns:xlink="http://www.w3.org/1999/xlink">
    <title>编组 4</title>
    <defs>
        <path d="M0,16 C0,24.836556 7.163444,32 16,32 C24.836556,32 32,24.836556 32,16 C32,7.163444 24.836556,0 16,0 C7.163444,0 0,7.163444 0,16 Z" id="path-1"></path>
    </defs>
    <g id="方特" stroke="none" stroke-width="1" fill="none" fill-rule="evenodd">
        <g id="游园" transform="translate(-304.000000, -324.000000)" fill-rule="nonzero">
            <g id="提醒" transform="translate(304.000000, 324.000000)">
                <g id="路径">
                    <use fill="#FEB833" xlink:href="#path-1"></use>
                    <use fill="#00B17A" xlink:href="#path-1"></use>
                </g>
                <path d="M10.1377744,20.4693414 C15.7903164,20.4693414 20.3724451,15.8871158 20.3724451,10.2346707 C20.3724451,5.48035731 17.1307797,1.48319153 12.7371385,0.332984094 C6.43168509,1.63948525 1.48428159,6.65679941 0.280853906,12.9994368 C1.48711581,17.308754 5.44322181,20.4693414 10.1377744,20.4693414 Z" id="路径" fill-opacity="0.2" fill="#FFFFFF"></path>
                <path d="M16,32 C24.8364572,32 32,24.8364572 32,16 C32,15.0073217 31.9096442,14.0358153 31.7364421,13.0931597 C29.0017865,10.5031219 25.3085844,8.91445875 21.2445117,8.91445875 C12.8160363,8.91445875 5.98334594,15.7471249 5.98334594,24.1756245 C5.98334594,25.8931113 6.26722784,27.5444663 6.79029825,29.0851173 C9.39457987,30.9215443 12.571349,32 16,32 Z" id="路径" fill-opacity="0.15" fill="#FFFFFF"></path>
                <path d="M15.9964148,24.8832097 C17.1916064,24.8832097 18.2215412,24.1818259 18.7038425,23.169187 L13.2889871,23.169187 C13.7693747,24.1799122 14.7993096,24.8832097 15.9964148,24.8832097 Z M23.2803512,20.5963482 L23.272648,20.5963482 C22.5367207,20.3888206 21.9948524,19.7201393 21.9948524,18.9188554 C21.9948524,18.905411 21.9986798,18.8938804 21.9986798,18.8823497 L21.9948524,18.8823497 L21.9948524,14.1688539 L21.9833217,14.1688539 C21.8814837,11.2000969 19.7024799,8.76552916 16.8509432,8.26786978 L16.8509432,8.16985919 C16.8509432,7.57804087 16.3705556,7.09765328 15.7787131,7.09765328 C15.1868948,7.09765328 14.7065072,7.57804087 14.7065072,8.16985919 L14.7065072,8.26786978 C11.8568842,8.76552912 9.67596669,11.2000969 9.57412869,14.1688539 L9.56259803,14.1688539 L9.56259803,18.8823497 L9.55683269,18.8823497 C9.55874638,18.9150038 9.56644966,18.9457684 9.56644966,18.9803361 C9.56644966,19.7143739 9.12641938,20.3446359 8.49615747,20.6251749 C8.12528691,20.7193338 7.84859953,21.0536745 7.84859953,21.4533475 C7.84859953,21.9260318 8.23291444,22.3103467 8.70559878,22.3103467 L23.2764996,22.3103467 C23.749184,22.3103467 24.1335276,21.9260318 24.1335276,21.4533475 C24.1373505,20.9806631 23.7530356,20.5963482 23.2803513,20.5963482 L23.2803512,20.5963482 Z" id="形状" fill="#FFFFFF"></path>
            </g>
        </g>
    </g>
</svg>