<?xml version="1.0" encoding="UTF-8"?>
<!--
  - /*
  -    Copyright (c) 2025 Huawei Device Co., Ltd.
  -    Licensed under the Apache License, Version 2.0 (the "License");
  -    you may not use this file except in compliance with the License.
  -    You may obtain a copy of the License at
  -    http://www.apache.org/licenses/LICENSE-2.0
  -    Unless required by applicable law or agreed to in writing, software
  -    distributed under the License is distributed on an "AS IS" BASIS,
  -    WITHOUT WARRANTIES OR CONDITIONS OF ANY KIND, either express or implied.
  -    See the License for the specific language governing permissions and
  -    limitations under the License.
  -  */
  -
  -->

<svg width="40px" height="40px" viewBox="0 0 40 40" version="1.1" xmlns="http://www.w3.org/2000/svg" xmlns:xlink="http://www.w3.org/1999/xlink">
    <title>编组 6备份</title>
    <g id="方特" stroke="none" stroke-width="1" fill="none" fill-rule="evenodd">
        <g id="我的" transform="translate(-269.000000, -432.000000)">
            <g id="编组-6备份" transform="translate(269.000000, 432.000000)">
                <rect id="矩形" fill="#FFFFFF" x="0" y="0" width="40" height="40" rx="1"></rect>
                <g id="编组-2" transform="translate(2.000000, 2.000000)" fill-rule="nonzero">
                    <g id="会员-(1)">
                        <path d="M18,36 C8.05900001,36 0,27.941 0,18 C0,8.05900001 8.05900001,0 18,0 C27.941,0 36,8.05900001 36,18 C36,27.941 27.941,36 18,36 Z" id="路径" fill="#9376F5"></path>
                        <path d="M11.4049962,23.0280091 C17.764106,23.0280091 22.9190008,17.8730053 22.9190008,11.5140046 C22.9190008,6.16540198 19.2721272,1.66859047 14.3292808,0.374607105 C7.23564573,1.84442091 1.66981679,7.48889933 0.315960645,14.6243664 C1.67300529,19.4723482 6.12362454,23.0280091 11.4049962,23.0280091 Z" id="路径" fill-opacity="0.2" fill="#FFFFFF"></path>
                        <path d="M18,36 C27.9410144,36 36,27.9410144 36,18 C36,16.8832369 35.8983497,15.7902922 35.7034974,14.7298047 C32.6270098,11.8160121 28.4721575,10.0287661 23.9000757,10.0287661 C14.4180409,10.0287661 6.73126418,17.7155155 6.73126418,27.1975776 C6.73126418,29.1297502 7.05063132,30.9875246 7.63908553,32.720757 C10.5689024,34.7867373 14.1427676,36 18,36 Z" id="路径" fill-opacity="0.15" fill="#FFFFFF"></path>
                        <path d="M23.6621094,10 C23.0261009,10 22.4517045,10.2636719 22.0422585,10.6873224 C23.3097996,11.517786 24.3916883,12.6016697 25.2198153,13.8707386 C25.647017,13.4616477 25.9129972,12.885831 25.9129972,12.2480469 C25.9129972,11.0065696 24.9051847,10 23.6621094,10 Z M13.8780185,10.6803977 C13.4683949,10.2606534 12.8964844,10 12.2634943,10 C11.0174006,10 10.0072798,11.0101207 10.0072798,12.2562145 C10.0072798,12.889027 10.2679332,13.4609375 10.6876776,13.8707386 C11.5195581,12.5985168 12.6057966,11.5122783 13.8780185,10.6803977 L13.8780185,10.6803977 Z M25.0568182,17.9367898 C25.0568182,14.0143821 21.8769531,10.834517 17.9545455,10.834517 C14.0321378,10.834517 10.8522727,14.0143821 10.8522727,17.9367898 C10.8522727,19.9257812 11.6699219,21.7238991 12.9873935,23.0131392 L11.545277,24.4552557 C11.2175071,24.7830256 11.2175071,25.3146307 11.545277,25.6424006 C11.8730469,25.9701705 12.404652,25.9701705 12.7324219,25.6424006 L14.3293679,24.0454545 C15.390625,24.6764915 16.6303267,25.0390625 17.9545455,25.0390625 C19.2821378,25.0390625 20.5246804,24.6747159 21.5877131,24.0406605 L23.1896307,25.6425781 C23.5174006,25.970348 24.0490057,25.970348 24.3767756,25.6425781 C24.7045455,25.3148082 24.7045455,24.7832031 24.3767756,24.4554332 L22.928267,23.0069247 C24.2418324,21.7178622 25.0568182,19.9225852 25.0568182,17.9367898 Z M17.9293324,18.7745028 C17.4657315,18.7745028 17.0898438,18.3986151 17.0898438,17.9350142 L17.0898438,13.9577415 C17.0898438,13.4941406 17.4657315,13.1182528 17.9293324,13.1182528 C18.3929332,13.1182528 18.768821,13.4941406 18.768821,13.9577415 L18.768821,17.0955256 L21.9066051,17.0955256 C22.370206,17.0955256 22.7460938,17.4714134 22.7460938,17.9350142 C22.7460938,18.3986151 22.370206,18.7745028 21.9066051,18.7745028 L17.9293324,18.7745028 Z" id="形状" fill="#FFFFFF"></path>
                    </g>
                </g>
            </g>
        </g>
    </g>
</svg>