<?xml version="1.0" encoding="UTF-8"?>
<!--
  - /*
  -    Copyright (c) 2025 Huawei Device Co., Ltd.
  -    Licensed under the Apache License, Version 2.0 (the "License");
  -    you may not use this file except in compliance with the License.
  -    You may obtain a copy of the License at
  -    http://www.apache.org/licenses/LICENSE-2.0
  -    Unless required by applicable law or agreed to in writing, software
  -    distributed under the License is distributed on an "AS IS" BASIS,
  -    WITHOUT WARRANTIES OR CONDITIONS OF ANY KIND, either express or implied.
  -    See the License for the specific language governing permissions and
  -    limitations under the License.
  -  */
  -
  -->

<svg width="24px" height="24px" viewBox="0 0 24 24" version="1.1" xmlns="http://www.w3.org/2000/svg" xmlns:xlink="http://www.w3.org/1999/xlink">
    <title>编组 2备份</title>
    <g id="方特" stroke="none" stroke-width="1" fill="none" fill-rule="evenodd">
        <g id="我的" transform="translate(-128.000000, -542.000000)">
            <g id="编组-2备份" transform="translate(128.000000, 542.000000)">
                <rect id="矩形" fill="#FFFFFF" x="0" y="0" width="24" height="24" rx="1"></rect>
                <g id="ic_public_star_circle_two_colors1" transform="translate(1.000000, 1.000000)">
                    <path d="M0.690006121,10.9916023 C0.690006121,9.38052248 0.684367347,7.76944268 0.690006121,6.15836288 C0.686764824,5.37876281 0.782585668,4.60190967 0.97516705,3.84646337 C1.39726966,2.24746666 2.43883204,1.29854065 4.03621655,0.930408921 C4.83716585,0.757356623 5.65524822,0.676278029 6.47458414,0.688746951 C9.56409602,0.688746951 12.6538764,0.688746951 15.7439254,0.688746951 C16.5243132,0.68390262 17.3024392,0.773155932 18.0614621,0.954575119 C19.7071789,1.35734507 20.6947702,2.3997137 21.070957,4.03979294 C21.2400827,4.81492211 21.320883,5.60671118 21.3118133,6.40002486 C21.3118133,9.52283452 21.3118133,12.6459127 21.3118133,15.7692595 C21.3160324,16.5421251 21.2270494,17.3126803 21.0467909,18.0642426 C20.6440212,19.7107662 19.5968201,20.6935249 17.956742,21.069712 C17.1556899,21.2421094 16.3376824,21.3231805 15.5183743,21.311374 C12.4417511,21.311374 9.36539633,21.311374 6.28931009,21.311374 C5.50295703,21.3177921 4.71867101,21.229898 3.953246,21.0495735 C2.30027927,20.6468036 1.3078548,19.5996017 0.932473465,17.9514671 C0.740755102,17.1137055 0.690006121,16.2735274 0.690006121,15.4260995 C0.690006121,13.9482023 0.690006121,12.4700365 0.690006121,10.9916023 Z" id="path1" stroke-opacity="0" stroke="#FFFFFF" stroke-width="2" fill-opacity="0" fill="#FFFFFF" fill-rule="nonzero"></path>
                    <path d="M0.690006121,10.9916023 C0.690006121,9.38052248 0.684367347,7.76944268 0.690006121,6.15836288 C0.686764824,5.37876281 0.782585668,4.60190967 0.97516705,3.84646337 C1.39726966,2.24746666 2.43883204,1.29854065 4.03621655,0.930408921 C4.83716585,0.757356623 5.65524822,0.676278029 6.47458414,0.688746951 C9.56409602,0.688746951 12.6538764,0.688746951 15.7439254,0.688746951 C16.5243132,0.68390262 17.3024392,0.773155932 18.0614621,0.954575119 C19.7071789,1.35734507 20.6947702,2.3997137 21.070957,4.03979294 C21.2400827,4.81492211 21.320883,5.60671118 21.3118133,6.40002486 C21.3118133,9.52283452 21.3118133,12.6459127 21.3118133,15.7692595 C21.3160324,16.5421251 21.2270494,17.3126803 21.0467909,18.0642426 C20.6440212,19.7107662 19.5968201,20.6935249 17.956742,21.069712 C17.1556899,21.2421094 16.3376824,21.3231805 15.5183743,21.311374 C12.4417511,21.311374 9.36539633,21.311374 6.28931009,21.311374 C5.50295703,21.3177921 4.71867101,21.229898 3.953246,21.0495735 C2.30027927,20.6468036 1.3078548,19.5996017 0.932473465,17.9514671 C0.740755102,17.1137055 0.690006121,16.2735274 0.690006121,15.4260995 C0.690006121,13.9482023 0.690006121,12.4700365 0.690006121,10.9916023 Z" id="path2" stroke-opacity="0" stroke="#FFFFFF" stroke-width="2" opacity="0.200000003"></path>
                    <path d="M17.1478013,2.89158023 C16.9103248,2.7112465 16.664684,2.54110632 16.4115309,2.38181163 C14.8441015,1.39551846 12.9886766,0.825 11,0.825 C5.38050269,0.825 0.825,5.38050269 0.825,11 C0.825,16.6194973 5.38050269,21.175 11,21.175 C16.6194973,21.175 21.175,16.6194973 21.175,11 C21.175,8.69179552 20.4064185,6.56310288 19.1112154,4.85588198" id="path5" stroke="#191919" stroke-width="1.5" fill-opacity="0" fill="#FFFFFF" fill-rule="nonzero" stroke-linecap="round" stroke-linejoin="round"></path>
                    <path d="M10.5734373,14.6617573 L8.60299252,15.6976814 C8.15488497,15.9332655 7.60064342,15.7609812 7.36505935,15.3128736 C7.27124855,15.1344348 7.23887675,14.9300475 7.27295553,14.7313529 L7.64927698,12.5372305 C7.70027844,12.2398692 7.60169231,11.9364524 7.38564677,11.72586 L5.79152347,10.1719738 C5.42899683,9.81859771 5.42157889,9.2382439 5.77495499,8.87571726 C5.91567121,8.73135725 6.10005174,8.6374107 6.29955237,8.60842157 L8.50257659,8.28830337 C8.80114423,8.24491896 9.05924603,8.05739706 9.19276953,7.78684885 L10.1779919,5.79057027 C10.4020457,5.33658776 10.9517027,5.15019367 11.4056852,5.37424745 C11.5864634,5.4634668 11.7327887,5.60979205 11.8220081,5.79057027 L12.8072305,7.78684885 C12.940754,8.05739706 13.1988558,8.24491896 13.4974234,8.28830337 L15.7004476,8.60842157 C16.2014471,8.68122104 16.5485717,9.14637698 16.4757723,9.64737643 C16.4467831,9.84687706 16.3528365,10.0312576 16.2084765,10.1719738 L14.6143532,11.72586 C14.3983077,11.9364524 14.2997216,12.2398692 14.350723,12.5372305 L14.7270445,14.7313529 C14.8126254,15.230328 14.4775032,15.7042043 13.9785282,15.7897852 C13.7798337,15.823864 13.5754462,15.7914922 13.3970075,15.6976814 L11.4265627,14.6617573 C11.1595157,14.5213623 10.8404843,14.5213623 10.5734373,14.6617573 Z" id="path6" stroke="#458EF8" stroke-width="1.5" fill-opacity="0" fill="#FFFFFF" fill-rule="nonzero" stroke-linejoin="round"></path>
                </g>
            </g>
        </g>
    </g>
</svg>