<?xml version="1.0" encoding="UTF-8"?>
<!--
  - /*
  -    Copyright (c) 2025 Huawei Device Co., Ltd.
  -    Licensed under the Apache License, Version 2.0 (the "License");
  -    you may not use this file except in compliance with the License.
  -    You may obtain a copy of the License at
  -    http://www.apache.org/licenses/LICENSE-2.0
  -    Unless required by applicable law or agreed to in writing, software
  -    distributed under the License is distributed on an "AS IS" BASIS,
  -    WITHOUT WARRANTIES OR CONDITIONS OF ANY KIND, either express or implied.
  -    See the License for the specific language governing permissions and
  -    limitations under the License.
  -  */
  -
  -->

<svg width="24px" height="24px" viewBox="0 0 24 24" version="1.1" xmlns="http://www.w3.org/2000/svg" xmlns:xlink="http://www.w3.org/1999/xlink">
    <title>编组 4</title>
    <g id="方特" stroke="none" stroke-width="1" fill="none" fill-rule="evenodd">
        <g id="我的" transform="translate(-208.000000, -606.000000)">
            <g id="编组-4" transform="translate(208.000000, 606.000000)">
                <rect id="矩形备份" fill="#FFFFFF" x="0" y="0" width="24" height="24" rx="1"></rect>
                <g id="ic_ict_reconciliation_two_colors1" transform="translate(1.000000, 1.000000)">
                    <path d="M0.690006121,10.9915951 C0.690006121,9.38051648 0.684367347,7.76943778 0.690006121,6.15835907 C0.686764824,5.37875956 0.782585668,4.60190697 0.97516705,3.84646118 C1.39726966,2.24746558 2.43883204,1.29854023 4.03621655,0.930408751 C4.83716585,0.757356572 5.65524822,0.676278038 6.47458414,0.688746951 C9.56409602,0.688746951 12.6538764,0.688746951 15.7439254,0.688746951 C16.5243132,0.68390262 17.3024392,0.773155872 18.0614621,0.954574931 C19.7071789,1.35734461 20.6947702,2.39971252 21.070957,4.03979062 C21.2400827,4.81491927 21.320883,5.60670779 21.3118133,6.40002087 C21.3118133,9.52282843 21.3118133,12.6459045 21.3118133,15.769249 C21.3160324,16.5421141 21.2270494,17.3126688 21.0467909,18.0642306 C20.6440212,19.710753 19.5968201,20.693511 17.956742,21.0696979 C17.1556899,21.2420951 16.3376824,21.3231662 15.5183743,21.3113597 C12.4417511,21.3113597 9.36539633,21.3113597 6.28931009,21.3113597 C5.50295703,21.3177778 4.71867101,21.2298837 3.953246,21.0495594 C2.30027927,20.6467897 1.3078548,19.5995886 0.932473465,17.9514551 C0.740755102,17.1136942 0.690006121,16.2735166 0.690006121,15.4260893 C0.690006121,13.9481931 0.690006121,12.4700284 0.690006121,10.9915951 Z" id="path1" stroke-opacity="0" stroke="#FFFFFF" stroke-width="2" fill-opacity="0" fill="#FFFFFF" fill-rule="nonzero"></path>
                    <path d="M0.690006121,10.9915951 C0.690006121,9.38051648 0.684367347,7.76943778 0.690006121,6.15835907 C0.686764824,5.37875956 0.782585668,4.60190697 0.97516705,3.84646118 C1.39726966,2.24746558 2.43883204,1.29854023 4.03621655,0.930408751 C4.83716585,0.757356572 5.65524822,0.676278038 6.47458414,0.688746951 C9.56409602,0.688746951 12.6538764,0.688746951 15.7439254,0.688746951 C16.5243132,0.68390262 17.3024392,0.773155872 18.0614621,0.954574931 C19.7071789,1.35734461 20.6947702,2.39971252 21.070957,4.03979062 C21.2400827,4.81491927 21.320883,5.60670779 21.3118133,6.40002087 C21.3118133,9.52282843 21.3118133,12.6459045 21.3118133,15.769249 C21.3160324,16.5421141 21.2270494,17.3126688 21.0467909,18.0642306 C20.6440212,19.710753 19.5968201,20.693511 17.956742,21.0696979 C17.1556899,21.2420951 16.3376824,21.3231662 15.5183743,21.3113597 C12.4417511,21.3113597 9.36539633,21.3113597 6.28931009,21.3113597 C5.50295703,21.3177778 4.71867101,21.2298837 3.953246,21.0495594 C2.30027927,20.6467897 1.3078548,19.5995886 0.932473465,17.9514551 C0.740755102,17.1136942 0.690006121,16.2735166 0.690006121,15.4260893 C0.690006121,13.9481931 0.690006121,12.4700284 0.690006121,10.9915951 Z" id="path2" stroke-opacity="0" stroke="#FFFFFF" stroke-width="2" opacity="0.200000003"></path>
                    <path d="M19.25,5.72916667 C19.25,13.3126713 19.25,18.4335861 19.25,21.0919113 C19.25,21.1262801 17.5694444,20.0539763 14.2083333,17.875 L11,21.0833333 L7.88213424,17.8398659 C4.46071142,20.0611003 2.75,21.1580393 2.75,21.1306831 C2.75,17.9544827 2.75,12.0567551 2.75,3.4375 C2.75,1.91871694 3.98121694,0.6875 5.5,0.6875 L16.5,0.6875 C18.0187831,0.6875 19.25,1.91871694 19.25,3.4375 L19.25,3.89583333" id="path4" stroke="#191919" stroke-width="1.5" fill-opacity="0" fill="#FFFFFF" fill-rule="nonzero" stroke-linecap="round" stroke-linejoin="round"></path>
                    <path d="M7.79166667,9.03571428 L14.2083333,9.03571428 M7.79166667,4.58333333 L11,9.03571428 M11,9.03571428 L14.2083333,4.58333333 M7.79166667,12.1785714 L14.2083333,12.1785714 M11,9.29761905 L11,15.5833333" id="path6" stroke="#458EF8" stroke-width="1.5" stroke-linecap="round" stroke-linejoin="round"></path>
                </g>
            </g>
        </g>
    </g>
</svg>