<?xml version="1.0" encoding="UTF-8"?>
<!--
  - /*
  -    Copyright (c) 2025 Huawei Device Co., Ltd.
  -    Licensed under the Apache License, Version 2.0 (the "License");
  -    you may not use this file except in compliance with the License.
  -    You may obtain a copy of the License at
  -    http://www.apache.org/licenses/LICENSE-2.0
  -    Unless required by applicable law or agreed to in writing, software
  -    distributed under the License is distributed on an "AS IS" BASIS,
  -    WITHOUT WARRANTIES OR CONDITIONS OF ANY KIND, either express or implied.
  -    See the License for the specific language governing permissions and
  -    limitations under the License.
  -  */
  -
  -->

<svg width="24px" height="24px" viewBox="0 0 24 24" version="1.1" xmlns="http://www.w3.org/2000/svg" xmlns:xlink="http://www.w3.org/1999/xlink">
    <title>编组 4备份</title>
    <defs>
        <path d="M21,0 L21.0003576,12.7706924 C19.9908824,10.7747017 17.9208757,9.40625 15.53125,9.40625 C12.1485059,9.40625 9.40625,12.1485059 9.40625,15.53125 C9.40625,17.9208757 10.7747017,19.9908824 12.7706924,21.0003576 L0,21 L0,0 L21,0 Z M21.0003576,18.2918076 L21,21 L18.2918076,21.0003576 C19.458273,20.410416 20.410416,19.458273 21.0003576,18.2918076 Z" id="path-1"></path>
    </defs>
    <g id="方特" stroke="none" stroke-width="1" fill="none" fill-rule="evenodd">
        <g id="我的" transform="translate(-208.000000, -542.000000)">
            <g id="编组-4备份" transform="translate(208.000000, 542.000000)">
                <rect id="矩形备份" fill="#FFFFFF" x="0" y="0" width="24" height="24" rx="1"></rect>
                <g id="ic_ict_problem_log_two_colors1" transform="translate(1.500000, 2.000000)">
                    <path d="M0.658642206,10.491984 C0.658642206,8.95413509 0.65325974,7.41628619 0.658642206,5.87843729 C0.655548241,5.13427359 0.747013592,4.39273196 0.930841275,3.67162412 C1.33375741,2.14530908 2.32797604,1.23951608 3.85275216,0.888117606 C4.61729468,0.722931322 5.39819149,0.645538119 6.18028486,0.657440271 C9.12936439,0.657440271 12.0787002,0.657440271 15.0282924,0.657440271 C15.773208,0.652816137 16.5159647,0.738012481 17.2404865,0.911185341 C18.8113981,1.29564757 19.7540988,2.29063581 20.1131863,3.85616599 C20.2746244,4.59606201 20.351752,5.35186067 20.3430945,6.10911464 C20.3430945,9.08997841 20.3430945,12.0710985 20.3430945,15.0524749 C20.3471219,15.7902103 20.2621836,16.5257403 20.0901186,17.2431407 C19.7056566,18.8148223 18.7060555,19.7529101 17.1405264,20.1119978 C16.3758858,20.2765589 15.5950605,20.353945 14.8129937,20.3426752 C11.8762169,20.3426752 8.9396965,20.3426752 6.00343236,20.3426752 C5.25282262,20.3488016 4.50418596,20.2649026 3.773553,20.0927747 C2.19572112,19.7083125 1.24840685,18.7087107 0.890088308,17.1354913 C0.707084416,16.3358098 0.658642206,15.5338216 0.658642206,14.7249131 C0.658642206,13.3141931 0.658642206,11.9032167 0.658642206,10.491984 Z" id="path1" stroke-opacity="0" stroke="#FFFFFF" stroke-width="2" fill-opacity="0" fill="#FFFFFF" fill-rule="nonzero"></path>
                    <path d="M0.658642206,10.491984 C0.658642206,8.95413509 0.65325974,7.41628619 0.658642206,5.87843729 C0.655548241,5.13427359 0.747013592,4.39273196 0.930841275,3.67162412 C1.33375741,2.14530908 2.32797604,1.23951608 3.85275216,0.888117606 C4.61729468,0.722931322 5.39819149,0.645538119 6.18028486,0.657440271 C9.12936439,0.657440271 12.0787002,0.657440271 15.0282924,0.657440271 C15.773208,0.652816137 16.5159647,0.738012481 17.2404865,0.911185341 C18.8113981,1.29564757 19.7540988,2.29063581 20.1131863,3.85616599 C20.2746244,4.59606201 20.351752,5.35186067 20.3430945,6.10911464 C20.3430945,9.08997841 20.3430945,12.0710985 20.3430945,15.0524749 C20.3471219,15.7902103 20.2621836,16.5257403 20.0901186,17.2431407 C19.7056566,18.8148223 18.7060555,19.7529101 17.1405264,20.1119978 C16.3758858,20.2765589 15.5950605,20.353945 14.8129937,20.3426752 C11.8762169,20.3426752 8.9396965,20.3426752 6.00343236,20.3426752 C5.25282262,20.3488016 4.50418596,20.2649026 3.773553,20.0927747 C2.19572112,19.7083125 1.24840685,18.7087107 0.890088308,17.1354913 C0.707084416,16.3358098 0.658642206,15.5338216 0.658642206,14.7249131 C0.658642206,13.3141931 0.658642206,11.9032167 0.658642206,10.491984 Z" id="path2" stroke-opacity="0" stroke="#FFFFFF" stroke-width="2" opacity="0.200000003"></path>
                    <circle id="path3" fill-opacity="0" fill="#FFFFFF" fill-rule="nonzero" cx="10.5" cy="10.5" r="10.5"></circle>
                    <g id="path5-Clipped">
                        <mask id="mask-2" fill="white">
                            <use xlink:href="#path-1"></use>
                        </mask>
                        <g id="path-1"></g>
                        <path d="M4.8125,0.65625 L15.3125,0.65625 C16.7622475,0.65625 17.9375,1.83150253 17.9375,3.28125 L17.9375,17.71875 C17.9375,19.1684975 16.7622475,20.34375 15.3125,20.34375 L4.8125,20.34375 C3.36275253,20.34375 2.1875,19.1684975 2.1875,17.71875 L2.1875,3.28125 C2.1875,1.83150253 3.36275253,0.65625 4.8125,0.65625 Z" id="path5" stroke="#191919" stroke-width="1.5" fill-opacity="0" fill="#FFFFFF" fill-rule="nonzero" stroke-linejoin="round" mask="url(#mask-2)"></path>
                    </g>
                    <path d="M5.6875,4.59375 L14.4375,4.59375 M5.6875,8.96875 L10.9375,8.96875" id="path6" stroke="#191919" stroke-width="1.5" stroke-linecap="round" stroke-linejoin="round"></path>
                    <circle id="path7" stroke="#458EF8" stroke-width="1.5" fill-opacity="0" fill="#FFFFFF" fill-rule="nonzero" stroke-linejoin="round" cx="15.53125" cy="15.53125" r="4.8125"></circle>
                    <line x1="14.0157056" y1="13.69375" x2="17.0467945" y2="15.44375" id="path8" stroke="#458EF8" stroke-width="1.5" fill="#777777" fill-rule="nonzero" stroke-linecap="round" stroke-linejoin="round" transform="translate(15.531250, 14.568750) rotate(-120.000000) translate(-15.531250, -14.568750) "></line>
                    <path d="M15.421875,17.933125 C15.421875,17.8751351 15.4688851,17.828125 15.526875,17.828125 L15.53125,17.828125 C15.5916561,17.828125 15.640625,17.8770939 15.640625,17.9375 C15.640625,17.9979061 15.5916561,18.046875 15.53125,18.046875 L15.526875,18.046875 C15.4688851,18.046875 15.421875,17.9998649 15.421875,17.941875 L15.421875,17.941875 L15.421875,17.941875" id="path9" stroke="#458EF8" stroke-width="1.5" stroke-linecap="round" stroke-linejoin="round"></path>
                </g>
            </g>
        </g>
    </g>
</svg>