<!--
  - Copyright (c) 2025 Huawei Device Co., Ltd.
  - Licensed under the Apache License, Version 2.0 (the "License");
  - you may not use this file except in compliance with the License.
  - You may obtain a copy of the License at
  -
  -     http://www.apache.org/licenses/LICENSE-2.0
  -
  - Unless required by applicable law or agreed to in writing, software
  - distributed under the License is distributed on an "AS IS" BASIS,
  - WITHOUT WARRANTIES OR CONDITIONS OF ANY KIND, either express or implied.
  - See the License for the specific language governing permissions and
  - limitations under the License.
  -->

<svg width="36.000000" height="36.000000" viewBox="0 0 36 36" fill="none" xmlns="http://www.w3.org/2000/svg"
>
    <desc>
        Created with Pixso.
    </desc>
    <defs/>
    <circle cx="18.000000" cy="18.000000" r="18.000000" fill="#7ED5D6" fill-opacity="1.000000"/>
    <circle cx="18.000000" cy="18.000000" r="17.500000" stroke="#979797" stroke-opacity="0" stroke-width="1.000000"/>
    <path d="M8.02 14.71L8.02 17.39C8.72 17.39 9.3 17.97 9.3 18.67C9.3 19.38 8.72 19.96 8.02 19.96L8.02 23.55C8.02 24.08 8.44 24.51 8.97 24.51L11.73 24.51L11.73 13.75L8.97 13.75C8.44 13.75 8.02 14.18 8.02 14.71Z"
          fill="#FFFFFF" fill-opacity="1.000000" fill-rule="evenodd"/>
    <path d="M24.7285 14.1142C24.7285 13.9509 24.5481 13.7961 24.4956 13.7545L13.0801 13.7545L13.0801 24.5146L24.4084 24.5146C24.4641 24.4442 24.5823 24.2682 24.5823 24.0423C24.5823 23.3425 23.8853 23.6037 23.8853 22.8505C23.8853 22.0745 24.7285 22.412 24.7285 21.58C24.7285 20.8715 23.8853 21.1639 23.8853 20.3544C23.8853 19.556 24.7285 19.9497 24.7285 19.1289C24.7285 18.308 23.8853 18.6341 23.8853 17.8134C23.8853 16.9813 24.7285 17.2512 24.7285 16.4866C24.7285 15.7221 23.8853 15.947 23.8853 15.3398C23.8853 14.7326 24.7285 14.6877 24.7285 14.1142ZM18.9045 18.4767L20.356 16.6642C20.4207 16.5815 20.4062 16.4619 20.3237 16.3971L19.8132 15.9971C19.7305 15.9322 19.6108 15.9467 19.5461 16.0294L18.042 17.9078L16.5378 16.0294C16.4729 15.9467 16.3533 15.9322 16.2708 15.9971L15.7603 16.3971C15.6777 16.4619 15.6631 16.5815 15.728 16.6642L17.1792 18.4767L15.9248 18.4767C15.8191 18.4767 15.7336 18.5623 15.7336 18.6679L15.7336 19.3199C15.7336 19.4256 15.8191 19.5112 15.9248 19.5112L17.4595 19.5112L17.4595 20.0508L15.9248 20.0508C15.8191 20.0508 15.7336 20.1364 15.7336 20.2421L15.7336 20.8941C15.7336 20.9997 15.8191 21.0853 15.9248 21.0853L17.4595 21.0853L17.4595 22.0736C17.4595 22.1953 17.5581 22.294 17.6797 22.294L18.4309 22.294C18.5527 22.294 18.6514 22.1953 18.6514 22.0736L18.6514 21.0853L20.0286 21.0853C20.1343 21.0853 20.2197 20.9997 20.2197 20.8941L20.2197 20.2421C20.2197 20.1364 20.1343 20.0508 20.0286 20.0508L18.6514 20.0508L18.6514 19.5112L20.0286 19.5112C20.1343 19.5112 20.2197 19.4256 20.2197 19.3199L20.2197 18.6679C20.2197 18.5623 20.1343 18.4767 20.0286 18.4767L18.9045 18.4767Z"
          clip-rule="evenodd" fill="#FFFFFF" fill-opacity="1.000000" fill-rule="evenodd"/>
    <path d="M27.89 13.75C27.89 12.98 27.05 13.21 27.05 12.6C27.05 12 27.89 11.95 27.89 11.38C27.89 11.21 27.71 11.06 27.66 11.02L16.25 11.02L16.25 12.74L26.11 12.74C26.16 12.78 26.34 12.93 26.34 13.1C26.34 13.67 25.5 13.72 25.5 14.32C25.5 14.93 26.34 14.71 26.34 15.47C26.34 16.23 25.5 15.96 25.5 16.8C25.5 17.62 26.34 17.29 26.34 18.11C26.34 18.93 25.5 18.54 25.5 19.34C25.5 20.15 26.34 19.85 26.34 20.56C26.34 21.37 25.54 21.07 25.5 21.78L27.57 21.78C27.63 21.71 27.75 21.53 27.75 21.31C27.75 20.61 27.05 20.87 27.05 20.11C27.05 19.34 27.89 19.67 27.89 18.84C27.89 18.13 27.05 18.43 27.05 17.62C27.05 16.82 27.89 17.21 27.89 16.39C27.89 15.57 27.05 15.9 27.05 15.08C27.05 14.24 27.89 14.51 27.89 13.75Z"
          fill="#FFFFFF" fill-opacity="0.501961" fill-rule="evenodd"/>
    <path d="M14.9 11.02L12.14 11.02C11.61 11.02 11.19 11.45 11.19 11.97L11.19 12.74L14.9 12.74L14.9 11.02Z"
          fill="#FFFFFF" fill-opacity="0.501961" fill-rule="evenodd"/>
</svg>
