<?xml version="1.0" encoding="UTF-8"?>
<!--
  - /*
  -    Copyright (c) 2025 Huawei Device Co., Ltd.
  -    Licensed under the Apache License, Version 2.0 (the "License");
  -    you may not use this file except in compliance with the License.
  -    You may obtain a copy of the License at
  -    http://www.apache.org/licenses/LICENSE-2.0
  -    Unless required by applicable law or agreed to in writing, software
  -    distributed under the License is distributed on an "AS IS" BASIS,
  -    WITHOUT WARRANTIES OR CONDITIONS OF ANY KIND, either express or implied.
  -    See the License for the specific language governing permissions and
  -    limitations under the License.
  -  */
  -
  -->

<svg width="36px" height="36px" viewBox="0 0 36 36" version="1.1" xmlns="http://www.w3.org/2000/svg" xmlns:xlink="http://www.w3.org/1999/xlink">
    <title>编组 8</title>
    <g id="方特" stroke="none" stroke-width="1" fill="none" fill-rule="evenodd">
        <g id="我的" transform="translate(-33.000000, -338.000000)">
            <g id="编组-8" transform="translate(33.000000, 338.000000)">
                <circle id="椭圆形" fill="#7ED5D6" cx="18" cy="18" r="18"></circle>
                <g id="优惠券-(1)" transform="translate(8.000000, 11.000000)" fill="#FFFFFF" fill-rule="nonzero">
                    <path d="M0.0205393823,3.71060547 L0.0205393823,6.39739202 C0.728433708,6.39739202 1.30231362,6.97124856 1.30231362,7.67916626 C1.30231362,8.38706058 0.728433708,8.96094049 0.0205393823,8.96094049 L0.0205393823,12.5584312 C0.0205393823,13.0865176 0.448623401,13.5146016 0.976686426,13.5146016 L3.73093602,13.5146016 L3.73093602,2.75443503 L0.976709818,2.75443503 C0.448623424,2.75443503 0.0205393823,3.18251905 0.0205393823,3.71060547 Z" id="路径"></path>
                    <path d="M16.7286265,3.1142145 C16.7286265,2.95086326 16.5483277,2.79609101 16.4958253,2.75443503 L5.08019666,2.75443503 L5.08019666,13.5146016 L16.4085394,13.5146016 C16.464221,13.4441698 16.5824332,13.2681722 16.5824332,13.0422669 C16.5824332,12.3424607 15.885362,12.6036637 15.885362,11.8504434 C15.885362,11.074525 16.7286265,11.4119337 16.7286265,10.5799364 C16.7286265,9.87150439 15.885362,10.1638909 15.885362,9.3544047 C15.885362,8.55602202 16.7286265,8.94967325 16.7286265,8.12884967 C16.7286265,7.30802606 15.885362,7.63412077 15.885362,6.81339067 C15.885362,5.98129987 16.7286265,6.25119874 16.7286265,5.48661771 C16.7286265,4.72206006 15.885362,4.94693684 15.885362,4.33976955 C15.885362,3.73260227 16.7286265,3.68765026 16.7286265,3.1142145 Z M12.356059,5.66415815 L10.9046454,7.47668364 L12.0286786,7.47668364 C12.1342912,7.47668364 12.219894,7.5623098 12.219894,7.6679224 L12.219894,8.31992478 C12.219894,8.42553737 12.1342912,8.51116354 12.0286786,8.51116354 L10.6514837,8.51116354 L10.6514837,9.05082104 L12.0286786,9.05082104 C12.1342912,9.05082104 12.219894,9.13642382 12.219894,9.2420598 L12.219894,9.89403881 C12.219894,9.99965141 12.1342912,10.0852542 12.0286786,10.0852542 L10.6514837,10.0852542 L10.6514837,11.07359 C10.6514837,11.1952852 10.5528371,11.2939552 10.4311418,11.2939552 L9.6798851,11.2939552 C9.5582132,11.2939552 9.45956663,11.1952385 9.45956663,11.0735666 L9.45956663,10.0852542 L7.92491123,10.0852542 C7.81927524,10.0852542 7.73367247,9.99965143 7.73367247,9.89403881 L7.73367247,9.2420598 C7.73367247,9.13642382 7.81927524,9.05082104 7.92491123,9.05082104 L9.45956663,9.05082104 L9.45956663,8.51116354 L7.92491123,8.51116354 C7.81927524,8.51116354 7.73367247,8.42553737 7.73367247,8.31992478 L7.73367247,7.6679224 C7.73367247,7.5623098 7.81927524,7.47668364 7.92491123,7.47668364 L9.17938233,7.47668364 L7.72803886,5.66415815 C7.66324068,5.58147736 7.67775715,5.46188592 7.7603678,5.39711113 L8.27080535,4.9970315 C8.35346276,4.93220996 8.47303082,4.94667966 8.53787573,5.02936045 L10.0420489,6.90778278 L11.546222,5.02936045 C11.6110436,4.94667966 11.7306116,4.93220993 11.8132691,4.9970315 L12.32373,5.39711113 C12.4062939,5.46188594 12.4208571,5.58147736 12.356059,5.66415815 Z" id="形状"></path>
                    <path d="M19.8993189,2.75443503 C19.8993189,1.98985401 19.056031,2.21473077 19.056031,1.60756348 C19.056031,1.0003962 19.8993189,0.955444216 19.8993189,0.382008452 C19.8993189,0.218657209 19.7190201,0.0638849598 19.6665177,0.0222289839 L8.25086568,0.0222289839 L8.25086568,1.74248954 L18.1149147,1.74248954 C18.1674171,1.78412212 18.3476692,1.93891776 18.3476692,2.10226901 C18.3476692,2.67570477 17.5044047,2.72068012 17.5044047,3.32782404 C17.5044047,3.93496795 18.3476692,3.71011456 18.3476692,4.47467219 C18.3476692,5.23922983 17.5044047,4.96933096 17.5044047,5.80142178 C17.5044047,6.62215189 18.3476692,6.29608055 18.3476692,7.11690415 C18.3476692,7.93770438 17.5044047,7.54405313 17.5044047,8.34243581 C17.5044047,9.15192206 18.3476692,8.85955889 18.3476692,9.56796747 C18.3476692,10.3789966 17.5467619,10.0793167 17.5063682,10.7823956 L19.5792552,10.7823956 C19.6349134,10.7119404 19.7531256,10.5359428 19.7531256,10.3100375 C19.7531256,9.61020785 19.056031,9.87143426 19.056031,9.11819056 C19.056031,8.34229557 19.8993189,8.67970422 19.8993189,7.84768355 C19.8993189,7.13927497 19.056031,7.43163814 19.056031,6.62217526 C19.056031,5.82381595 19.8993189,6.2174438 19.8993189,5.39664359 C19.8993189,4.57584336 19.056031,4.90189131 19.056031,4.08116123 C19.056031,3.2490938 19.8993189,3.51899269 19.8993189,2.75443503 Z" id="路径" fill-opacity="0.5"></path>
                    <path d="M6.9016518,0.0222289839 L4.14740221,0.0222289839 C3.61931581,0.0222289839 3.19125516,0.450313003 3.19125516,0.978376028 L3.19125516,1.74248954 L6.9016518,1.74248954 L6.9016518,0.0222289839 Z" id="路径" fill-opacity="0.5"></path>
                </g>
            </g>
        </g>
    </g>
</svg>