<?xml version="1.0" encoding="UTF-8"?>
<!--
  - /*
  -    Copyright (c) 2025 Huawei Device Co., Ltd.
  -    Licensed under the Apache License, Version 2.0 (the "License");
  -    you may not use this file except in compliance with the License.
  -    You may obtain a copy of the License at
  -    http://www.apache.org/licenses/LICENSE-2.0
  -    Unless required by applicable law or agreed to in writing, software
  -    distributed under the License is distributed on an "AS IS" BASIS,
  -    WITHOUT WARRANTIES OR CONDITIONS OF ANY KIND, either express or implied.
  -    See the License for the specific language governing permissions and
  -    limitations under the License.
  -  */
  -
  -->

<svg width="24px" height="24px" viewBox="0 0 24 24" version="1.1" xmlns="http://www.w3.org/2000/svg" xmlns:xlink="http://www.w3.org/1999/xlink">
    <title>编组 3备份</title>
    <g id="方特" stroke="none" stroke-width="1" fill="none" fill-rule="evenodd">
        <g id="我的" transform="translate(-47.000000, -542.000000)">
            <g id="编组-3备份" transform="translate(47.000000, 542.000000)">
                <rect id="矩形备份-2" fill="#FFFFFF" x="0" y="0" width="24" height="24" rx="1"></rect>
                <g id="ic_public_scans_person_two_colors1" transform="translate(1.000000, 1.000000)">
                    <path d="M0.690006121,10.9916023 C0.690006121,9.38052248 0.684367347,7.76944268 0.690006121,6.15836288 C0.686764824,5.37876281 0.782585668,4.60190967 0.97516705,3.84646337 C1.39726966,2.24746666 2.43883204,1.29854065 4.03621655,0.930408921 C4.83716585,0.757356623 5.65524822,0.676278029 6.47458414,0.688746951 C9.56409602,0.688746951 12.6538764,0.688746951 15.7439254,0.688746951 C16.5243132,0.68390262 17.3024392,0.773155932 18.0614621,0.954575119 C19.7071789,1.35734507 20.6947702,2.3997137 21.070957,4.03979294 C21.2400827,4.81492211 21.320883,5.60671118 21.3118133,6.40002486 C21.3118133,9.52283452 21.3118133,12.6459127 21.3118133,15.7692595 C21.3160324,16.5421251 21.2270494,17.3126803 21.0467909,18.0642426 C20.6440212,19.7107662 19.5968201,20.6935249 17.956742,21.069712 C17.1556899,21.2421094 16.3376824,21.3231805 15.5183743,21.311374 C12.4417511,21.311374 9.36539633,21.311374 6.28931009,21.311374 C5.50295703,21.3177921 4.71867101,21.229898 3.953246,21.0495735 C2.30027927,20.6468036 1.3078548,19.5996017 0.932473465,17.9514671 C0.740755102,17.1137055 0.690006121,16.2735274 0.690006121,15.4260995 C0.690006121,13.9482023 0.690006121,12.4700365 0.690006121,10.9916023 Z" id="path1" stroke-opacity="0" stroke="#FFFFFF" stroke-width="2" fill-opacity="0" fill="#FFFFFF" fill-rule="nonzero"></path>
                    <path d="M0.690006121,10.9916023 C0.690006121,9.38052248 0.684367347,7.76944268 0.690006121,6.15836288 C0.686764824,5.37876281 0.782585668,4.60190967 0.97516705,3.84646337 C1.39726966,2.24746666 2.43883204,1.29854065 4.03621655,0.930408921 C4.83716585,0.757356623 5.65524822,0.676278029 6.47458414,0.688746951 C9.56409602,0.688746951 12.6538764,0.688746951 15.7439254,0.688746951 C16.5243132,0.68390262 17.3024392,0.773155932 18.0614621,0.954575119 C19.7071789,1.35734507 20.6947702,2.3997137 21.070957,4.03979294 C21.2400827,4.81492211 21.320883,5.60671118 21.3118133,6.40002486 C21.3118133,9.52283452 21.3118133,12.6459127 21.3118133,15.7692595 C21.3160324,16.5421251 21.2270494,17.3126803 21.0467909,18.0642426 C20.6440212,19.7107662 19.5968201,20.6935249 17.956742,21.069712 C17.1556899,21.2421094 16.3376824,21.3231805 15.5183743,21.311374 C12.4417511,21.311374 9.36539633,21.311374 6.28931009,21.311374 C5.50295703,21.3177921 4.71867101,21.229898 3.953246,21.0495735 C2.30027927,20.6468036 1.3078548,19.5996017 0.932473465,17.9514671 C0.740755102,17.1137055 0.690006121,16.2735274 0.690006121,15.4260995 C0.690006121,13.9482023 0.690006121,12.4700365 0.690006121,10.9916023 Z" id="path2" stroke-opacity="0" stroke="#FFFFFF" stroke-width="2" opacity="0.200000003"></path>
                    <path d="M11.0005592,4.58333333 C13.1720889,4.58333333 13.9417877,6.1005323 13.9417877,7.97209206 C13.9417877,8.07480777 13.9387523,8.17778592 13.9326951,8.2806883 C14.1986609,8.5091617 14.2899938,8.97444002 14.1314393,9.4339278 C13.9984147,9.81942945 13.7242695,10.1000847 13.4322485,10.1905742 C13.3495339,10.3518736 13.2568502,10.5054285 13.1542833,10.6491207 L13.0862417,10.7398814 C12.4847602,11.5536594 12.505017,12.1238286 13.1470122,12.4503891 C14.1918964,12.9818852 17.4146088,13.6750889 17.4090935,15.5498308 L17.4112472,15.8063393 C17.424316,16.7062683 17.4694849,17.3861887 16.7266333,17.4163571 C9.8353386,17.4157412 6.01758304,17.4158444 5.27336667,17.4166667 C4.46141263,17.383692 4.59090646,16.5744585 4.59090646,15.5501403 C4.5853912,13.6753985 7.80810359,12.9821947 8.85298782,12.4506987 C9.4789331,12.1323022 9.51383839,11.5823252 8.95770369,10.8007675 L8.91375833,10.740191 C8.78392785,10.5701155 8.66900099,10.3859636 8.56871276,10.1904277 C8.27699702,10.0999131 8.00297872,9.81931161 7.86999473,9.4339278 C7.7114938,8.97459512 7.80271158,8.50947584 8.06840943,8.28038154 C8.06236607,8.17778592 8.05933067,8.07480777 8.05933067,7.97209206 C8.05933067,6.1005323 8.82902954,4.58333333 11.0005592,4.58333333 Z" id="path4" stroke="#458EF8" stroke-width="1.5" fill-opacity="0" fill="#FFFFFF" fill-rule="nonzero" stroke-linejoin="round" transform="translate(11.000000, 11.000000) scale(-1, 1) translate(-11.000000, -11.000000) "></path>
                    <path d="M15.125,1.375 L18.425,1.375 C19.6400265,1.375 20.625,2.35997355 20.625,3.575 L20.625,6.875 L20.625,6.875 M6.875,1.375 L3.575,1.375 C2.35997355,1.375 1.375,2.35997355 1.375,3.575 L1.375,6.875 L1.375,6.875 M15.125,20.625 L18.425,20.625 C19.6400265,20.625 20.625,19.6400265 20.625,18.425 L20.625,15.125 L20.625,15.125 M6.875,20.625 L3.575,20.625 C2.35997355,20.625 1.375,19.6400265 1.375,18.425 L1.375,15.125 L1.375,15.125" id="path5" stroke="#191919" stroke-width="1.5" stroke-linecap="round" stroke-linejoin="round"></path>
                </g>
            </g>
        </g>
    </g>
</svg>