<?xml version="1.0" encoding="UTF-8"?>
<!--
  - /*
  -    Copyright (c) 2025 Huawei Device Co., Ltd.
  -    Licensed under the Apache License, Version 2.0 (the "License");
  -    you may not use this file except in compliance with the License.
  -    You may obtain a copy of the License at
  -    http://www.apache.org/licenses/LICENSE-2.0
  -    Unless required by applicable law or agreed to in writing, software
  -    distributed under the License is distributed on an "AS IS" BASIS,
  -    WITHOUT WARRANTIES OR CONDITIONS OF ANY KIND, either express or implied.
  -    See the License for the specific language governing permissions and
  -    limitations under the License.
  -  */
  -
  -->

<svg width="40px" height="40px" viewBox="0 0 40 40" version="1.1" xmlns="http://www.w3.org/2000/svg" xmlns:xlink="http://www.w3.org/1999/xlink">
    <title>编组 6</title>
    <g id="方特" stroke="none" stroke-width="1" fill="none" fill-rule="evenodd">
        <g id="我的" transform="translate(-161.000000, -432.000000)">
            <g id="编组-6" transform="translate(161.000000, 432.000000)">
                <rect id="矩形" fill="#FFFFFF" x="0" y="0" width="40" height="40" rx="1"></rect>
                <g id="编组-2" transform="translate(2.000000, 2.000000)" fill-rule="nonzero">
                    <g id="会员-(1)">
                        <path d="M18,36 C8.05900001,36 0,27.941 0,18 C0,8.05900001 8.05900001,0 18,0 C27.941,0 36,8.05900001 36,18 C36,27.941 27.941,36 18,36 Z M28,15.074 C27.9963441,14.4102942 27.7339053,13.7741984 27.2685,13.301 C26.7985438,12.8298756 26.1604449,12.5651023 25.495,12.5651023 C24.8295551,12.5651023 24.1914561,12.8298756 23.7215,13.301 C23.2365055,13.7609999 22.9704589,14.4058401 22.99,15.074 C22.9786936,15.7406266 23.2434258,16.3822809 23.7215,16.847 C23.8085,16.953 23.9135,17.043 24.0315,17.113 C23.1666114,17.9840315 21.8318008,18.1823915 20.751,17.6005 C19.9350838,17.156248 19.3174173,16.4197994 19.022,15.539 C18.9991743,14.9354039 19.0587223,14.3315129 19.199,13.744 C20.0068396,13.2992459 20.5081871,12.4496765 20.507,11.5275 C20.5105904,10.8623578 20.2470563,10.2236073 19.7755,9.75449999 C19.3115401,9.27224781 18.671198,8.9997294 18.002,8.9997294 C17.332802,8.9997294 16.6924599,9.27224781 16.2285,9.75449999 C15.7610984,10.2263759 15.4983078,10.8633242 15.497,11.5275 C15.5005259,12.1913792 15.7629744,12.8276778 16.2285,13.301 C16.4265,13.4875 16.6505,13.6445 16.8935,13.766 C17.0442269,14.3216673 17.0895081,14.9006561 17.027,15.473 C16.7337251,16.3727694 16.1069582,17.1260349 15.2755,17.578 C14.1682175,18.1579207 12.8126073,17.9515925 11.928,17.0685 C12.5956924,16.5945097 12.9922693,15.8263283 12.992,15.0075 C12.9559684,13.6589526 11.8584785,12.5811357 10.5095,12.5695 C9.84565263,12.5731843 9.20941136,12.8356092 8.73600001,13.301 C8.26493617,13.7707852 8.0001875,14.4087186 8.0001875,15.074 C8.0001875,15.7392814 8.26493617,16.3772148 8.73600001,16.847 C9.03663433,17.1511098 9.41071344,17.3724227 9.82199999,17.4895 L11.906,26.1775 C12.0164376,26.6154597 12.4073766,26.9245599 12.859,26.9310083 L23.145,26.9310083 C23.5996384,26.9328612 23.9952184,26.6202555 24.0985,26.1775 L26.182,17.4895 C27.2560201,17.1757339 27.9957351,16.1929059 28,15.074 L28,15.074 Z" id="形状" fill="#D7A26A"></path>
                        <path d="M11.4049962,23.0280091 C17.764106,23.0280091 22.9190008,17.8730053 22.9190008,11.5140046 C22.9190008,6.16540198 19.2721272,1.66859047 14.3292808,0.374607105 C7.23564573,1.84442091 1.66981679,7.48889933 0.315960645,14.6243664 C1.67300529,19.4723482 6.12362454,23.0280091 11.4049962,23.0280091 Z" id="路径" fill-opacity="0.2" fill="#FFFFFF"></path>
                        <path d="M18,36 C27.9410144,36 36,27.9410144 36,18 C36,16.8832369 35.8983497,15.7902922 35.7034974,14.7298047 C32.6270098,11.8160121 28.4721575,10.0287661 23.9000757,10.0287661 C14.4180409,10.0287661 6.73126418,17.7155155 6.73126418,27.1975776 C6.73126418,29.1297502 7.05063132,30.9875246 7.63908553,32.720757 C10.5689024,34.7867373 14.1427676,36 18,36 Z" id="路径" fill-opacity="0.15" fill="#FFFFFF"></path>
                    </g>
                </g>
            </g>
        </g>
    </g>
</svg>