<svg width="20.333374" height="17.841553" viewBox="0 0 20.3334 17.8416" fill="none" xmlns="http://www.w3.org/2000/svg" xmlns:xlink="http://www.w3.org/1999/xlink">
	<desc>
			Created with Pixso.
	</desc>
	<defs/>
	<path id="path6" d="M1.02 6.93L1 6.95C0.43 6.95 0 6.51 0 5.95C0 5.39 0.43 4.95 1 4.95L1.02 4.97L1.02 6.93ZM13.56 1.72L13.53 1.72C13.13 1.33 13.12 0.7 13.51 0.3C13.9 -0.1 14.52 -0.11 14.92 0.28L14.92 0.31L13.56 1.72ZM19.31 10.9L19.33 10.88C19.89 10.88 20.33 11.32 20.33 11.88C20.33 12.44 19.89 12.88 19.33 12.88L19.31 12.86L19.31 10.9ZM6.76 16.12L6.79 16.11C7.19 16.5 7.2 17.13 6.81 17.53C6.42 17.93 5.8 17.94 5.4 17.55L5.4 17.52L6.76 16.12Z" fill="#000000" fill-opacity="0" fill-rule="nonzero"/>
	<path id="path6" d="M1 5.95L19.33 5.95L14.23 1M19.33 11.88L1 11.88L6.1 16.83" stroke="#0A59F7" stroke-opacity="1.000000" stroke-width="2.000000" stroke-linejoin="round" stroke-linecap="round"/>
</svg>
