<svg width="39.500000" height="39.500000" viewBox="0 0 39.5 39.5" fill="none" xmlns="http://www.w3.org/2000/svg" xmlns:xlink="http://www.w3.org/1999/xlink">
	<desc>
			Created with Pixso.
	</desc>
	<defs/>
	<path id="path4" d="M34.59 9.97L34.56 9.96C34.25 9.5 34.37 8.89 34.84 8.58C35.31 8.27 35.92 8.39 36.23 8.86L36.22 8.89L34.59 9.97ZM33.68 5.78L33.71 5.78C34.11 6.18 34.11 6.8 33.71 7.19C33.31 7.59 32.69 7.59 32.3 7.19L32.3 7.17L33.68 5.78Z" fill="#000000" fill-opacity="0" fill-rule="nonzero"/>
	<path id="path4" d="M35.39 9.41C37.35 12.37 38.5 15.93 38.5 19.75C38.5 30.1 30.1 38.5 19.75 38.5C9.39 38.5 1 30.1 1 19.75C1 9.39 9.39 1 19.75 1C24.92 1 29.61 3.09 33 6.49" stroke="#0A59F7" stroke-opacity="0.500000" stroke-width="2.000000" stroke-linejoin="round" stroke-linecap="round"/>
</svg>
