<svg width="21.500000" height="18.000000" viewBox="0 0 21.5 18" fill="none" xmlns="http://www.w3.org/2000/svg" xmlns:xlink="http://www.w3.org/1999/xlink">
	<desc>
			Created with Pixso.
	</desc>
	<defs/>
	<path id="path" d="M18.74 18C19.24 18 19.7 17.87 20.12 17.62C20.54 17.38 20.88 17.05 21.13 16.64C21.37 16.23 21.5 15.78 21.5 15.29L21.5 5.4C21.5 4.9 21.37 4.45 21.13 4.03C20.88 3.61 20.54 3.28 20.12 3.03C19.7 2.78 19.24 2.65 18.74 2.65L16.12 2.65C16.07 2.65 16.02 2.65 15.98 2.63C15.93 2.6 15.9 2.56 15.89 2.52L15.36 1.2C15.21 0.83 14.97 0.53 14.65 0.32C14.32 0.1 13.96 0 13.56 0L8.01 0C7.6 0 7.24 0.1 6.92 0.32C6.59 0.53 6.34 0.83 6.18 1.2L5.68 2.52C5.67 2.56 5.64 2.6 5.59 2.63C5.56 2.65 5.51 2.65 5.46 2.65L2.76 2.65C2.26 2.65 1.8 2.78 1.38 3.03C0.95 3.28 0.61 3.61 0.36 4.03C0.12 4.45 0 4.9 0 5.4L0 15.29C0 15.78 0.12 16.24 0.36 16.66C0.61 17.07 0.94 17.4 1.37 17.64C1.78 17.87 2.24 18 2.76 18L18.74 18ZM5.44 4.17C5.79 4.17 6.12 4.08 6.42 3.88C6.71 3.67 6.92 3.41 7.05 3.09L7.57 1.75C7.62 1.66 7.68 1.6 7.76 1.56C7.83 1.51 7.91 1.48 8.01 1.48L13.56 1.48C13.65 1.48 13.73 1.51 13.81 1.56C13.88 1.6 13.93 1.66 13.97 1.75L14.49 3.09C14.62 3.41 14.84 3.67 15.14 3.88C15.44 4.08 15.77 4.17 16.12 4.17L18.74 4.17C19.09 4.17 19.39 4.29 19.62 4.53C19.87 4.78 19.99 5.06 19.99 5.4L19.99 15.29C19.99 15.62 19.87 15.9 19.62 16.14C19.39 16.37 19.09 16.49 18.74 16.49L2.76 16.49C2.4 16.49 2.1 16.37 1.87 16.14C1.63 15.9 1.51 15.62 1.51 15.29L1.51 5.4C1.51 5.06 1.63 4.78 1.87 4.53C2.1 4.29 2.4 4.17 2.76 4.17L5.44 4.17ZM10.75 14.42C11.55 14.42 12.29 14.22 12.97 13.82C13.65 13.42 14.18 12.88 14.59 12.2C14.99 11.52 15.18 10.77 15.18 9.96C15.18 9.15 14.99 8.41 14.59 7.73C14.18 7.06 13.65 6.52 12.97 6.12C12.29 5.71 11.55 5.52 10.75 5.52C9.94 5.52 9.2 5.71 8.53 6.12C7.84 6.52 7.31 7.06 6.91 7.73C6.51 8.41 6.31 9.15 6.31 9.96C6.31 10.77 6.51 11.52 6.91 12.2C7.31 12.88 7.84 13.42 8.53 13.82C9.2 14.22 9.94 14.42 10.75 14.42ZM10.75 7.03C11.27 7.03 11.77 7.16 12.23 7.42C12.68 7.69 13.04 8.04 13.31 8.5C13.56 8.94 13.7 9.43 13.7 9.96C13.7 10.48 13.56 10.98 13.31 11.44C13.04 11.89 12.68 12.25 12.23 12.52C11.77 12.78 11.27 12.91 10.75 12.91C10.22 12.91 9.72 12.78 9.27 12.52C8.81 12.25 8.45 11.89 8.18 11.44C7.93 10.98 7.8 10.48 7.8 9.96C7.8 9.43 7.93 8.94 8.18 8.5C8.45 8.04 8.81 7.69 9.27 7.42C9.72 7.16 10.22 7.03 10.75 7.03Z" fill="#000000" fill-opacity="0.901961" fill-rule="nonzero"/>
</svg>
