<!--
  - Copyright (c) 2025 Huawei Device Co., Ltd.
  - Licensed under the Apache License, Version 2.0 (the "License");
  - you may not use this file except in compliance with the License.
  - You may obtain a copy of the License at
  -
  -     http://www.apache.org/licenses/LICENSE-2.0
  -
  - Unless required by applicable law or agreed to in writing, software
  - distributed under the License is distributed on an "AS IS" BASIS,
  - WITHOUT WARRANTIES OR CONDITIONS OF ANY KIND, either express or implied.
  - See the License for the specific language governing permissions and
  - limitations under the License.
  -->

<svg width="24.000000" height="24.000000" viewBox="0 0 24 24" fill="none" xmlns="http://www.w3.org/2000/svg" xmlns:xlink="http://www.w3.org/1999/xlink">
	<desc>
			Created with Pixso.
	</desc>
	<defs>
		<clipPath id="clip5_3737">
			<rect id="heart_badge_plus" width="24.000000" height="24.000000" fill="white" fill-opacity="0"/>
		</clipPath>
	</defs>
	<g clip-path="url(#clip5_3737)">
		<g opacity="0.000000">
			<rect id="rect" width="24.000000" height="24.000000" fill="#000000" fill-opacity="1.000000"/>
		</g>
		<mask id="mask5_3740" mask-type="alpha" maskUnits="userSpaceOnUse" x="0.000000" y="0.000000" width="24.000000" height="24.000000">
			<rect id="rect" width="24.000000" height="24.000000" fill="#FFFFFF" fill-opacity="1.000000"/>
			<path id="path" d="M22.66 17.64C22.66 16.68 22.42 15.79 21.95 14.98C21.47 14.16 20.83 13.51 20.02 13.04C19.2 12.57 18.31 12.34 17.35 12.34C16.39 12.34 15.5 12.57 14.69 13.04C13.87 13.51 13.22 14.16 12.76 14.98C12.28 15.79 12.05 16.68 12.05 17.64C12.05 18.6 12.28 19.48 12.76 20.29C13.22 21.12 13.87 21.76 14.69 22.24C15.5 22.7 16.39 22.94 17.35 22.94C18.31 22.94 19.2 22.7 20.02 22.24C20.83 21.76 21.47 21.12 21.95 20.29C22.42 19.48 22.66 18.6 22.66 17.64Z" fill="#000000" fill-opacity="1.000000" fill-rule="nonzero"/>
		</mask>
		<g mask="url(#mask5_3740)">
			<path id="path" d="M2.51 9.33C2.51 8.15 2.73 7.13 3.15 6.28C3.57 5.44 4.17 4.8 4.95 4.37C5.73 3.93 6.65 3.71 7.72 3.71C8.42 3.71 9.1 3.86 9.75 4.14C10.4 4.43 10.97 4.84 11.47 5.38C11.59 5.53 11.77 5.62 12 5.62C12.24 5.62 12.42 5.53 12.55 5.38C13.05 4.84 13.62 4.43 14.27 4.14C14.91 3.86 15.58 3.71 16.27 3.71C17.46 3.71 18.46 3.98 19.25 4.51C20.03 5.06 20.59 5.75 20.95 6.59C21.3 7.44 21.48 8.35 21.48 9.33C21.48 10.55 20.8 12.08 19.44 13.92C18.68 14.92 17.8 15.92 16.79 16.92C15.77 17.91 14.81 18.72 13.92 19.36C13.02 19.98 12.38 20.29 12 20.29C11.61 20.29 10.99 19.99 10.14 19.37C9.3 18.76 8.37 17.96 7.36 16.96C6.36 15.97 5.44 14.96 4.62 13.92C3.98 13.12 3.47 12.3 3.09 11.48C2.71 10.66 2.51 9.94 2.51 9.33ZM16.27 2.22C15.49 2.22 14.73 2.36 14 2.64C13.27 2.92 12.6 3.32 12 3.83C11.39 3.32 10.72 2.92 9.99 2.64C9.26 2.36 8.5 2.22 7.72 2.22C6.42 2.22 5.26 2.54 4.24 3.16C3.22 3.78 2.42 4.62 1.85 5.67C1.29 6.72 1 7.87 1 9.12C1 10.22 1.39 11.47 2.16 12.85C2.94 14.23 3.96 15.58 5.2 16.9C6.53 18.28 7.82 19.44 9.07 20.37C10.34 21.3 11.3 21.77 11.98 21.77C12.72 21.77 13.7 21.31 14.92 20.41C16.12 19.51 17.41 18.34 18.77 16.9C20 15.62 21.01 14.28 21.8 12.89C22.59 11.49 22.99 10.24 22.99 9.12C22.99 7.87 22.7 6.72 22.13 5.67C21.55 4.62 20.75 3.78 19.73 3.16C18.7 2.54 17.54 2.22 16.27 2.22Z" fill="#000000" fill-opacity="0.901961" fill-rule="nonzero"/>
		</g>
		<path id="path" d="M21.36 17.64C21.36 16.92 21.18 16.25 20.82 15.64C20.45 15.02 19.97 14.53 19.36 14.17C18.74 13.81 18.07 13.63 17.35 13.63C16.62 13.63 15.96 13.81 15.35 14.17C14.73 14.53 14.24 15.02 13.88 15.64C13.52 16.25 13.34 16.92 13.34 17.64C13.34 18.36 13.52 19.02 13.88 19.62C14.24 20.23 14.73 20.72 15.35 21.08C15.96 21.44 16.62 21.62 17.35 21.62C18.07 21.62 18.74 21.44 19.36 21.08C19.97 20.72 20.45 20.23 20.82 19.62C21.18 19.02 21.36 18.36 21.36 17.64ZM19.29 17.11C19.44 17.11 19.56 17.16 19.66 17.27C19.75 17.37 19.79 17.48 19.79 17.62C19.79 17.76 19.75 17.87 19.66 17.98C19.56 18.07 19.44 18.12 19.29 18.12L17.86 18.12L17.86 19.56C17.86 19.7 17.81 19.82 17.7 19.92C17.61 20.01 17.49 20.06 17.35 20.06C17.2 20.06 17.09 20.01 16.99 19.92C16.89 19.82 16.85 19.7 16.85 19.56L16.85 18.12L15.41 18.12C15.26 18.12 15.14 18.07 15.05 17.98C14.95 17.87 14.9 17.76 14.9 17.62C14.9 17.48 14.95 17.37 15.05 17.27C15.14 17.16 15.26 17.11 15.41 17.11L16.85 17.11L16.85 15.67C16.85 15.53 16.89 15.41 16.99 15.31C17.09 15.21 17.2 15.17 17.35 15.17C17.49 15.17 17.61 15.21 17.7 15.31C17.81 15.41 17.86 15.53 17.86 15.67L17.86 17.11L19.29 17.11Z" fill="#000000" fill-opacity="0.901961" fill-rule="nonzero"/>
	</g>
</svg>
