<!--
  - Copyright (c) 2025 Huawei Device Co., Ltd.
  - Licensed under the Apache License, Version 2.0 (the "License");
  - you may not use this file except in compliance with the License.
  - You may obtain a copy of the License at
  -
  -     http://www.apache.org/licenses/LICENSE-2.0
  -
  - Unless required by applicable law or agreed to in writing, software
  - distributed under the License is distributed on an "AS IS" BASIS,
  - WITHOUT WARRANTIES OR CONDITIONS OF ANY KIND, either express or implied.
  - See the License for the specific language governing permissions and
  - limitations under the License.
  -->

<svg width="32.000000" height="32.000000" viewBox="0 0 32 32" fill="none" xmlns="http://www.w3.org/2000/svg" xmlns:xlink="http://www.w3.org/1999/xlink">
	<desc>
			Created with Pixso.
	</desc>
	<defs>
		<linearGradient x1="16.666660" y1="1.999997" x2="16.666660" y2="41.532486" id="paint_linear_5_3822_0" gradientUnits="userSpaceOnUse">
			<stop stop-color="#0A59F7"/>
			<stop offset="0.594423" stop-color="#2E21AD"/>
			<stop offset="1.000000" stop-color="#43064D" stop-opacity="0.000000"/>
		</linearGradient>
	</defs>
	<mask id="mask_5_3822" fill="white">
		<path id="合并" d="M16.68 2C10.8037 2.01303 6 6.67606 6 12.4129C6 18.0684 9.67118 22.5524 16.0112 28.3641C16.1046 28.4617 16.243 28.5658 16.3631 28.6081C16.4315 28.6243 16.5883 28.6667 16.6583 28.6667C16.7284 28.6667 16.8118 28.6406 16.8802 28.6244C17.0002 28.5821 17.2038 28.5007 17.2972 28.4031C23.6371 22.5914 27.3333 18.0684 27.3333 12.4129C27.3333 6.67606 22.5562 2.01303 16.68 2Z" clip-rule="evenodd" fill="" fill-opacity="1.000000" fill-rule="evenodd"/>
	</mask>
	<path id="合并" d="M16.68 2C10.8037 2.01303 6 6.67606 6 12.4129C6 18.0684 9.67118 22.5524 16.0112 28.3641C16.1046 28.4617 16.243 28.5658 16.3631 28.6081C16.4315 28.6243 16.5883 28.6667 16.6583 28.6667C16.7284 28.6667 16.8118 28.6406 16.8802 28.6244C17.0002 28.5821 17.2038 28.5007 17.2972 28.4031C23.6371 22.5914 27.3333 18.0684 27.3333 12.4129C27.3333 6.67606 22.5562 2.01303 16.68 2Z" clip-rule="evenodd" fill="url(#paint_linear_5_3822_0)" fill-opacity="1.000000" fill-rule="evenodd" mask="url(#mask_5_3822)"/>
	<path id="合并" d="M24.9091 4.34474C22.6341 2.12202 19.8918 1.00713 16.6822 1L16.6778 1C13.4671 1.00713 10.7208 2.12163 8.4388 4.34354C6.14627 6.57568 5 9.26547 5 12.4129C5 17.2174 8.43816 22.7738 15.3145 29.082C15.5331 29.3038 15.772 29.4602 16.0311 29.5514L16.0808 29.5689L16.132 29.581C16.1364 29.5821 16.1469 29.5847 16.1635 29.5888C16.3732 29.6407 16.5381 29.6667 16.6583 29.6667C16.7792 29.6667 16.921 29.6459 17.0835 29.6043C17.0981 29.6006 17.1074 29.5982 17.1113 29.5973L17.1627 29.5851L17.2125 29.5675C17.5484 29.4492 17.8067 29.3023 17.9873 29.1271C24.8846 22.8011 28.3333 17.2297 28.3333 12.4129C28.3333 9.26448 27.1919 6.5751 24.9091 4.34474ZM17.2972 28.4031C23.6371 22.5914 27.3333 18.0684 27.3333 12.4129C27.3333 6.67606 22.5562 2.01303 16.68 2C10.8037 2.01303 6 6.67606 6 12.4129C6 18.0684 9.67118 22.5524 16.0112 28.3641C16.1046 28.4617 16.243 28.5658 16.3631 28.6081C16.4315 28.6243 16.5883 28.6667 16.6583 28.6667C16.7284 28.6667 16.8118 28.6406 16.8802 28.6244C17.0002 28.5821 17.2038 28.5007 17.2972 28.4031Z" clip-rule="evenodd" fill="#FFFFFF" fill-opacity="1.000000" fill-rule="evenodd"/>
	<path id="path" d="M10.86 11.95L13.09 9.71C13.12 9.69 13.14 9.67 13.17 9.65C13.2 9.64 13.23 9.63 13.26 9.62C13.3 9.61 13.33 9.61 13.36 9.61C13.39 9.62 13.43 9.63 13.46 9.64C13.49 9.65 13.51 9.67 13.54 9.69C13.57 9.71 13.59 9.73 13.61 9.76C13.62 9.79 13.64 9.82 13.65 9.85C13.66 9.88 13.66 9.91 13.66 9.95L13.66 18.47C13.66 18.52 13.66 18.56 13.65 18.6C13.64 18.65 13.63 18.69 13.61 18.73C13.59 18.77 13.57 18.81 13.55 18.84C13.53 18.88 13.5 18.91 13.47 18.95C13.44 18.98 13.4 19 13.37 19.03C13.33 19.05 13.29 19.07 13.25 19.09C13.21 19.11 13.17 19.12 13.13 19.13C13.08 19.14 13.04 19.14 13 19.14L11.33 19.14C11.28 19.14 11.24 19.14 11.2 19.13C11.16 19.12 11.11 19.11 11.07 19.09C11.03 19.07 10.99 19.05 10.96 19.03C10.92 19 10.89 18.98 10.86 18.95C10.83 18.91 10.8 18.88 10.77 18.84C10.75 18.81 10.73 18.77 10.71 18.73C10.7 18.69 10.68 18.65 10.67 18.6C10.67 18.56 10.66 18.52 10.66 18.47L10.66 12.42C10.66 12.33 10.68 12.24 10.71 12.16C10.75 12.08 10.79 12.01 10.86 11.95ZM15.49 6.02L22.16 7.68C22.19 7.69 22.23 7.7 22.26 7.72C22.3 7.73 22.33 7.75 22.36 7.77C22.39 7.79 22.42 7.81 22.45 7.84C22.47 7.86 22.5 7.89 22.52 7.92C22.54 7.95 22.56 7.98 22.58 8.01C22.6 8.04 22.61 8.08 22.63 8.11C22.64 8.15 22.65 8.18 22.65 8.22C22.66 8.25 22.66 8.29 22.66 8.33L22.66 18.47C22.66 18.52 22.66 18.56 22.65 18.6C22.64 18.65 22.63 18.69 22.61 18.73C22.59 18.77 22.57 18.81 22.55 18.84C22.53 18.88 22.5 18.91 22.47 18.95C22.44 18.98 22.4 19 22.37 19.03C22.33 19.05 22.29 19.07 22.25 19.09C22.21 19.11 22.17 19.12 22.13 19.13C22.08 19.14 22.04 19.14 22 19.14L15.33 19.14C15.28 19.14 15.24 19.14 15.2 19.13C15.16 19.12 15.11 19.11 15.07 19.09C15.03 19.07 14.99 19.05 14.96 19.03C14.92 19 14.89 18.98 14.86 18.95C14.83 18.91 14.8 18.88 14.77 18.84C14.75 18.81 14.73 18.77 14.71 18.73C14.7 18.69 14.68 18.65 14.67 18.6C14.67 18.56 14.66 18.52 14.66 18.47L14.66 6.66C14.66 6.64 14.66 6.61 14.67 6.59C14.67 6.56 14.67 6.54 14.68 6.51C14.68 6.49 14.69 6.46 14.7 6.44C14.71 6.42 14.72 6.39 14.73 6.37C14.74 6.35 14.75 6.32 14.77 6.3C14.78 6.28 14.79 6.26 14.81 6.24C14.83 6.22 14.84 6.2 14.86 6.19C14.88 6.17 14.9 6.15 14.92 6.14C14.94 6.12 14.96 6.11 14.98 6.09C15 6.08 15.02 6.07 15.05 6.06C15.07 6.05 15.09 6.04 15.12 6.03C15.14 6.02 15.17 6.01 15.19 6.01C15.21 6 15.24 6 15.26 6C15.29 6 15.32 5.99 15.34 6C15.37 6 15.39 6 15.42 6C15.44 6 15.47 6.01 15.49 6.02ZM17 9.62C16.95 9.62 16.91 9.62 16.86 9.63C16.82 9.64 16.78 9.65 16.74 9.67C16.7 9.69 16.66 9.71 16.62 9.73C16.59 9.76 16.55 9.78 16.52 9.82C16.49 9.85 16.46 9.88 16.44 9.92C16.42 9.95 16.4 9.99 16.38 10.03C16.36 10.07 16.35 10.11 16.34 10.16C16.33 10.2 16.33 10.24 16.33 10.29C16.33 10.33 16.33 10.37 16.34 10.42C16.35 10.46 16.36 10.5 16.38 10.54C16.4 10.58 16.42 10.62 16.44 10.66C16.46 10.69 16.49 10.73 16.52 10.76C16.55 10.79 16.59 10.82 16.62 10.84C16.66 10.87 16.7 10.89 16.74 10.9C16.78 10.92 16.82 10.93 16.86 10.94C16.91 10.95 16.95 10.95 17 10.95L19 10.95C19.04 10.95 19.08 10.95 19.13 10.94C19.17 10.93 19.21 10.92 19.25 10.9C19.29 10.89 19.33 10.87 19.37 10.84C19.4 10.82 19.44 10.79 19.47 10.76C19.5 10.73 19.53 10.69 19.55 10.66C19.57 10.62 19.59 10.58 19.61 10.54C19.63 10.5 19.64 10.46 19.65 10.42C19.66 10.37 19.66 10.33 19.66 10.29C19.66 10.24 19.66 10.2 19.65 10.16C19.64 10.11 19.63 10.07 19.61 10.03C19.59 9.99 19.57 9.95 19.55 9.92C19.53 9.88 19.5 9.85 19.47 9.82C19.44 9.78 19.4 9.76 19.37 9.73C19.33 9.71 19.29 9.69 19.25 9.67C19.21 9.65 19.17 9.64 19.13 9.63C19.08 9.62 19.04 9.62 19 9.62L17 9.62ZM17 12.29C16.95 12.29 16.91 12.29 16.86 12.3C16.82 12.31 16.78 12.32 16.74 12.34C16.7 12.35 16.66 12.38 16.62 12.4C16.59 12.42 16.55 12.45 16.52 12.48C16.49 12.51 16.46 12.55 16.44 12.58C16.42 12.62 16.4 12.66 16.38 12.7C16.36 12.74 16.35 12.78 16.34 12.82C16.33 12.87 16.33 12.91 16.33 12.95C16.33 13 16.33 13.04 16.34 13.08C16.35 13.13 16.36 13.17 16.38 13.21C16.4 13.25 16.42 13.29 16.44 13.32C16.46 13.36 16.49 13.39 16.52 13.43C16.55 13.46 16.59 13.48 16.62 13.51C16.66 13.53 16.7 13.55 16.74 13.57C16.78 13.59 16.82 13.6 16.86 13.61C16.91 13.62 16.95 13.62 17 13.62L20.33 13.62C20.37 13.62 20.42 13.62 20.46 13.61C20.5 13.6 20.54 13.59 20.58 13.57C20.62 13.55 20.66 13.53 20.7 13.51C20.74 13.48 20.77 13.46 20.8 13.43C20.83 13.39 20.86 13.36 20.88 13.32C20.91 13.29 20.93 13.25 20.94 13.21C20.96 13.17 20.97 13.13 20.98 13.08C20.99 13.04 21 13 21 12.95C21 12.91 20.99 12.87 20.98 12.82C20.97 12.78 20.96 12.74 20.94 12.7C20.93 12.66 20.91 12.62 20.88 12.58C20.86 12.55 20.83 12.51 20.8 12.48C20.77 12.45 20.74 12.42 20.7 12.4C20.66 12.38 20.62 12.35 20.58 12.34C20.54 12.32 20.5 12.31 20.46 12.3C20.42 12.29 20.37 12.29 20.33 12.29L17 12.29ZM17 15.29C16.95 15.29 16.91 15.29 16.86 15.3C16.82 15.31 16.78 15.32 16.74 15.34C16.7 15.35 16.66 15.38 16.62 15.4C16.59 15.42 16.55 15.45 16.52 15.48C16.49 15.51 16.46 15.55 16.44 15.58C16.42 15.62 16.4 15.66 16.38 15.7C16.36 15.74 16.35 15.78 16.34 15.82C16.33 15.87 16.33 15.91 16.33 15.95C16.33 16 16.33 16.04 16.34 16.08C16.35 16.13 16.36 16.17 16.38 16.21C16.4 16.25 16.42 16.29 16.44 16.32C16.46 16.36 16.49 16.39 16.52 16.43C16.55 16.46 16.59 16.48 16.62 16.51C16.66 16.53 16.7 16.55 16.74 16.57C16.78 16.59 16.82 16.6 16.86 16.61C16.91 16.62 16.95 16.62 17 16.62L20.33 16.62C20.37 16.62 20.42 16.62 20.46 16.61C20.5 16.6 20.54 16.59 20.58 16.57C20.62 16.55 20.66 16.53 20.7 16.51C20.74 16.48 20.77 16.46 20.8 16.43C20.83 16.39 20.86 16.36 20.88 16.32C20.91 16.29 20.93 16.25 20.94 16.21C20.96 16.17 20.97 16.13 20.98 16.08C20.99 16.04 21 16 21 15.95C21 15.91 20.99 15.87 20.98 15.82C20.97 15.78 20.96 15.74 20.94 15.7C20.93 15.66 20.91 15.62 20.88 15.58C20.86 15.55 20.83 15.51 20.8 15.48C20.77 15.45 20.74 15.42 20.7 15.4C20.66 15.38 20.62 15.35 20.58 15.34C20.54 15.32 20.5 15.31 20.46 15.3C20.42 15.29 20.37 15.29 20.33 15.29L17 15.29Z" fill="#FFFFFF" fill-opacity="1.000000" fill-rule="nonzero"/>
</svg>
